{"asset":{"version":"2.0","generator":"Blockbench 5.0.3 glTF exporter"},"scenes":[{"nodes":[0,1,2,3,4,5,6,7,8,9,10,11,12,13,14,15],"name":"blockbench_export"}],"scene":0,"nodes":[{"translation":[0,0.125,0],"name":"cone","mesh":0},{"rotation":[0,0,-1,6.123233995736766e-17],"translation":[0,0.6875,0],"name":"cone","mesh":1},{"translation":[0,0.3125,0],"name":"cone","mesh":2},{"name":"cylinder","mesh":3},{"translation":[0,0.3125,0],"name":"cylinder","mesh":4},{"translation":[0,0.4375,0],"name":"cylinder","mesh":5},{"rotation":[0,0,-1,6.123233995736766e-17],"translation":[0,0.9375,0],"name":"cone","mesh":6},{"translation":[0,0.8125,0],"name":"sphere","mesh":7},{"translation":[0,0.46875,0],"name":"cylinder","mesh":8},{"translation":[0,0.40625,0],"name":"cylinder","mesh":9},{"translation":[0,0.625,0],"name":"tube","mesh":10},{"rotation":[0.3420201433256687,0,0,0.9396926207859084],"translation":[0,-0.0125,0],"name":"cylinder","mesh":11},{"rotation":[-0.3420201433256687,0,0,0.9396926207859084],"translation":[0,0.515625,0.625],"name":"cylinder","mesh":12},{"rotation":[0,0,0.3420201433256687,0.9396926207859084],"translation":[0.3125,0.25,0.40625],"name":"cylinder","mesh":13},{"rotation":[0,0,-0.3420201433256687,0.9396926207859084],"translation":[-0.3125,0.25,0.40625],"name":"cylinder","mesh":14},{"translation":[0,0.25,0],"name":"cylinder","mesh":15}],"bufferViews":[{"buffer":0,"byteOffset":0,"byteLength":1152,"target":34962,"byteStride":12},{"buffer":0,"byteOffset":1152,"byteLength":1152,"target":34962,"byteStride":12},{"buffer":0,"byteOffset":2304,"byteLength":768,"target":34962,"byteStride":8},{"buffer":0,"byteOffset":3072,"byteLength":192,"target":34963},{"buffer":0,"byteOffset":3264,"byteLength":1152,"target":34962,"byteStride":12},{"buffer":0,"byteOffset":4416,"byteLength":1152,"target":34962,"byteStride":12},{"buffer":0,"byteOffset":5568,"byteLength":768,"target":34962,"byteStride":8},{"buffer":0,"byteOffset":6336,"byteLength":192,"target":34963},{"buffer":0,"byteOffset":6528,"byteLength":1152,"target":34962,"byteStride":12},{"buffer":0,"byteOffset":7680,"byteLength":1152,"target":34962,"byteStride":12},{"buffer":0,"byteOffset":8832,"byteLength":768,"target":34962,"byteStride":8},{"buffer":0,"byteOffset":9600,"byteLength":192,"target":34963},{"buffer":0,"byteOffset":9792,"byteLength":1920,"target":34962,"byteStride":12},{"buffer":0,"byteOffset":11712,"byteLength":1920,"target":34962,"byteStride":12},{"buffer":0,"byteOffset":13632,"byteLength":1280,"target":34962,"byteStride":8},{"buffer":0,"byteOffset":14912,"byteLength":384,"target":34963},{"buffer":0,"byteOffset":15296,"byteLength":1920,"target":34962,"byteStride":12},{"buffer":0,"byteOffset":17216,"byteLength":1920,"target":34962,"byteStride":12},{"buffer":0,"byteOffset":19136,"byteLength":1280,"target":34962,"byteStride":8},{"buffer":0,"byteOffset":20416,"byteLength":384,"target":34963},{"buffer":0,"byteOffset":20800,"byteLength":1920,"target":34962,"byteStride":12},{"buffer":0,"byteOffset":22720,"byteLength":1920,"target":34962,"byteStride":12},{"buffer":0,"byteOffset":24640,"byteLength":1280,"target":34962,"byteStride":8},{"buffer":0,"byteOffset":25920,"byteLength":384,"target":34963},{"buffer":0,"byteOffset":26304,"byteLength":1152,"target":34962,"byteStride":12},{"buffer":0,"byteOffset":27456,"byteLength":1152,"target":34962,"byteStride":12},{"buffer":0,"byteOffset":28608,"byteLength":768,"target":34962,"byteStride":8},{"buffer":0,"byteOffset":29376,"byteLength":192,"target":34963},{"buffer":0,"byteOffset":29568,"byteLength":5760,"target":34962,"byteStride":12},{"buffer":0,"byteOffset":35328,"byteLength":5760,"target":34962,"byteStride":12},{"buffer":0,"byteOffset":41088,"byteLength":3840,"target":34962,"byteStride":8},{"buffer":0,"byteOffset":44928,"byteLength":1344,"target":34963},{"buffer":0,"byteOffset":46272,"byteLength":1920,"target":34962,"byteStride":12},{"buffer":0,"byteOffset":48192,"byteLength":1920,"target":34962,"byteStride":12},{"buffer":0,"byteOffset":50112,"byteLength":1280,"target":34962,"byteStride":8},{"buffer":0,"byteOffset":51392,"byteLength":384,"target":34963},{"buffer":0,"byteOffset":51776,"byteLength":1920,"target":34962,"byteStride":12},{"buffer":0,"byteOffset":53696,"byteLength":1920,"target":34962,"byteStride":12},{"buffer":0,"byteOffset":55616,"byteLength":1280,"target":34962,"byteStride":8},{"buffer":0,"byteOffset":56896,"byteLength":384,"target":34963},{"buffer":0,"byteOffset":57280,"byteLength":768,"target":34962,"byteStride":12},{"buffer":0,"byteOffset":58048,"byteLength":768,"target":34962,"byteStride":12},{"buffer":0,"byteOffset":58816,"byteLength":512,"target":34962,"byteStride":8},{"buffer":0,"byteOffset":59328,"byteLength":192,"target":34963},{"buffer":0,"byteOffset":59520,"byteLength":1920,"target":34962,"byteStride":12},{"buffer":0,"byteOffset":61440,"byteLength":1920,"target":34962,"byteStride":12},{"buffer":0,"byteOffset":63360,"byteLength":1280,"target":34962,"byteStride":8},{"buffer":0,"byteOffset":64640,"byteLength":384,"target":34963},{"buffer":0,"byteOffset":65024,"byteLength":1920,"target":34962,"byteStride":12},{"buffer":0,"byteOffset":66944,"byteLength":1920,"target":34962,"byteStride":12},{"buffer":0,"byteOffset":68864,"byteLength":1280,"target":34962,"byteStride":8},{"buffer":0,"byteOffset":70144,"byteLength":384,"target":34963},{"buffer":0,"byteOffset":70528,"byteLength":1920,"target":34962,"byteStride":12},{"buffer":0,"byteOffset":72448,"byteLength":1920,"target":34962,"byteStride":12},{"buffer":0,"byteOffset":74368,"byteLength":1280,"target":34962,"byteStride":8},{"buffer":0,"byteOffset":75648,"byteLength":384,"target":34963},{"buffer":0,"byteOffset":76032,"byteLength":1920,"target":34962,"byteStride":12},{"buffer":0,"byteOffset":77952,"byteLength":1920,"target":34962,"byteStride":12},{"buffer":0,"byteOffset":79872,"byteLength":1280,"target":34962,"byteStride":8},{"buffer":0,"byteOffset":81152,"byteLength":384,"target":34963},{"buffer":0,"byteOffset":81536,"byteLength":1920,"target":34962,"byteStride":12},{"buffer":0,"byteOffset":83456,"byteLength":1920,"target":34962,"byteStride":12},{"buffer":0,"byteOffset":85376,"byteLength":1280,"target":34962,"byteStride":8},{"buffer":0,"byteOffset":86656,"byteLength":384,"target":34963}],"buffers":[{"byteLength":87040,"uri":"data:application/octet-stream;base64,"}],"accessors":[{"bufferView":0,"componentType":5126,"count":96,"max":[0.09375,0.375,0.09375],"min":[-0.09375,0.125,-0.09375],"type":"VEC3"},{"bufferView":1,"componentType":5126,"count":96,"max":[0.936329185962677,0.3511234521865845,0.936329185962677],"min":[-0.936329185962677,-1,-0.936329185962677],"type":"VEC3"},{"bufferView":2,"componentType":5126,"count":96,"max":[0.27779388427734375,0.32099997997283936],"min":[0,0],"type":"VEC2"},{"bufferView":3,"componentType":5123,"count":96,"max":[95],"min":[0],"type":"SCALAR"},{"bufferView":4,"componentType":5126,"count":96,"max":[0.078125,0.3125,0.078125],"min":[-0.078125,0.1875,-0.078125],"type":"VEC3"},{"bufferView":5,"componentType":5126,"count":96,"max":[0.847998321056366,0.5299989581108093,0.847998321056366],"min":[-0.847998321056366,-1,-0.847998321056366],"type":"VEC3"},{"bufferView":6,"componentType":5126,"count":96,"max":[0.5542147755622864,0.5737031102180481],"min":[0.07078520953655243,0],"type":"VEC2"},{"bufferView":7,"componentType":5123,"count":96,"max":[95],"min":[0],"type":"SCALAR"},{"bufferView":8,"componentType":5126,"count":96,"max":[0.078125,0.3125,0.078125],"min":[-0.078125,0.1875,-0.078125],"type":"VEC3"},{"bufferView":9,"componentType":5126,"count":96,"max":[0.847998321056366,0.5299989581108093,0.847998321056366],"min":[-0.847998321056366,-1,-0.847998321056366],"type":"VEC3"},{"bufferView":10,"componentType":5126,"count":96,"max":[0.4917147755622864,0.4487031102180481],"min":[0.13472355902194977,0],"type":"VEC2"},{"bufferView":11,"componentType":5123,"count":96,"max":[95],"min":[0],"type":"SCALAR"},{"bufferView":12,"componentType":5126,"count":160,"max":[0.140625,0.28125,0.140625],"min":[-0.140625,0.21875,-0.140625],"type":"VEC3"},{"bufferView":13,"componentType":5126,"count":160,"max":[1,1,1],"min":[-1,-1,-1],"type":"VEC3"},{"bufferView":14,"componentType":5126,"count":160,"max":[0.5263375043869019,0.53125],"min":[0.0078125,0],"type":"VEC2"},{"bufferView":15,"componentType":5123,"count":192,"max":[159],"min":[0],"type":"SCALAR"},{"bufferView":16,"componentType":5126,"count":160,"max":[0.03125,0.375,0.03125],"min":[-0.03125,0.125,-0.03125],"type":"VEC3"},{"bufferView":17,"componentType":5126,"count":160,"max":[1,1,1],"min":[-1,-1,-1],"type":"VEC3"},{"bufferView":18,"componentType":5126,"count":160,"max":[0.30620312690734863,0.625],"min":[0.00007812499825377017,0.125],"type":"VEC2"},{"bufferView":19,"componentType":5123,"count":192,"max":[159],"min":[0],"type":"SCALAR"},{"bufferView":20,"componentType":5126,"count":160,"max":[0.04062499850988388,0.28125,0.04062499850988388],"min":[-0.04062499850988388,0.21875,-0.04062499850988388],"type":"VEC3"},{"bufferView":21,"componentType":5126,"count":160,"max":[1,1,1],"min":[-1,-1,-1],"type":"VEC3"},{"bufferView":22,"componentType":5126,"count":160,"max":[0.4781250059604645,0.625],"min":[0.0070062498562037945,0],"type":"VEC2"},{"bufferView":23,"componentType":5123,"count":192,"max":[159],"min":[0],"type":"SCALAR"},{"bufferView":24,"componentType":5126,"count":96,"max":[0.0625,0.375,0.0625],"min":[-0.0625,0.125,-0.0625],"type":"VEC3"},{"bufferView":25,"componentType":5126,"count":96,"max":[0.9701424837112427,0.24253562092781067,0.9701424837112427],"min":[-0.9701424837112427,-1,-0.9701424837112427],"type":"VEC3"},{"bufferView":26,"componentType":5126,"count":96,"max":[0.47467830777168274,0.6326999664306641],"min":[0.000919890939258039,0],"type":"VEC2"},{"bufferView":27,"componentType":5123,"count":96,"max":[95],"min":[0],"type":"SCALAR"},{"bufferView":28,"componentType":5126,"count":480,"max":[0.0625,0.0625,0.0625],"min":[-0.0625,-0.0625,-0.0625],"type":"VEC3"},{"bufferView":29,"componentType":5126,"count":480,"max":[0.9807852506637573,0.9807852506637573,0.9807852506637573],"min":[-0.9807852506637573,-0.9807852506637573,-0.9807852506637573],"type":"VEC3"},{"bufferView":30,"componentType":5126,"count":480,"max":[0.8568017482757568,0.8125],"min":[0.018198223784565926,0],"type":"VEC2"},{"bufferView":31,"componentType":5123,"count":672,"max":[479],"min":[0],"type":"SCALAR"},{"bufferView":32,"componentType":5126,"count":160,"max":[0.04374999925494194,0.25312501192092896,0.04374999925494194],"min":[-0.04374999925494194,0.24687500298023224,-0.04374999925494194],"type":"VEC3"},{"bufferView":33,"componentType":5126,"count":160,"max":[1,1,1],"min":[-1,-1,-1],"type":"VEC3"},{"bufferView":34,"componentType":5126,"count":160,"max":[0.6823499798774719,0.5625],"min":[0.01875000074505806,0],"type":"VEC2"},{"bufferView":35,"componentType":5123,"count":192,"max":[159],"min":[0],"type":"SCALAR"},{"bufferView":36,"componentType":5126,"count":160,"max":[0.04374999925494194,0.25312501192092896,0.04374999925494194],"min":[-0.04374999925494194,0.24687500298023224,-0.04374999925494194],"type":"VEC3"},{"bufferView":37,"componentType":5126,"count":160,"max":[1,1,1],"min":[-1,-1,-1],"type":"VEC3"},{"bufferView":38,"componentType":5126,"count":160,"max":[0.5972999930381775,0.6937500238418579],"min":[0.005150000099092722,0.03750002384185791],"type":"VEC2"},{"bufferView":39,"componentType":5123,"count":192,"max":[159],"min":[0],"type":"SCALAR"},{"bufferView":40,"componentType":5126,"count":64,"max":[0.21875,0.40625,0.21875],"min":[-0.21875,0.09375,-0.21875],"type":"VEC3"},{"bufferView":41,"componentType":5126,"count":64,"max":[1,0,1],"min":[-1,0,-1],"type":"VEC3"},{"bufferView":42,"componentType":5126,"count":64,"max":[0.40625,0.53125],"min":[0.006725000217556953,0],"type":"VEC2"},{"bufferView":43,"componentType":5123,"count":96,"max":[63],"min":[0],"type":"SCALAR"},{"bufferView":44,"componentType":5126,"count":160,"max":[0.0031250000465661287,0.8251007795333862,-0.40632081031799316],"min":[-0.0031250000465661287,0.45635077357292175,-0.4125708043575287],"type":"VEC3"},{"bufferView":45,"componentType":5126,"count":160,"max":[1,1,1],"min":[-1,-1,-1],"type":"VEC3"},{"bufferView":46,"componentType":5126,"count":160,"max":[0.3915562629699707,0.46875],"min":[0.014071875251829624,0],"type":"VEC2"},{"bufferView":47,"componentType":5123,"count":192,"max":[159],"min":[0],"type":"SCALAR"},{"bufferView":48,"componentType":5126,"count":160,"max":[0.0031250000465661287,0.8251007795333862,-0.40632081031799316],"min":[-0.0031250000465661287,0.45635077357292175,-0.4125708043575287],"type":"VEC3"},{"bufferView":49,"componentType":5126,"count":160,"max":[1,1,1],"min":[-1,-1,-1],"type":"VEC3"},{"bufferView":50,"componentType":5126,"count":160,"max":[0.4546875059604645,0.621874988079071],"min":[0.014693750068545341,0],"type":"VEC2"},{"bufferView":51,"componentType":5123,"count":192,"max":[159],"min":[0],"type":"SCALAR"},{"bufferView":52,"componentType":5126,"count":160,"max":[0.0031250000465661287,0.8251007795333862,-0.40632081031799316],"min":[-0.0031250000465661287,0.45635077357292175,-0.4125708043575287],"type":"VEC3"},{"bufferView":53,"componentType":5126,"count":160,"max":[1,1,1],"min":[-1,-1,-1],"type":"VEC3"},{"bufferView":54,"componentType":5126,"count":160,"max":[0.4546875059604645,0.46875],"min":[0.20157188177108765,0],"type":"VEC2"},{"bufferView":55,"componentType":5123,"count":192,"max":[159],"min":[0],"type":"SCALAR"},{"bufferView":56,"componentType":5126,"count":160,"max":[0.0031250000465661287,0.8251007795333862,-0.40632081031799316],"min":[-0.0031250000465661287,0.45635077357292175,-0.4125708043575287],"type":"VEC3"},{"bufferView":57,"componentType":5126,"count":160,"max":[1,1,1],"min":[-1,-1,-1],"type":"VEC3"},{"bufferView":58,"componentType":5126,"count":160,"max":[0.4546875059604645,0.46875],"min":[0.07657187432050705,0],"type":"VEC2"},{"bufferView":59,"componentType":5123,"count":192,"max":[159],"min":[0],"type":"SCALAR"},{"bufferView":60,"componentType":5126,"count":160,"max":[0.078125,0.265625,0.078125],"min":[-0.078125,0.234375,-0.078125],"type":"VEC3"},{"bufferView":61,"componentType":5126,"count":160,"max":[1,1,1],"min":[-1,-1,-1],"type":"VEC3"},{"bufferView":62,"componentType":5126,"count":160,"max":[0.5858062505722046,0.53125],"min":[0.0078125,0.015625],"type":"VEC2"},{"bufferView":63,"componentType":5123,"count":192,"max":[159],"min":[0],"type":"SCALAR"}],"materials":[{"pbrMetallicRoughness":{"metallicFactor":0,"roughnessFactor":1,"baseColorTexture":{"index":0}},"alphaMode":"MASK","alphaCutoff":0.05,"doubleSided":true},{"pbrMetallicRoughness":{"metallicFactor":0,"roughnessFactor":1,"baseColorTexture":{"index":1}},"alphaMode":"MASK","alphaCutoff":0.05,"doubleSided":true},{"pbrMetallicRoughness":{"metallicFactor":0,"roughnessFactor":1,"baseColorTexture":{"index":2}},"alphaMode":"MASK","alphaCutoff":0.05,"doubleSided":true},{"pbrMetallicRoughness":{"metallicFactor":0,"roughnessFactor":1,"baseColorTexture":{"index":3}},"alphaMode":"MASK","alphaCutoff":0.05,"doubleSided":true},{"pbrMetallicRoughness":{"metallicFactor":0,"roughnessFactor":1,"baseColorTexture":{"index":4}},"alphaMode":"MASK","alphaCutoff":0.05,"doubleSided":true}],"textures":[{"sampler":0,"source":0,"name":"texture"},{"sampler":1,"source":1,"name":"texture"},{"sampler":2,"source":2,"name":"texture"},{"sampler":3,"source":3,"name":"texture"},{"sampler":4,"source":4,"name":"texture"}],"samplers":[{"magFilter":9728,"minFilter":9728,"wrapS":33071,"wrapT":33071},{"magFilter":9728,"minFilter":9728,"wrapS":33071,"wrapT":33071},{"magFilter":9728,"minFilter":9728,"wrapS":33071,"wrapT":33071},{"magFilter":9728,"minFilter":9728,"wrapS":33071,"wrapT":33071},{"magFilter":9728,"minFilter":9728,"wrapS":33071,"wrapT":33071}],"images":[{"mimeType":"image/png","uri":"data:image/png;base64,"},{"mimeType":"image/png","uri":"data:image/png;base64,"},{"mimeType":"image/png","uri":"data:image/png;base64,"},{"mimeType":"image/png","uri":"data:image/png;base64,"},{"mimeType":"image/png","uri":"data:image/png;base64,"}],"meshes":[{"primitives":[{"mode":4,"attributes":{"POSITION":0,"NORMAL":1,"TEXCOORD_0":2},"indices":3,"material":0}]},{"primitives":[{"mode":4,"attributes":{"POSITION":4,"NORMAL":5,"TEXCOORD_0":6},"indices":7,"material":0}]},{"primitives":[{"mode":4,"attributes":{"POSITION":8,"NORMAL":9,"TEXCOORD_0":10},"indices":11,"material":0}]},{"primitives":[{"mode":4,"attributes":{"POSITION":12,"NORMAL":13,"TEXCOORD_0":14},"indices":15,"material":1}]},{"primitives":[{"mode":4,"attributes":{"POSITION":16,"NORMAL":17,"TEXCOORD_0":18},"indices":19,"material":0}]},{"primitives":[{"mode":4,"attributes":{"POSITION":20,"NORMAL":21,"TEXCOORD_0":22},"indices":23,"material":2}]},{"primitives":[{"mode":4,"attributes":{"POSITION":24,"NORMAL":25,"TEXCOORD_0":26},"indices":27,"material":3}]},{"primitives":[{"mode":4,"attributes":{"POSITION":28,"NORMAL":29,"TEXCOORD_0":30},"indices":31,"material":3}]},{"primitives":[{"mode":4,"attributes":{"POSITION":32,"NORMAL":33,"TEXCOORD_0":34},"indices":35,"material":2}]},{"primitives":[{"mode":4,"attributes":{"POSITION":36,"NORMAL":37,"TEXCOORD_0":38},"indices":39,"material":2}]},{"primitives":[{"mode":4,"attributes":{"POSITION":40,"NORMAL":41,"TEXCOORD_0":42},"indices":43,"material":1}]},{"primitives":[{"mode":4,"attributes":{"POSITION":44,"NORMAL":45,"TEXCOORD_0":46},"indices":47,"material":4}]},{"primitives":[{"mode":4,"attributes":{"POSITION":48,"NORMAL":49,"TEXCOORD_0":50},"indices":51,"material":4}]},{"primitives":[{"mode":4,"attributes":{"POSITION":52,"NORMAL":53,"TEXCOORD_0":54},"indices":55,"material":4}]},{"primitives":[{"mode":4,"attributes":{"POSITION":56,"NORMAL":57,"TEXCOORD_0":58},"indices":59,"material":4}]},{"primitives":[{"mode":4,"attributes":{"POSITION":60,"NORMAL":61,"TEXCOORD_0":62},"indices":63,"material":0}]}]}