{"asset":{"version":"2.0","generator":"Blockbench 5.0.3 glTF exporter"},"scenes":[{"nodes":[10],"name":"blockbench_export"}],"scene":0,"nodes":[{"rotation":[-0.7071067811865475,0,0,0.7071067811865476],"name":"caixote","mesh":0},{"translation":[0,5.565624999999999,0.25],"name":"faixa_frontal","mesh":1},{"translation":[0,5.565624999999999,0.25],"name":"faixa_posterior","mesh":2},{"translation":[0,5.565624999999999,0.25],"name":"faixa_lateral","mesh":3},{"translation":[0,5.565624999999999,0.25],"name":"faixa_lateral","mesh":4},{"rotation":[0,0,0.5372996083468239,0.8433914458128857],"translation":[0,5.565624999999999,0.25],"name":"faixa_diagonal","mesh":5},{"rotation":[0,0,0.8410390129643924,0.5409744713679939],"translation":[0,5.565624999999999,0.25],"name":"faixa_diagonal","mesh":6},{"rotation":[0,0,-0.8386705679454239,0.5446390350150272],"translation":[0,5.565624999999999,0.25],"name":"faixa_diagonal","mesh":7},{"rotation":[-0.8362861558477596,0.5482932295199138,3.357327742628638e-17,5.120775819651016e-17],"translation":[0,5.565624999999999,0.25],"name":"faixa_diagonal","mesh":8},{"translation":[0,-5.565624999999999,-1.3125],"name":"faixas2","children":[1,2,3,4,5,6,7,8]},{"name":"base","children":[0,9]}],"bufferViews":[{"buffer":0,"byteOffset":0,"byteLength":804,"target":34962,"byteStride":12},{"buffer":0,"byteOffset":804,"byteLength":804,"target":34962,"byteStride":12},{"buffer":0,"byteOffset":1608,"byteLength":536,"target":34962,"byteStride":8},{"buffer":0,"byteOffset":2144,"byteLength":156,"target":34963},{"buffer":0,"byteOffset":2300,"byteLength":8,"target":34963},{"buffer":0,"byteOffset":2308,"byteLength":24,"target":34963},{"buffer":0,"byteOffset":2332,"byteLength":288,"target":34962,"byteStride":12},{"buffer":0,"byteOffset":2620,"byteLength":288,"target":34962,"byteStride":12},{"buffer":0,"byteOffset":2908,"byteLength":192,"target":34962,"byteStride":8},{"buffer":0,"byteOffset":3100,"byteLength":12,"target":34963},{"buffer":0,"byteOffset":3112,"byteLength":60,"target":34963},{"buffer":0,"byteOffset":3172,"byteLength":288,"target":34962,"byteStride":12},{"buffer":0,"byteOffset":3460,"byteLength":288,"target":34962,"byteStride":12},{"buffer":0,"byteOffset":3748,"byteLength":192,"target":34962,"byteStride":8},{"buffer":0,"byteOffset":3940,"byteLength":12,"target":34963},{"buffer":0,"byteOffset":3952,"byteLength":12,"target":34963},{"buffer":0,"byteOffset":3964,"byteLength":48,"target":34963},{"buffer":0,"byteOffset":4012,"byteLength":288,"target":34962,"byteStride":12},{"buffer":0,"byteOffset":4300,"byteLength":288,"target":34962,"byteStride":12},{"buffer":0,"byteOffset":4588,"byteLength":192,"target":34962,"byteStride":8},{"buffer":0,"byteOffset":4780,"byteLength":24,"target":34963},{"buffer":0,"byteOffset":4804,"byteLength":24,"target":34963},{"buffer":0,"byteOffset":4828,"byteLength":24,"target":34963},{"buffer":0,"byteOffset":4852,"byteLength":288,"target":34962,"byteStride":12},{"buffer":0,"byteOffset":5140,"byteLength":288,"target":34962,"byteStride":12},{"buffer":0,"byteOffset":5428,"byteLength":192,"target":34962,"byteStride":8},{"buffer":0,"byteOffset":5620,"byteLength":24,"target":34963},{"buffer":0,"byteOffset":5644,"byteLength":12,"target":34963},{"buffer":0,"byteOffset":5656,"byteLength":36,"target":34963},{"buffer":0,"byteOffset":5692,"byteLength":288,"target":34962,"byteStride":12},{"buffer":0,"byteOffset":5980,"byteLength":288,"target":34962,"byteStride":12},{"buffer":0,"byteOffset":6268,"byteLength":192,"target":34962,"byteStride":8},{"buffer":0,"byteOffset":6460,"byteLength":24,"target":34963},{"buffer":0,"byteOffset":6484,"byteLength":12,"target":34963},{"buffer":0,"byteOffset":6496,"byteLength":36,"target":34963},{"buffer":0,"byteOffset":6532,"byteLength":288,"target":34962,"byteStride":12},{"buffer":0,"byteOffset":6820,"byteLength":288,"target":34962,"byteStride":12},{"buffer":0,"byteOffset":7108,"byteLength":192,"target":34962,"byteStride":8},{"buffer":0,"byteOffset":7300,"byteLength":24,"target":34963},{"buffer":0,"byteOffset":7324,"byteLength":12,"target":34963},{"buffer":0,"byteOffset":7336,"byteLength":36,"target":34963},{"buffer":0,"byteOffset":7372,"byteLength":288,"target":34962,"byteStride":12},{"buffer":0,"byteOffset":7660,"byteLength":288,"target":34962,"byteStride":12},{"buffer":0,"byteOffset":7948,"byteLength":192,"target":34962,"byteStride":8},{"buffer":0,"byteOffset":8140,"byteLength":24,"target":34963},{"buffer":0,"byteOffset":8164,"byteLength":12,"target":34963},{"buffer":0,"byteOffset":8176,"byteLength":36,"target":34963},{"buffer":0,"byteOffset":8212,"byteLength":288,"target":34962,"byteStride":12},{"buffer":0,"byteOffset":8500,"byteLength":288,"target":34962,"byteStride":12},{"buffer":0,"byteOffset":8788,"byteLength":192,"target":34962,"byteStride":8},{"buffer":0,"byteOffset":8980,"byteLength":24,"target":34963},{"buffer":0,"byteOffset":9004,"byteLength":12,"target":34963},{"buffer":0,"byteOffset":9016,"byteLength":36,"target":34963}],"buffers":[{"byteLength":9052,"uri":"data:application/octet-stream;base64,"}],"accessors":[{"bufferView":0,"componentType":5126,"count":67,"max":[14.5,10.5625,1.0656249523162842],"min":[-14.5,1.3304795026779175,-12.315625190734863],"type":"VEC3"},{"bufferView":1,"componentType":5126,"count":67,"max":[1,1,1],"min":[-1,0,-1],"type":"VEC3"},{"bufferView":2,"componentType":5126,"count":67,"max":[0.046875,0.0468750074505806],"min":[0,0],"type":"VEC2"},{"bufferView":3,"componentType":5123,"count":78,"max":[55],"min":[0],"type":"SCALAR"},{"bufferView":4,"componentType":5123,"count":3,"max":[58],"min":[56],"type":"SCALAR"},{"bufferView":5,"componentType":5123,"count":12,"max":[66],"min":[59],"type":"SCALAR"},{"bufferView":6,"componentType":5126,"count":24,"max":[10.953125,1.431249976158142,1.1124999523162842],"min":[-10.953125,1.03125,-1.6124999523162842],"type":"VEC3"},{"bufferView":7,"componentType":5126,"count":24,"max":[0.9991052746772766,1,1],"min":[-0.9991052746772766,-1,-1],"type":"VEC3"},{"bufferView":8,"componentType":5126,"count":24,"max":[1,0.5],"min":[0,0],"type":"VEC2"},{"bufferView":9,"componentType":5123,"count":6,"max":[3],"min":[0],"type":"SCALAR"},{"bufferView":10,"componentType":5123,"count":30,"max":[23],"min":[4],"type":"SCALAR"},{"bufferView":11,"componentType":5126,"count":24,"max":[10.890625,-12.318750381469727,1.1124999523162842],"min":[-10.890625,-12.693750381469727,-1.6124999523162842],"type":"VEC3"},{"bufferView":12,"componentType":5126,"count":24,"max":[1,1,1],"min":[-1,-1,-1],"type":"VEC3"},{"bufferView":13,"componentType":5126,"count":24,"max":[1,0.5],"min":[0,0],"type":"VEC2"},{"bufferView":14,"componentType":5123,"count":6,"max":[3],"min":[0],"type":"SCALAR"},{"bufferView":15,"componentType":5123,"count":6,"max":[7],"min":[4],"type":"SCALAR"},{"bufferView":16,"componentType":5123,"count":24,"max":[23],"min":[8],"type":"SCALAR"},{"bufferView":17,"componentType":5126,"count":24,"max":[14.9375,-0.546875,1.1124999523162842],"min":[14.5625,-10.703125,-1.6124999523162842],"type":"VEC3"},{"bufferView":18,"componentType":5126,"count":24,"max":[1,1,1],"min":[-1,-1,-1],"type":"VEC3"},{"bufferView":19,"componentType":5126,"count":24,"max":[1,1],"min":[0,0],"type":"VEC2"},{"bufferView":20,"componentType":5123,"count":12,"max":[7],"min":[0],"type":"SCALAR"},{"bufferView":21,"componentType":5123,"count":12,"max":[15],"min":[8],"type":"SCALAR"},{"bufferView":22,"componentType":5123,"count":12,"max":[23],"min":[16],"type":"SCALAR"},{"bufferView":23,"componentType":5126,"count":24,"max":[-14.5625,-0.546875,1.1124999523162842],"min":[-14.9375,-10.703125,-1.6124999523162842],"type":"VEC3"},{"bufferView":24,"componentType":5126,"count":24,"max":[1,1,1],"min":[-1,-1,-1],"type":"VEC3"},{"bufferView":25,"componentType":5126,"count":24,"max":[0.73828125,0.609375],"min":[0,0],"type":"VEC2"},{"bufferView":26,"componentType":5123,"count":12,"max":[7],"min":[0],"type":"SCALAR"},{"bufferView":27,"componentType":5123,"count":6,"max":[11],"min":[8],"type":"SCALAR"},{"bufferView":28,"componentType":5123,"count":18,"max":[23],"min":[12],"type":"SCALAR"},{"bufferView":29,"componentType":5126,"count":24,"max":[5.949999809265137,-9.284375190734863,1.1124999523162842],"min":[5.53125,-13.765625,-1.6124999523162842],"type":"VEC3"},{"bufferView":30,"componentType":5126,"count":24,"max":[0.9996737837791443,0.9520467519760132,1],"min":[-0.9999633431434631,-0.5655913949012756,-1],"type":"VEC3"},{"bufferView":31,"componentType":5126,"count":24,"max":[0.73828125,0.609375],"min":[0,0],"type":"VEC2"},{"bufferView":32,"componentType":5123,"count":12,"max":[7],"min":[0],"type":"SCALAR"},{"bufferView":33,"componentType":5123,"count":6,"max":[11],"min":[8],"type":"SCALAR"},{"bufferView":34,"componentType":5123,"count":18,"max":[23],"min":[12],"type":"SCALAR"},{"bufferView":35,"componentType":5126,"count":24,"max":[5.849999904632568,13.809374809265137,1.1124999523162842],"min":[5.465624809265137,9.355310440063477,-1.6124999523162842],"type":"VEC3"},{"bufferView":36,"componentType":5126,"count":24,"max":[0.9993806481361389,0.49662813544273376,1],"min":[-1,-0.9777551889419556,-1],"type":"VEC3"},{"bufferView":37,"componentType":5126,"count":24,"max":[0.73828125,0.609375],"min":[0,0],"type":"VEC2"},{"bufferView":38,"componentType":5123,"count":12,"max":[7],"min":[0],"type":"SCALAR"},{"bufferView":39,"componentType":5123,"count":6,"max":[11],"min":[8],"type":"SCALAR"},{"bufferView":40,"componentType":5123,"count":18,"max":[23],"min":[12],"type":"SCALAR"},{"bufferView":41,"componentType":5126,"count":24,"max":[16.037500381469727,-4.743750095367432,1.149999976158142],"min":[15.596875190734863,-9.304176330566406,-1.618749976158142],"type":"VEC3"},{"bufferView":42,"componentType":5126,"count":24,"max":[0.9992820620536804,0.9279670715332031,0.9916267395019531],"min":[-0.9998162388801575,-0.44948798418045044,-1],"type":"VEC3"},{"bufferView":43,"componentType":5126,"count":24,"max":[0.73828125,0.609375],"min":[0,0],"type":"VEC2"},{"bufferView":44,"componentType":5123,"count":12,"max":[7],"min":[0],"type":"SCALAR"},{"bufferView":45,"componentType":5123,"count":6,"max":[11],"min":[8],"type":"SCALAR"},{"bufferView":46,"componentType":5123,"count":18,"max":[23],"min":[12],"type":"SCALAR"},{"bufferView":47,"componentType":5126,"count":24,"max":[15.988272666931152,-4.921875,1.6124999523162842],"min":[15.550000190734863,-9.4375,-1.1281249523162842],"type":"VEC3"},{"bufferView":48,"componentType":5126,"count":24,"max":[0.9990967512130737,0.9654117822647095,0.9998710751533508],"min":[-0.9999008774757385,-0.4943520426750183,-0.9999934434890747],"type":"VEC3"},{"bufferView":49,"componentType":5126,"count":24,"max":[0.73828125,0.609375],"min":[0,0],"type":"VEC2"},{"bufferView":50,"componentType":5123,"count":12,"max":[7],"min":[0],"type":"SCALAR"},{"bufferView":51,"componentType":5123,"count":6,"max":[11],"min":[8],"type":"SCALAR"},{"bufferView":52,"componentType":5123,"count":18,"max":[23],"min":[12],"type":"SCALAR"}],"materials":[{"pbrMetallicRoughness":{"metallicFactor":0,"roughnessFactor":1,"baseColorTexture":{"index":0}},"alphaMode":"MASK","alphaCutoff":0.05,"doubleSided":true},{"pbrMetallicRoughness":{"metallicFactor":0,"roughnessFactor":1},"alphaMode":"MASK","alphaCutoff":0.05,"doubleSided":true},{"pbrMetallicRoughness":{"metallicFactor":0,"roughnessFactor":1},"alphaMode":"MASK","alphaCutoff":0.05,"doubleSided":true},{"pbrMetallicRoughness":{"metallicFactor":0,"roughnessFactor":1,"baseColorTexture":{"index":1}},"alphaMode":"MASK","alphaCutoff":0.05,"doubleSided":true},{"pbrMetallicRoughness":{"metallicFactor":0,"roughnessFactor":1},"alphaMode":"MASK","alphaCutoff":0.05,"doubleSided":true}],"textures":[{"sampler":0,"source":0,"name":"211832.png"},{"sampler":1,"source":1,"name":"5c3e94.png"}],"samplers":[{"magFilter":9728,"minFilter":9728,"wrapS":33071,"wrapT":33071},{"magFilter":9728,"minFilter":9728,"wrapS":33071,"wrapT":33071}],"images":[{"mimeType":"image/png","uri":"data:image/png;base64,"},{"mimeType":"image/png","uri":"data:image/png;base64,"}],"meshes":[{"primitives":[{"mode":4,"attributes":{"POSITION":0,"NORMAL":1,"TEXCOORD_0":2},"indices":3,"material":0},{"mode":4,"attributes":{"POSITION":0,"NORMAL":1,"TEXCOORD_0":2},"indices":4,"material":1},{"mode":4,"attributes":{"POSITION":0,"NORMAL":1,"TEXCOORD_0":2},"indices":5,"material":0}]},{"primitives":[{"mode":4,"attributes":{"POSITION":6,"NORMAL":7,"TEXCOORD_0":8},"indices":9,"material":2},{"mode":4,"attributes":{"POSITION":6,"NORMAL":7,"TEXCOORD_0":8},"indices":10,"material":3}]},{"primitives":[{"mode":4,"attributes":{"POSITION":11,"NORMAL":12,"TEXCOORD_0":13},"indices":14,"material":3},{"mode":4,"attributes":{"POSITION":11,"NORMAL":12,"TEXCOORD_0":13},"indices":15,"material":2},{"mode":4,"attributes":{"POSITION":11,"NORMAL":12,"TEXCOORD_0":13},"indices":16,"material":3}]},{"primitives":[{"mode":4,"attributes":{"POSITION":17,"NORMAL":18,"TEXCOORD_0":19},"indices":20,"material":3},{"mode":4,"attributes":{"POSITION":17,"NORMAL":18,"TEXCOORD_0":19},"indices":21,"material":4},{"mode":4,"attributes":{"POSITION":17,"NORMAL":18,"TEXCOORD_0":19},"indices":22,"material":3}]},{"primitives":[{"mode":4,"attributes":{"POSITION":23,"NORMAL":24,"TEXCOORD_0":25},"indices":26,"material":3},{"mode":4,"attributes":{"POSITION":23,"NORMAL":24,"TEXCOORD_0":25},"indices":27,"material":4},{"mode":4,"attributes":{"POSITION":23,"NORMAL":24,"TEXCOORD_0":25},"indices":28,"material":3}]},{"primitives":[{"mode":4,"attributes":{"POSITION":29,"NORMAL":30,"TEXCOORD_0":31},"indices":32,"material":3},{"mode":4,"attributes":{"POSITION":29,"NORMAL":30,"TEXCOORD_0":31},"indices":33,"material":4},{"mode":4,"attributes":{"POSITION":29,"NORMAL":30,"TEXCOORD_0":31},"indices":34,"material":3}]},{"primitives":[{"mode":4,"attributes":{"POSITION":35,"NORMAL":36,"TEXCOORD_0":37},"indices":38,"material":3},{"mode":4,"attributes":{"POSITION":35,"NORMAL":36,"TEXCOORD_0":37},"indices":39,"material":4},{"mode":4,"attributes":{"POSITION":35,"NORMAL":36,"TEXCOORD_0":37},"indices":40,"material":3}]},{"primitives":[{"mode":4,"attributes":{"POSITION":41,"NORMAL":42,"TEXCOORD_0":43},"indices":44,"material":3},{"mode":4,"attributes":{"POSITION":41,"NORMAL":42,"TEXCOORD_0":43},"indices":45,"material":4},{"mode":4,"attributes":{"POSITION":41,"NORMAL":42,"TEXCOORD_0":43},"indices":46,"material":3}]},{"primitives":[{"mode":4,"attributes":{"POSITION":47,"NORMAL":48,"TEXCOORD_0":49},"indices":50,"material":3},{"mode":4,"attributes":{"POSITION":47,"NORMAL":48,"TEXCOORD_0":49},"indices":51,"material":4},{"mode":4,"attributes":{"POSITION":47,"NORMAL":48,"TEXCOORD_0":49},"indices":52,"material":3}]}]}