{"asset":{"version":"2.0","generator":"Blockbench 5.0.3 glTF exporter"},"scenes":[{"nodes":[13],"name":"blockbench_export"}],"scene":0,"nodes":[{"rotation":[0.7071067811865475,0,0,0.7071067811865476],"translation":[0,-1.3956641957163924,0.5231985067809006],"name":"tampa","mesh":0},{"translation":[-0.004909374999996885,-0.3452324999999803,-0.10625625000000127],"name":"buraco","mesh":1},{"translation":[-0.004909374999996885,-0.2202324999999803,0.20624375000001294],"name":"suporte","mesh":2},{"translation":[0.004909374999996885,0.32456830428358785,0.3169547567808877],"name":"fechadura","children":[1,2]},{"translation":[0,5.565624999999997,0.2500000000000142],"name":"faixa_frontal","mesh":3},{"translation":[0,5.565624999999997,0.2500000000000142],"name":"faixa_posterior","mesh":4},{"translation":[0,5.565624999999997,0.2500000000000142],"name":"faixa_lateral","mesh":5},{"translation":[0,5.565624999999997,0.2500000000000142],"name":"faixa_lateral","mesh":6},{"rotation":[0,0,0.5372996083468239,0.8433914458128857],"translation":[0,5.565624999999997,0.2500000000000142],"name":"faixa_diagonal","mesh":7},{"rotation":[0,0,0.8410390129643924,0.5409744713679939],"translation":[0,5.565624999999997,0.2500000000000142],"name":"faixa_diagonal","mesh":8},{"rotation":[0,0,-0.8386705679454239,0.5446390350150272],"translation":[0,5.565624999999997,0.2500000000000142],"name":"faixa_diagonal","mesh":9},{"rotation":[-0.8362861558477596,0.5482932295199138,3.3573277426286376e-17,5.120775819651017e-17],"translation":[0,5.565624999999997,0.2500000000000142],"name":"faixa_diagonal","mesh":10},{"translation":[0,-6.96128919571639,0.2731985067808864],"name":"faixas","children":[4,5,6,7,8,9,10,11]},{"rotation":[-0.7071067811865475,0,0,0.7071067811865476],"translation":[-0.1875,5.6875,-16.5],"name":"topo","children":[0,3,12]}],"bufferViews":[{"buffer":0,"byteOffset":0,"byteLength":816,"target":34962,"byteStride":12},{"buffer":0,"byteOffset":816,"byteLength":816,"target":34962,"byteStride":12},{"buffer":0,"byteOffset":1632,"byteLength":544,"target":34962,"byteStride":8},{"buffer":0,"byteOffset":2176,"byteLength":192,"target":34963},{"buffer":0,"byteOffset":2368,"byteLength":2412,"target":34962,"byteStride":12},{"buffer":0,"byteOffset":4780,"byteLength":2412,"target":34962,"byteStride":12},{"buffer":0,"byteOffset":7192,"byteLength":1608,"target":34962,"byteStride":8},{"buffer":0,"byteOffset":8800,"byteLength":24,"target":34963},{"buffer":0,"byteOffset":8824,"byteLength":12,"target":34963},{"buffer":0,"byteOffset":8836,"byteLength":24,"target":34963},{"buffer":0,"byteOffset":8860,"byteLength":320,"target":34963},{"buffer":0,"byteOffset":9180,"byteLength":108,"target":34963},{"buffer":0,"byteOffset":9288,"byteLength":288,"target":34962,"byteStride":12},{"buffer":0,"byteOffset":9576,"byteLength":288,"target":34962,"byteStride":12},{"buffer":0,"byteOffset":9864,"byteLength":192,"target":34962,"byteStride":8},{"buffer":0,"byteOffset":10056,"byteLength":72,"target":34963},{"buffer":0,"byteOffset":10128,"byteLength":288,"target":34962,"byteStride":12},{"buffer":0,"byteOffset":10416,"byteLength":288,"target":34962,"byteStride":12},{"buffer":0,"byteOffset":10704,"byteLength":192,"target":34962,"byteStride":8},{"buffer":0,"byteOffset":10896,"byteLength":72,"target":34963},{"buffer":0,"byteOffset":10968,"byteLength":288,"target":34962,"byteStride":12},{"buffer":0,"byteOffset":11256,"byteLength":288,"target":34962,"byteStride":12},{"buffer":0,"byteOffset":11544,"byteLength":192,"target":34962,"byteStride":8},{"buffer":0,"byteOffset":11736,"byteLength":12,"target":34963},{"buffer":0,"byteOffset":11748,"byteLength":12,"target":34963},{"buffer":0,"byteOffset":11760,"byteLength":12,"target":34963},{"buffer":0,"byteOffset":11772,"byteLength":24,"target":34963},{"buffer":0,"byteOffset":11796,"byteLength":12,"target":34963},{"buffer":0,"byteOffset":11808,"byteLength":288,"target":34962,"byteStride":12},{"buffer":0,"byteOffset":12096,"byteLength":288,"target":34962,"byteStride":12},{"buffer":0,"byteOffset":12384,"byteLength":192,"target":34962,"byteStride":8},{"buffer":0,"byteOffset":12576,"byteLength":24,"target":34963},{"buffer":0,"byteOffset":12600,"byteLength":24,"target":34963},{"buffer":0,"byteOffset":12624,"byteLength":24,"target":34963},{"buffer":0,"byteOffset":12648,"byteLength":288,"target":34962,"byteStride":12},{"buffer":0,"byteOffset":12936,"byteLength":288,"target":34962,"byteStride":12},{"buffer":0,"byteOffset":13224,"byteLength":192,"target":34962,"byteStride":8},{"buffer":0,"byteOffset":13416,"byteLength":24,"target":34963},{"buffer":0,"byteOffset":13440,"byteLength":24,"target":34963},{"buffer":0,"byteOffset":13464,"byteLength":24,"target":34963},{"buffer":0,"byteOffset":13488,"byteLength":288,"target":34962,"byteStride":12},{"buffer":0,"byteOffset":13776,"byteLength":288,"target":34962,"byteStride":12},{"buffer":0,"byteOffset":14064,"byteLength":192,"target":34962,"byteStride":8},{"buffer":0,"byteOffset":14256,"byteLength":36,"target":34963},{"buffer":0,"byteOffset":14292,"byteLength":12,"target":34963},{"buffer":0,"byteOffset":14304,"byteLength":24,"target":34963},{"buffer":0,"byteOffset":14328,"byteLength":288,"target":34962,"byteStride":12},{"buffer":0,"byteOffset":14616,"byteLength":288,"target":34962,"byteStride":12},{"buffer":0,"byteOffset":14904,"byteLength":192,"target":34962,"byteStride":8},{"buffer":0,"byteOffset":15096,"byteLength":24,"target":34963},{"buffer":0,"byteOffset":15120,"byteLength":24,"target":34963},{"buffer":0,"byteOffset":15144,"byteLength":24,"target":34963},{"buffer":0,"byteOffset":15168,"byteLength":288,"target":34962,"byteStride":12},{"buffer":0,"byteOffset":15456,"byteLength":288,"target":34962,"byteStride":12},{"buffer":0,"byteOffset":15744,"byteLength":192,"target":34962,"byteStride":8},{"buffer":0,"byteOffset":15936,"byteLength":24,"target":34963},{"buffer":0,"byteOffset":15960,"byteLength":12,"target":34963},{"buffer":0,"byteOffset":15972,"byteLength":36,"target":34963},{"buffer":0,"byteOffset":16008,"byteLength":288,"target":34962,"byteStride":12},{"buffer":0,"byteOffset":16296,"byteLength":288,"target":34962,"byteStride":12},{"buffer":0,"byteOffset":16584,"byteLength":192,"target":34962,"byteStride":8},{"buffer":0,"byteOffset":16776,"byteLength":24,"target":34963},{"buffer":0,"byteOffset":16800,"byteLength":24,"target":34963},{"buffer":0,"byteOffset":16824,"byteLength":24,"target":34963}],"buffers":[{"byteLength":16848,"uri":"data:application/octet-stream;base64,"}],"accessors":[{"bufferView":0,"componentType":5126,"count":68,"max":[14.5,5.4375,12.253125190734863],"min":[-14.5,-1.40625,-1.1281249523162842],"type":"VEC3"},{"bufferView":1,"componentType":5126,"count":68,"max":[1,1,1],"min":[-1,0,-1],"type":"VEC3"},{"bufferView":2,"componentType":5126,"count":68,"max":[0.046875,0.0468750074505806],"min":[0,0],"type":"VEC2"},{"bufferView":3,"componentType":5123,"count":96,"max":[67],"min":[0],"type":"SCALAR"},{"bufferView":4,"componentType":5126,"count":201,"max":[0.5625,0.5687500238418579,0.75],"min":[-0.5625,0.3125,-0.75],"type":"VEC3"},{"bufferView":5,"componentType":5126,"count":201,"max":[1,1,1],"min":[-1,-1,-1],"type":"VEC3"},{"bufferView":6,"componentType":5126,"count":201,"max":[0.7734375,0.53515625],"min":[0,0],"type":"VEC2"},{"bufferView":7,"componentType":5123,"count":12,"max":[7],"min":[0],"type":"SCALAR"},{"bufferView":8,"componentType":5123,"count":6,"max":[11],"min":[8],"type":"SCALAR"},{"bufferView":9,"componentType":5123,"count":12,"max":[19],"min":[12],"type":"SCALAR"},{"bufferView":10,"componentType":5123,"count":159,"max":[152],"min":[20],"type":"SCALAR"},{"bufferView":11,"componentType":5123,"count":54,"max":[200],"min":[153],"type":"SCALAR"},{"bufferView":12,"componentType":5126,"count":24,"max":[1.25,0.28125,1],"min":[-1.25,0.09375,-1.5],"type":"VEC3"},{"bufferView":13,"componentType":5126,"count":24,"max":[1,1,1],"min":[-1,-1,-1],"type":"VEC3"},{"bufferView":14,"componentType":5126,"count":24,"max":[0.0625,0.0625000149011612],"min":[0,0],"type":"VEC2"},{"bufferView":15,"componentType":5123,"count":36,"max":[23],"min":[0],"type":"SCALAR"},{"bufferView":16,"componentType":5126,"count":24,"max":[10.953125,1.618749976158142,1.1124999523162842],"min":[-10.953125,1.118749976158142,-1.6124999523162842],"type":"VEC3"},{"bufferView":17,"componentType":5126,"count":24,"max":[0.9994964003562927,1,1],"min":[-0.9994964003562927,-1,-1],"type":"VEC3"},{"bufferView":18,"componentType":5126,"count":24,"max":[0.0625,0.0625],"min":[0,0],"type":"VEC2"},{"bufferView":19,"componentType":5123,"count":36,"max":[23],"min":[0],"type":"SCALAR"},{"bufferView":20,"componentType":5126,"count":24,"max":[10.890625,-12.256250381469727,1.1124999523162842],"min":[-10.890625,-12.756250381469727,-1.6124999523162842],"type":"VEC3"},{"bufferView":21,"componentType":5126,"count":24,"max":[1,1,1],"min":[-1,-1,-1],"type":"VEC3"},{"bufferView":22,"componentType":5126,"count":24,"max":[0.7734375,0.5],"min":[0,0],"type":"VEC2"},{"bufferView":23,"componentType":5123,"count":6,"max":[3],"min":[0],"type":"SCALAR"},{"bufferView":24,"componentType":5123,"count":6,"max":[7],"min":[4],"type":"SCALAR"},{"bufferView":25,"componentType":5123,"count":6,"max":[11],"min":[8],"type":"SCALAR"},{"bufferView":26,"componentType":5123,"count":12,"max":[19],"min":[12],"type":"SCALAR"},{"bufferView":27,"componentType":5123,"count":6,"max":[23],"min":[20],"type":"SCALAR"},{"bufferView":28,"componentType":5126,"count":24,"max":[15,-0.390625,1.1124999523162842],"min":[14.5,-10.734375,-1.6124999523162842],"type":"VEC3"},{"bufferView":29,"componentType":5126,"count":24,"max":[1,1,1],"min":[-1,-1,-1],"type":"VEC3"},{"bufferView":30,"componentType":5126,"count":24,"max":[1,1],"min":[0,0],"type":"VEC2"},{"bufferView":31,"componentType":5123,"count":12,"max":[7],"min":[0],"type":"SCALAR"},{"bufferView":32,"componentType":5123,"count":12,"max":[15],"min":[8],"type":"SCALAR"},{"bufferView":33,"componentType":5123,"count":12,"max":[23],"min":[16],"type":"SCALAR"},{"bufferView":34,"componentType":5126,"count":24,"max":[-14.5,-0.390625,1.1124999523162842],"min":[-15,-10.734375,-1.6124999523162842],"type":"VEC3"},{"bufferView":35,"componentType":5126,"count":24,"max":[1,1,1],"min":[-1,-1,-1],"type":"VEC3"},{"bufferView":36,"componentType":5126,"count":24,"max":[1,1],"min":[0,0],"type":"VEC2"},{"bufferView":37,"componentType":5123,"count":12,"max":[7],"min":[0],"type":"SCALAR"},{"bufferView":38,"componentType":5123,"count":12,"max":[15],"min":[8],"type":"SCALAR"},{"bufferView":39,"componentType":5123,"count":12,"max":[23],"min":[16],"type":"SCALAR"},{"bufferView":40,"componentType":5126,"count":24,"max":[6.106249809265137,-9.203125,1.1124999523162842],"min":[5.59375,-13.765625,-1.6124999523162842],"type":"VEC3"},{"bufferView":41,"componentType":5126,"count":24,"max":[0.9996544122695923,0.9508117437362671,1],"min":[-0.9999381899833679,-0.6752112507820129,-1],"type":"VEC3"},{"bufferView":42,"componentType":5126,"count":24,"max":[0.7734375,0.53515625],"min":[0,0],"type":"VEC2"},{"bufferView":43,"componentType":5123,"count":18,"max":[11],"min":[0],"type":"SCALAR"},{"bufferView":44,"componentType":5123,"count":6,"max":[15],"min":[12],"type":"SCALAR"},{"bufferView":45,"componentType":5123,"count":12,"max":[23],"min":[16],"type":"SCALAR"},{"bufferView":46,"componentType":5126,"count":24,"max":[6.015625,13.809374809265137,1.1124999523162842],"min":[5.528124809265137,9.271875381469727,-1.6124999523162842],"type":"VEC3"},{"bufferView":47,"componentType":5126,"count":24,"max":[0.9994540214538574,0.6400578618049622,1],"min":[-1,-0.9257211089134216,-1],"type":"VEC3"},{"bufferView":48,"componentType":5126,"count":24,"max":[1,1],"min":[0,0],"type":"VEC2"},{"bufferView":49,"componentType":5123,"count":12,"max":[7],"min":[0],"type":"SCALAR"},{"bufferView":50,"componentType":5123,"count":12,"max":[15],"min":[8],"type":"SCALAR"},{"bufferView":51,"componentType":5123,"count":12,"max":[23],"min":[16],"type":"SCALAR"},{"bufferView":52,"componentType":5126,"count":24,"max":[16.09375,-4.747688293457031,1.149999976158142],"min":[15.550000190734863,-9.354657173156738,-1.618749976158142],"type":"VEC3"},{"bufferView":53,"componentType":5126,"count":24,"max":[0.9994034767150879,0.9273114204406738,0.994490385055542],"min":[-0.9996981620788574,-0.5562114715576172,-1],"type":"VEC3"},{"bufferView":54,"componentType":5126,"count":24,"max":[0.7734375,0.53515625],"min":[0,0],"type":"VEC2"},{"bufferView":55,"componentType":5123,"count":12,"max":[7],"min":[0],"type":"SCALAR"},{"bufferView":56,"componentType":5123,"count":6,"max":[11],"min":[8],"type":"SCALAR"},{"bufferView":57,"componentType":5123,"count":18,"max":[23],"min":[12],"type":"SCALAR"},{"bufferView":58,"componentType":5126,"count":24,"max":[16.043750762939453,-4.896874904632568,1.6124999523162842],"min":[15.487500190734863,-9.478124618530273,-1.1124999523162842],"type":"VEC3"},{"bufferView":59,"componentType":5126,"count":24,"max":[0.9988889098167419,0.9674686789512634,0.9999179840087891],"min":[-0.999807596206665,-0.5760473012924194,-1],"type":"VEC3"},{"bufferView":60,"componentType":5126,"count":24,"max":[1,1],"min":[0,0],"type":"VEC2"},{"bufferView":61,"componentType":5123,"count":12,"max":[7],"min":[0],"type":"SCALAR"},{"bufferView":62,"componentType":5123,"count":12,"max":[15],"min":[8],"type":"SCALAR"},{"bufferView":63,"componentType":5123,"count":12,"max":[23],"min":[16],"type":"SCALAR"}],"materials":[{"pbrMetallicRoughness":{"metallicFactor":0,"roughnessFactor":1,"baseColorTexture":{"index":0}},"alphaMode":"MASK","alphaCutoff":0.05,"doubleSided":true},{"pbrMetallicRoughness":{"metallicFactor":0,"roughnessFactor":1,"baseColorTexture":{"index":1}},"alphaMode":"MASK","alphaCutoff":0.05,"doubleSided":true},{"pbrMetallicRoughness":{"metallicFactor":0,"roughnessFactor":1},"alphaMode":"MASK","alphaCutoff":0.05,"doubleSided":true},{"pbrMetallicRoughness":{"metallicFactor":0,"roughnessFactor":1,"baseColorTexture":{"index":2}},"alphaMode":"MASK","alphaCutoff":0.05,"doubleSided":true},{"pbrMetallicRoughness":{"metallicFactor":0,"roughnessFactor":1},"alphaMode":"MASK","alphaCutoff":0.05,"doubleSided":true},{"pbrMetallicRoughness":{"metallicFactor":0,"roughnessFactor":1},"alphaMode":"MASK","alphaCutoff":0.05,"doubleSided":true}],"textures":[{"sampler":0,"source":0,"name":"211832.png"},{"sampler":1,"source":1,"name":"412b6b.png"},{"sampler":2,"source":2,"name":"f5cb5c.png"}],"samplers":[{"magFilter":9728,"minFilter":9728,"wrapS":33071,"wrapT":33071},{"magFilter":9728,"minFilter":9728,"wrapS":33071,"wrapT":33071},{"magFilter":9728,"minFilter":9728,"wrapS":33071,"wrapT":33071}],"images":[{"mimeType":"image/png","uri":"data:image/png;base64,"},{"mimeType":"image/png","uri":"data:image/png;base64,"},{"mimeType":"image/png","uri":"data:image/png;base64,"}],"meshes":[{"primitives":[{"mode":4,"attributes":{"POSITION":0,"NORMAL":1,"TEXCOORD_0":2},"indices":3,"material":0}]},{"primitives":[{"mode":4,"attributes":{"POSITION":4,"NORMAL":5,"TEXCOORD_0":6},"indices":7,"material":1},{"mode":4,"attributes":{"POSITION":4,"NORMAL":5,"TEXCOORD_0":6},"indices":8,"material":2},{"mode":4,"attributes":{"POSITION":4,"NORMAL":5,"TEXCOORD_0":6},"indices":9,"material":1},{"mode":4,"attributes":{"POSITION":4,"NORMAL":5,"TEXCOORD_0":6},"indices":10,"material":0},{"mode":4,"attributes":{"POSITION":4,"NORMAL":5,"TEXCOORD_0":6},"indices":11,"material":1}]},{"primitives":[{"mode":4,"attributes":{"POSITION":12,"NORMAL":13,"TEXCOORD_0":14},"indices":15,"material":3}]},{"primitives":[{"mode":4,"attributes":{"POSITION":16,"NORMAL":17,"TEXCOORD_0":18},"indices":19,"material":1}]},{"primitives":[{"mode":4,"attributes":{"POSITION":20,"NORMAL":21,"TEXCOORD_0":22},"indices":23,"material":1},{"mode":4,"attributes":{"POSITION":20,"NORMAL":21,"TEXCOORD_0":22},"indices":24,"material":4},{"mode":4,"attributes":{"POSITION":20,"NORMAL":21,"TEXCOORD_0":22},"indices":25,"material":0},{"mode":4,"attributes":{"POSITION":20,"NORMAL":21,"TEXCOORD_0":22},"indices":26,"material":1},{"mode":4,"attributes":{"POSITION":20,"NORMAL":21,"TEXCOORD_0":22},"indices":27,"material":0}]},{"primitives":[{"mode":4,"attributes":{"POSITION":28,"NORMAL":29,"TEXCOORD_0":30},"indices":31,"material":1},{"mode":4,"attributes":{"POSITION":28,"NORMAL":29,"TEXCOORD_0":30},"indices":32,"material":5},{"mode":4,"attributes":{"POSITION":28,"NORMAL":29,"TEXCOORD_0":30},"indices":33,"material":1}]},{"primitives":[{"mode":4,"attributes":{"POSITION":34,"NORMAL":35,"TEXCOORD_0":36},"indices":37,"material":1},{"mode":4,"attributes":{"POSITION":34,"NORMAL":35,"TEXCOORD_0":36},"indices":38,"material":5},{"mode":4,"attributes":{"POSITION":34,"NORMAL":35,"TEXCOORD_0":36},"indices":39,"material":1}]},{"primitives":[{"mode":4,"attributes":{"POSITION":40,"NORMAL":41,"TEXCOORD_0":42},"indices":43,"material":1},{"mode":4,"attributes":{"POSITION":40,"NORMAL":41,"TEXCOORD_0":42},"indices":44,"material":5},{"mode":4,"attributes":{"POSITION":40,"NORMAL":41,"TEXCOORD_0":42},"indices":45,"material":1}]},{"primitives":[{"mode":4,"attributes":{"POSITION":46,"NORMAL":47,"TEXCOORD_0":48},"indices":49,"material":1},{"mode":4,"attributes":{"POSITION":46,"NORMAL":47,"TEXCOORD_0":48},"indices":50,"material":5},{"mode":4,"attributes":{"POSITION":46,"NORMAL":47,"TEXCOORD_0":48},"indices":51,"material":1}]},{"primitives":[{"mode":4,"attributes":{"POSITION":52,"NORMAL":53,"TEXCOORD_0":54},"indices":55,"material":1},{"mode":4,"attributes":{"POSITION":52,"NORMAL":53,"TEXCOORD_0":54},"indices":56,"material":5},{"mode":4,"attributes":{"POSITION":52,"NORMAL":53,"TEXCOORD_0":54},"indices":57,"material":1}]},{"primitives":[{"mode":4,"attributes":{"POSITION":58,"NORMAL":59,"TEXCOORD_0":60},"indices":61,"material":1},{"mode":4,"attributes":{"POSITION":58,"NORMAL":59,"TEXCOORD_0":60},"indices":62,"material":5},{"mode":4,"attributes":{"POSITION":58,"NORMAL":59,"TEXCOORD_0":60},"indices":63,"material":1}]}]}