{"asset":{"version":"2.0","generator":"Blockbench 5.0.3 glTF exporter"},"scenes":[{"nodes":[8],"name":"blockbench_export"}],"scene":0,"nodes":[{"translation":[-0.0625,0.5937499999999999,-0.025],"name":"superior","mesh":0},{"translation":[0.8437500000000001,0.1875,0],"name":"lateral","mesh":1},{"translation":[-0.9687499999999999,0.1875,0],"name":"lateral","mesh":2},{"translation":[-0.4624999999999999,0.1875,0],"name":"lateral","mesh":3},{"translation":[-0.7156250000000002,-0.25,0],"name":"suporte_inf","mesh":4},{"translation":[-0.7156250000000002,0.5625,0],"name":"suporte_sup","mesh":5},{"translation":[-0.7156250000000002,0.25,0],"name":"suporte_meio","mesh":6},{"translation":[-0.6875,0.15624999999999997,0.3125],"name":"traseira","mesh":7},{"name":"estrutura","children":[0,1,2,3,4,5,6,7]}],"bufferViews":[{"buffer":0,"byteOffset":0,"byteLength":288,"target":34962,"byteStride":12},{"buffer":0,"byteOffset":288,"byteLength":288,"target":34962,"byteStride":12},{"buffer":0,"byteOffset":576,"byteLength":192,"target":34962,"byteStride":8},{"buffer":0,"byteOffset":768,"byteLength":72,"target":34963},{"buffer":0,"byteOffset":840,"byteLength":288,"target":34962,"byteStride":12},{"buffer":0,"byteOffset":1128,"byteLength":288,"target":34962,"byteStride":12},{"buffer":0,"byteOffset":1416,"byteLength":192,"target":34962,"byteStride":8},{"buffer":0,"byteOffset":1608,"byteLength":72,"target":34963},{"buffer":0,"byteOffset":1680,"byteLength":288,"target":34962,"byteStride":12},{"buffer":0,"byteOffset":1968,"byteLength":288,"target":34962,"byteStride":12},{"buffer":0,"byteOffset":2256,"byteLength":192,"target":34962,"byteStride":8},{"buffer":0,"byteOffset":2448,"byteLength":36,"target":34963},{"buffer":0,"byteOffset":2484,"byteLength":12,"target":34963},{"buffer":0,"byteOffset":2496,"byteLength":24,"target":34963},{"buffer":0,"byteOffset":2520,"byteLength":288,"target":34962,"byteStride":12},{"buffer":0,"byteOffset":2808,"byteLength":288,"target":34962,"byteStride":12},{"buffer":0,"byteOffset":3096,"byteLength":192,"target":34962,"byteStride":8},{"buffer":0,"byteOffset":3288,"byteLength":36,"target":34963},{"buffer":0,"byteOffset":3324,"byteLength":12,"target":34963},{"buffer":0,"byteOffset":3336,"byteLength":24,"target":34963},{"buffer":0,"byteOffset":3360,"byteLength":288,"target":34962,"byteStride":12},{"buffer":0,"byteOffset":3648,"byteLength":288,"target":34962,"byteStride":12},{"buffer":0,"byteOffset":3936,"byteLength":192,"target":34962,"byteStride":8},{"buffer":0,"byteOffset":4128,"byteLength":72,"target":34963},{"buffer":0,"byteOffset":4200,"byteLength":288,"target":34962,"byteStride":12},{"buffer":0,"byteOffset":4488,"byteLength":288,"target":34962,"byteStride":12},{"buffer":0,"byteOffset":4776,"byteLength":192,"target":34962,"byteStride":8},{"buffer":0,"byteOffset":4968,"byteLength":24,"target":34963},{"buffer":0,"byteOffset":4992,"byteLength":12,"target":34963},{"buffer":0,"byteOffset":5004,"byteLength":36,"target":34963},{"buffer":0,"byteOffset":5040,"byteLength":288,"target":34962,"byteStride":12},{"buffer":0,"byteOffset":5328,"byteLength":288,"target":34962,"byteStride":12},{"buffer":0,"byteOffset":5616,"byteLength":192,"target":34962,"byteStride":8},{"buffer":0,"byteOffset":5808,"byteLength":72,"target":34963},{"buffer":0,"byteOffset":5880,"byteLength":288,"target":34962,"byteStride":12},{"buffer":0,"byteOffset":6168,"byteLength":288,"target":34962,"byteStride":12},{"buffer":0,"byteOffset":6456,"byteLength":192,"target":34962,"byteStride":8},{"buffer":0,"byteOffset":6648,"byteLength":48,"target":34963},{"buffer":0,"byteOffset":6696,"byteLength":12,"target":34963},{"buffer":0,"byteOffset":6708,"byteLength":12,"target":34963}],"buffers":[{"byteLength":6720,"uri":"data:application/octet-stream;base64,"}],"accessors":[{"bufferView":0,"componentType":5126,"count":24,"max":[0.9375,0.28125,0.3375000059604645],"min":[-0.9375,0.21875,-0.3375000059604645],"type":"VEC3"},{"bufferView":1,"componentType":5126,"count":24,"max":[1,1,1],"min":[-1,-1,-1],"type":"VEC3"},{"bufferView":2,"componentType":5126,"count":24,"max":[0.0624999962747097,0.0624999962747097],"min":[0,0],"type":"VEC2"},{"bufferView":3,"componentType":5123,"count":36,"max":[23],"min":[0],"type":"SCALAR"},{"bufferView":4,"componentType":5126,"count":24,"max":[0.03125,0.6875,0.3125],"min":[-0.03125,-0.1875,-0.3125],"type":"VEC3"},{"bufferView":5,"componentType":5126,"count":24,"max":[1,1,1],"min":[-1,-1,-1],"type":"VEC3"},{"bufferView":6,"componentType":5126,"count":24,"max":[0.0624999962747097,0.0624999962747097],"min":[0,0],"type":"VEC2"},{"bufferView":7,"componentType":5123,"count":36,"max":[23],"min":[0],"type":"SCALAR"},{"bufferView":8,"componentType":5126,"count":24,"max":[0.03125,0.6875,0.3125],"min":[-0.03125,-0.1875,-0.3125],"type":"VEC3"},{"bufferView":9,"componentType":5126,"count":24,"max":[1,1,1],"min":[-1,-1,-1],"type":"VEC3"},{"bufferView":10,"componentType":5126,"count":24,"max":[0.8359375,0.578125],"min":[0,0],"type":"VEC2"},{"bufferView":11,"componentType":5123,"count":18,"max":[11],"min":[0],"type":"SCALAR"},{"bufferView":12,"componentType":5123,"count":6,"max":[15],"min":[12],"type":"SCALAR"},{"bufferView":13,"componentType":5123,"count":12,"max":[23],"min":[16],"type":"SCALAR"},{"bufferView":14,"componentType":5126,"count":24,"max":[0.03125,0.6875,0.3125],"min":[-0.03125,-0.1875,-0.3125],"type":"VEC3"},{"bufferView":15,"componentType":5126,"count":24,"max":[1,1,1],"min":[-1,-1,-1],"type":"VEC3"},{"bufferView":16,"componentType":5126,"count":24,"max":[0.8359375,0.578125],"min":[0,0],"type":"VEC2"},{"bufferView":17,"componentType":5123,"count":18,"max":[11],"min":[0],"type":"SCALAR"},{"bufferView":18,"componentType":5123,"count":6,"max":[15],"min":[12],"type":"SCALAR"},{"bufferView":19,"componentType":5123,"count":12,"max":[23],"min":[16],"type":"SCALAR"},{"bufferView":20,"componentType":5126,"count":24,"max":[0.28437501192092896,0.265625,0.3125],"min":[-0.28437501192092896,0.234375,-0.3125],"type":"VEC3"},{"bufferView":21,"componentType":5126,"count":24,"max":[1,1,1],"min":[-1,-1,-1],"type":"VEC3"},{"bufferView":22,"componentType":5126,"count":24,"max":[0.0624999962747097,0.0624999962747097],"min":[0,0],"type":"VEC2"},{"bufferView":23,"componentType":5123,"count":36,"max":[23],"min":[0],"type":"SCALAR"},{"bufferView":24,"componentType":5126,"count":24,"max":[0.28437501192092896,0.265625,0.3125],"min":[-0.28437501192092896,0.234375,-0.3125],"type":"VEC3"},{"bufferView":25,"componentType":5126,"count":24,"max":[1,1,1],"min":[-1,-1,-1],"type":"VEC3"},{"bufferView":26,"componentType":5126,"count":24,"max":[0.8359375,0.578125],"min":[0,0],"type":"VEC2"},{"bufferView":27,"componentType":5123,"count":12,"max":[7],"min":[0],"type":"SCALAR"},{"bufferView":28,"componentType":5123,"count":6,"max":[11],"min":[8],"type":"SCALAR"},{"bufferView":29,"componentType":5123,"count":18,"max":[23],"min":[12],"type":"SCALAR"},{"bufferView":30,"componentType":5126,"count":24,"max":[0.28437501192092896,0.265625,0.3125],"min":[-0.28437501192092896,0.234375,-0.3125],"type":"VEC3"},{"bufferView":31,"componentType":5126,"count":24,"max":[1,1,1],"min":[-1,-1,-1],"type":"VEC3"},{"bufferView":32,"componentType":5126,"count":24,"max":[0.0624999962747097,0.0624999962747097],"min":[0,0],"type":"VEC2"},{"bufferView":33,"componentType":5123,"count":36,"max":[23],"min":[0],"type":"SCALAR"},{"bufferView":34,"componentType":5126,"count":24,"max":[0.25,0.65625,0],"min":[-0.25,-0.15625,0],"type":"VEC3"},{"bufferView":35,"componentType":5126,"count":24,"max":[1,0,1],"min":[0,0,-1],"type":"VEC3"},{"bufferView":36,"componentType":5126,"count":24,"max":[1,1],"min":[0,0],"type":"VEC2"},{"bufferView":37,"componentType":5123,"count":24,"max":[15],"min":[0],"type":"SCALAR"},{"bufferView":38,"componentType":5123,"count":6,"max":[19],"min":[16],"type":"SCALAR"},{"bufferView":39,"componentType":5123,"count":6,"max":[23],"min":[20],"type":"SCALAR"}],"materials":[{"pbrMetallicRoughness":{"metallicFactor":0,"roughnessFactor":1,"baseColorTexture":{"index":0}},"alphaMode":"MASK","alphaCutoff":0.05,"doubleSided":true},{"pbrMetallicRoughness":{"metallicFactor":0,"roughnessFactor":1},"alphaMode":"MASK","alphaCutoff":0.05,"doubleSided":true},{"pbrMetallicRoughness":{"metallicFactor":0,"roughnessFactor":1},"alphaMode":"MASK","alphaCutoff":0.05,"doubleSided":true},{"pbrMetallicRoughness":{"metallicFactor":0,"roughnessFactor":1},"alphaMode":"MASK","alphaCutoff":0.05,"doubleSided":true}],"textures":[{"sampler":0,"source":0,"name":"211832.png"}],"samplers":[{"magFilter":9728,"minFilter":9728,"wrapS":33071,"wrapT":33071}],"images":[{"mimeType":"image/png","uri":"data:image/png;base64,"}],"meshes":[{"primitives":[{"mode":4,"attributes":{"POSITION":0,"NORMAL":1,"TEXCOORD_0":2},"indices":3,"material":0}]},{"primitives":[{"mode":4,"attributes":{"POSITION":4,"NORMAL":5,"TEXCOORD_0":6},"indices":7,"material":0}]},{"primitives":[{"mode":4,"attributes":{"POSITION":8,"NORMAL":9,"TEXCOORD_0":10},"indices":11,"material":0},{"mode":4,"attributes":{"POSITION":8,"NORMAL":9,"TEXCOORD_0":10},"indices":12,"material":1},{"mode":4,"attributes":{"POSITION":8,"NORMAL":9,"TEXCOORD_0":10},"indices":13,"material":0}]},{"primitives":[{"mode":4,"attributes":{"POSITION":14,"NORMAL":15,"TEXCOORD_0":16},"indices":17,"material":0},{"mode":4,"attributes":{"POSITION":14,"NORMAL":15,"TEXCOORD_0":16},"indices":18,"material":1},{"mode":4,"attributes":{"POSITION":14,"NORMAL":15,"TEXCOORD_0":16},"indices":19,"material":0}]},{"primitives":[{"mode":4,"attributes":{"POSITION":20,"NORMAL":21,"TEXCOORD_0":22},"indices":23,"material":0}]},{"primitives":[{"mode":4,"attributes":{"POSITION":24,"NORMAL":25,"TEXCOORD_0":26},"indices":27,"material":0},{"mode":4,"attributes":{"POSITION":24,"NORMAL":25,"TEXCOORD_0":26},"indices":28,"material":2},{"mode":4,"attributes":{"POSITION":24,"NORMAL":25,"TEXCOORD_0":26},"indices":29,"material":0}]},{"primitives":[{"mode":4,"attributes":{"POSITION":30,"NORMAL":31,"TEXCOORD_0":32},"indices":33,"material":0}]},{"primitives":[{"mode":4,"attributes":{"POSITION":34,"NORMAL":35,"TEXCOORD_0":36},"indices":37,"material":3},{"mode":4,"attributes":{"POSITION":34,"NORMAL":35,"TEXCOORD_0":36},"indices":38,"material":0},{"mode":4,"attributes":{"POSITION":34,"NORMAL":35,"TEXCOORD_0":36},"indices":39,"material":3}]}]}