{"asset":{"version":"2.0","generator":"Blockbench 5.0.3 glTF exporter"},"scenes":[{"nodes":[0,1,2,4],"name":"blockbench_export"}],"scene":0,"nodes":[{"name":"cylinder","mesh":0},{"translation":[0,6.938893903907228e-18,0],"name":"cylinder","mesh":1},{"translation":[0,0.19375,0],"name":"cylinder","mesh":2},{"translation":[0,0.37500000000000067,0],"name":"sphere","mesh":3},{"name":"papeis","children":[3]}],"bufferViews":[{"buffer":0,"byteOffset":0,"byteLength":1008,"target":34962,"byteStride":12},{"buffer":0,"byteOffset":1008,"byteLength":1008,"target":34962,"byteStride":12},{"buffer":0,"byteOffset":2016,"byteLength":672,"target":34962,"byteStride":8},{"buffer":0,"byteOffset":2688,"byteLength":8,"target":34963},{"buffer":0,"byteOffset":2696,"byteLength":12,"target":34963},{"buffer":0,"byteOffset":2708,"byteLength":8,"target":34963},{"buffer":0,"byteOffset":2716,"byteLength":12,"target":34963},{"buffer":0,"byteOffset":2728,"byteLength":8,"target":34963},{"buffer":0,"byteOffset":2736,"byteLength":12,"target":34963},{"buffer":0,"byteOffset":2748,"byteLength":8,"target":34963},{"buffer":0,"byteOffset":2756,"byteLength":12,"target":34963},{"buffer":0,"byteOffset":2768,"byteLength":8,"target":34963},{"buffer":0,"byteOffset":2776,"byteLength":12,"target":34963},{"buffer":0,"byteOffset":2788,"byteLength":8,"target":34963},{"buffer":0,"byteOffset":2796,"byteLength":12,"target":34963},{"buffer":0,"byteOffset":2808,"byteLength":8,"target":34963},{"buffer":0,"byteOffset":2816,"byteLength":12,"target":34963},{"buffer":0,"byteOffset":2828,"byteLength":8,"target":34963},{"buffer":0,"byteOffset":2836,"byteLength":12,"target":34963},{"buffer":0,"byteOffset":2848,"byteLength":8,"target":34963},{"buffer":0,"byteOffset":2856,"byteLength":12,"target":34963},{"buffer":0,"byteOffset":2868,"byteLength":8,"target":34963},{"buffer":0,"byteOffset":2876,"byteLength":12,"target":34963},{"buffer":0,"byteOffset":2888,"byteLength":8,"target":34963},{"buffer":0,"byteOffset":2896,"byteLength":12,"target":34963},{"buffer":0,"byteOffset":2908,"byteLength":8,"target":34963},{"buffer":0,"byteOffset":2916,"byteLength":12,"target":34963},{"buffer":0,"byteOffset":2928,"byteLength":576,"target":34962,"byteStride":12},{"buffer":0,"byteOffset":3504,"byteLength":576,"target":34962,"byteStride":12},{"buffer":0,"byteOffset":4080,"byteLength":384,"target":34962,"byteStride":8},{"buffer":0,"byteOffset":4464,"byteLength":144,"target":34963},{"buffer":0,"byteOffset":4608,"byteLength":1764,"target":34962,"byteStride":12},{"buffer":0,"byteOffset":6372,"byteLength":1764,"target":34962,"byteStride":12},{"buffer":0,"byteOffset":8136,"byteLength":1176,"target":34962,"byteStride":8},{"buffer":0,"byteOffset":9312,"byteLength":440,"target":34963},{"buffer":0,"byteOffset":9752,"byteLength":41040,"target":34962,"byteStride":12},{"buffer":0,"byteOffset":50792,"byteLength":41040,"target":34962,"byteStride":12},{"buffer":0,"byteOffset":91832,"byteLength":27360,"target":34962,"byteStride":8},{"buffer":0,"byteOffset":119192,"byteLength":396,"target":34963},{"buffer":0,"byteOffset":119588,"byteLength":8,"target":34963},{"buffer":0,"byteOffset":119596,"byteLength":32,"target":34963},{"buffer":0,"byteOffset":119628,"byteLength":8,"target":34963},{"buffer":0,"byteOffset":119636,"byteLength":824,"target":34963},{"buffer":0,"byteOffset":120460,"byteLength":8,"target":34963},{"buffer":0,"byteOffset":120468,"byteLength":32,"target":34963},{"buffer":0,"byteOffset":120500,"byteLength":8,"target":34963},{"buffer":0,"byteOffset":120508,"byteLength":824,"target":34963},{"buffer":0,"byteOffset":121332,"byteLength":8,"target":34963},{"buffer":0,"byteOffset":121340,"byteLength":32,"target":34963},{"buffer":0,"byteOffset":121372,"byteLength":8,"target":34963},{"buffer":0,"byteOffset":121380,"byteLength":824,"target":34963},{"buffer":0,"byteOffset":122204,"byteLength":8,"target":34963},{"buffer":0,"byteOffset":122212,"byteLength":32,"target":34963},{"buffer":0,"byteOffset":122244,"byteLength":8,"target":34963},{"buffer":0,"byteOffset":122252,"byteLength":824,"target":34963},{"buffer":0,"byteOffset":123076,"byteLength":8,"target":34963},{"buffer":0,"byteOffset":123084,"byteLength":32,"target":34963},{"buffer":0,"byteOffset":123116,"byteLength":8,"target":34963},{"buffer":0,"byteOffset":123124,"byteLength":824,"target":34963},{"buffer":0,"byteOffset":123948,"byteLength":8,"target":34963},{"buffer":0,"byteOffset":123956,"byteLength":32,"target":34963},{"buffer":0,"byteOffset":123988,"byteLength":8,"target":34963},{"buffer":0,"byteOffset":123996,"byteLength":824,"target":34963},{"buffer":0,"byteOffset":124820,"byteLength":8,"target":34963},{"buffer":0,"byteOffset":124828,"byteLength":32,"target":34963},{"buffer":0,"byteOffset":124860,"byteLength":8,"target":34963},{"buffer":0,"byteOffset":124868,"byteLength":824,"target":34963},{"buffer":0,"byteOffset":125692,"byteLength":8,"target":34963},{"buffer":0,"byteOffset":125700,"byteLength":32,"target":34963},{"buffer":0,"byteOffset":125732,"byteLength":8,"target":34963},{"buffer":0,"byteOffset":125740,"byteLength":824,"target":34963},{"buffer":0,"byteOffset":126564,"byteLength":8,"target":34963},{"buffer":0,"byteOffset":126572,"byteLength":32,"target":34963},{"buffer":0,"byteOffset":126604,"byteLength":8,"target":34963},{"buffer":0,"byteOffset":126612,"byteLength":824,"target":34963},{"buffer":0,"byteOffset":127436,"byteLength":8,"target":34963},{"buffer":0,"byteOffset":127444,"byteLength":32,"target":34963},{"buffer":0,"byteOffset":127476,"byteLength":8,"target":34963},{"buffer":0,"byteOffset":127484,"byteLength":428,"target":34963}],"buffers":[{"byteLength":127912,"uri":"data:application/octet-stream;base64,"}],"accessors":[{"bufferView":0,"componentType":5126,"count":84,"max":[0.25,0.5,0.25],"min":[-0.25,0,-0.25],"type":"VEC3"},{"bufferView":1,"componentType":5126,"count":84,"max":[1,0,1],"min":[-1,-1,-1],"type":"VEC3"},{"bufferView":2,"componentType":5126,"count":84,"max":[0.03235234320163727,0.03375910967588425],"min":[0,0],"type":"VEC2"},{"bufferView":3,"componentType":5123,"count":3,"max":[2],"min":[0],"type":"SCALAR"},{"bufferView":4,"componentType":5123,"count":6,"max":[6],"min":[3],"type":"SCALAR"},{"bufferView":5,"componentType":5123,"count":3,"max":[9],"min":[7],"type":"SCALAR"},{"bufferView":6,"componentType":5123,"count":6,"max":[13],"min":[10],"type":"SCALAR"},{"bufferView":7,"componentType":5123,"count":3,"max":[16],"min":[14],"type":"SCALAR"},{"bufferView":8,"componentType":5123,"count":6,"max":[20],"min":[17],"type":"SCALAR"},{"bufferView":9,"componentType":5123,"count":3,"max":[23],"min":[21],"type":"SCALAR"},{"bufferView":10,"componentType":5123,"count":6,"max":[27],"min":[24],"type":"SCALAR"},{"bufferView":11,"componentType":5123,"count":3,"max":[30],"min":[28],"type":"SCALAR"},{"bufferView":12,"componentType":5123,"count":6,"max":[34],"min":[31],"type":"SCALAR"},{"bufferView":13,"componentType":5123,"count":3,"max":[37],"min":[35],"type":"SCALAR"},{"bufferView":14,"componentType":5123,"count":6,"max":[41],"min":[38],"type":"SCALAR"},{"bufferView":15,"componentType":5123,"count":3,"max":[44],"min":[42],"type":"SCALAR"},{"bufferView":16,"componentType":5123,"count":6,"max":[48],"min":[45],"type":"SCALAR"},{"bufferView":17,"componentType":5123,"count":3,"max":[51],"min":[49],"type":"SCALAR"},{"bufferView":18,"componentType":5123,"count":6,"max":[55],"min":[52],"type":"SCALAR"},{"bufferView":19,"componentType":5123,"count":3,"max":[58],"min":[56],"type":"SCALAR"},{"bufferView":20,"componentType":5123,"count":6,"max":[62],"min":[59],"type":"SCALAR"},{"bufferView":21,"componentType":5123,"count":3,"max":[65],"min":[63],"type":"SCALAR"},{"bufferView":22,"componentType":5123,"count":6,"max":[69],"min":[66],"type":"SCALAR"},{"bufferView":23,"componentType":5123,"count":3,"max":[72],"min":[70],"type":"SCALAR"},{"bufferView":24,"componentType":5123,"count":6,"max":[76],"min":[73],"type":"SCALAR"},{"bufferView":25,"componentType":5123,"count":3,"max":[79],"min":[77],"type":"SCALAR"},{"bufferView":26,"componentType":5123,"count":6,"max":[83],"min":[80],"type":"SCALAR"},{"bufferView":27,"componentType":5126,"count":48,"max":[0.203125,0.5,0.203125],"min":[-0.203125,0,-0.203125],"type":"VEC3"},{"bufferView":28,"componentType":5126,"count":48,"max":[1,0,1],"min":[-1,0,-1],"type":"VEC3"},{"bufferView":29,"componentType":5126,"count":48,"max":[0.016746874898672104,0.031250014901161194],"min":[0,0],"type":"VEC2"},{"bufferView":30,"componentType":5123,"count":72,"max":[47],"min":[0],"type":"SCALAR"},{"bufferView":31,"componentType":5126,"count":147,"max":[0.265625,0.3062500059604645,0.265625],"min":[-0.265625,0.19374999403953552,-0.265625],"type":"VEC3"},{"bufferView":32,"componentType":5126,"count":147,"max":[1,1,1],"min":[-1,0,-1],"type":"VEC3"},{"bufferView":33,"componentType":5126,"count":147,"max":[0.03235238790512085,0.03235239163041115],"min":[0,0],"type":"VEC2"},{"bufferView":34,"componentType":5123,"count":219,"max":[146],"min":[0],"type":"SCALAR"},{"bufferView":35,"componentType":5126,"count":3420,"max":[0.203125,0.09765853732824326,0.23008812963962555],"min":[-0.1989382952451706,-0.14362750947475433,-0.20518828928470612],"type":"VEC3"},{"bufferView":36,"componentType":5126,"count":3420,"max":[0.9991744756698608,0.9981037974357605,0.9975640773773193],"min":[-0.9988530278205872,-0.9999741315841675,-0.9999300837516785],"type":"VEC3"},{"bufferView":37,"componentType":5126,"count":3420,"max":[0.1840084046125412,0.15772148966789246],"min":[0,0],"type":"VEC2"},{"bufferView":38,"componentType":5123,"count":198,"max":[151],"min":[0],"type":"SCALAR"},{"bufferView":39,"componentType":5123,"count":3,"max":[154],"min":[152],"type":"SCALAR"},{"bufferView":40,"componentType":5123,"count":15,"max":[165],"min":[155],"type":"SCALAR"},{"bufferView":41,"componentType":5123,"count":3,"max":[168],"min":[166],"type":"SCALAR"},{"bufferView":42,"componentType":5123,"count":411,"max":[493],"min":[169],"type":"SCALAR"},{"bufferView":43,"componentType":5123,"count":3,"max":[496],"min":[494],"type":"SCALAR"},{"bufferView":44,"componentType":5123,"count":15,"max":[507],"min":[497],"type":"SCALAR"},{"bufferView":45,"componentType":5123,"count":3,"max":[510],"min":[508],"type":"SCALAR"},{"bufferView":46,"componentType":5123,"count":411,"max":[835],"min":[511],"type":"SCALAR"},{"bufferView":47,"componentType":5123,"count":3,"max":[838],"min":[836],"type":"SCALAR"},{"bufferView":48,"componentType":5123,"count":15,"max":[849],"min":[839],"type":"SCALAR"},{"bufferView":49,"componentType":5123,"count":3,"max":[852],"min":[850],"type":"SCALAR"},{"bufferView":50,"componentType":5123,"count":411,"max":[1177],"min":[853],"type":"SCALAR"},{"bufferView":51,"componentType":5123,"count":3,"max":[1180],"min":[1178],"type":"SCALAR"},{"bufferView":52,"componentType":5123,"count":15,"max":[1191],"min":[1181],"type":"SCALAR"},{"bufferView":53,"componentType":5123,"count":3,"max":[1194],"min":[1192],"type":"SCALAR"},{"bufferView":54,"componentType":5123,"count":411,"max":[1519],"min":[1195],"type":"SCALAR"},{"bufferView":55,"componentType":5123,"count":3,"max":[1522],"min":[1520],"type":"SCALAR"},{"bufferView":56,"componentType":5123,"count":15,"max":[1533],"min":[1523],"type":"SCALAR"},{"bufferView":57,"componentType":5123,"count":3,"max":[1536],"min":[1534],"type":"SCALAR"},{"bufferView":58,"componentType":5123,"count":411,"max":[1861],"min":[1537],"type":"SCALAR"},{"bufferView":59,"componentType":5123,"count":3,"max":[1864],"min":[1862],"type":"SCALAR"},{"bufferView":60,"componentType":5123,"count":15,"max":[1875],"min":[1865],"type":"SCALAR"},{"bufferView":61,"componentType":5123,"count":3,"max":[1878],"min":[1876],"type":"SCALAR"},{"bufferView":62,"componentType":5123,"count":411,"max":[2203],"min":[1879],"type":"SCALAR"},{"bufferView":63,"componentType":5123,"count":3,"max":[2206],"min":[2204],"type":"SCALAR"},{"bufferView":64,"componentType":5123,"count":15,"max":[2217],"min":[2207],"type":"SCALAR"},{"bufferView":65,"componentType":5123,"count":3,"max":[2220],"min":[2218],"type":"SCALAR"},{"bufferView":66,"componentType":5123,"count":411,"max":[2545],"min":[2221],"type":"SCALAR"},{"bufferView":67,"componentType":5123,"count":3,"max":[2548],"min":[2546],"type":"SCALAR"},{"bufferView":68,"componentType":5123,"count":15,"max":[2559],"min":[2549],"type":"SCALAR"},{"bufferView":69,"componentType":5123,"count":3,"max":[2562],"min":[2560],"type":"SCALAR"},{"bufferView":70,"componentType":5123,"count":411,"max":[2887],"min":[2563],"type":"SCALAR"},{"bufferView":71,"componentType":5123,"count":3,"max":[2890],"min":[2888],"type":"SCALAR"},{"bufferView":72,"componentType":5123,"count":15,"max":[2901],"min":[2891],"type":"SCALAR"},{"bufferView":73,"componentType":5123,"count":3,"max":[2904],"min":[2902],"type":"SCALAR"},{"bufferView":74,"componentType":5123,"count":411,"max":[3229],"min":[2905],"type":"SCALAR"},{"bufferView":75,"componentType":5123,"count":3,"max":[3232],"min":[3230],"type":"SCALAR"},{"bufferView":76,"componentType":5123,"count":15,"max":[3243],"min":[3233],"type":"SCALAR"},{"bufferView":77,"componentType":5123,"count":3,"max":[3246],"min":[3244],"type":"SCALAR"},{"bufferView":78,"componentType":5123,"count":213,"max":[3419],"min":[3247],"type":"SCALAR"}],"materials":[{"pbrMetallicRoughness":{"metallicFactor":0,"roughnessFactor":1,"baseColorTexture":{"index":0}},"alphaMode":"MASK","alphaCutoff":0.05,"doubleSided":true},{"pbrMetallicRoughness":{"metallicFactor":0,"roughnessFactor":1,"baseColorTexture":{"index":1}},"alphaMode":"MASK","alphaCutoff":0.05,"doubleSided":true},{"pbrMetallicRoughness":{"metallicFactor":0,"roughnessFactor":1,"baseColorTexture":{"index":2}},"alphaMode":"MASK","alphaCutoff":0.05,"doubleSided":true},{"pbrMetallicRoughness":{"metallicFactor":0,"roughnessFactor":1},"alphaMode":"MASK","alphaCutoff":0.05,"doubleSided":true}],"textures":[{"sampler":0,"source":0,"name":"211832.png"},{"sampler":1,"source":1,"name":"412b6b.png"},{"sampler":2,"source":2,"name":"branco.png"}],"samplers":[{"magFilter":9728,"minFilter":9728,"wrapS":33071,"wrapT":33071},{"magFilter":9728,"minFilter":9728,"wrapS":33071,"wrapT":33071},{"magFilter":9728,"minFilter":9728,"wrapS":33071,"wrapT":33071}],"images":[{"mimeType":"image/png","uri":"data:image/png;base64,"},{"mimeType":"image/png","uri":"data:image/png;base64,"},{"mimeType":"image/png","uri":"data:image/png;base64,"}],"meshes":[{"primitives":[{"mode":4,"attributes":{"POSITION":0,"NORMAL":1,"TEXCOORD_0":2},"indices":3,"material":0},{"mode":4,"attributes":{"POSITION":0,"NORMAL":1,"TEXCOORD_0":2},"indices":4,"material":1},{"mode":4,"attributes":{"POSITION":0,"NORMAL":1,"TEXCOORD_0":2},"indices":5,"material":0},{"mode":4,"attributes":{"POSITION":0,"NORMAL":1,"TEXCOORD_0":2},"indices":6,"material":1},{"mode":4,"attributes":{"POSITION":0,"NORMAL":1,"TEXCOORD_0":2},"indices":7,"material":0},{"mode":4,"attributes":{"POSITION":0,"NORMAL":1,"TEXCOORD_0":2},"indices":8,"material":1},{"mode":4,"attributes":{"POSITION":0,"NORMAL":1,"TEXCOORD_0":2},"indices":9,"material":0},{"mode":4,"attributes":{"POSITION":0,"NORMAL":1,"TEXCOORD_0":2},"indices":10,"material":1},{"mode":4,"attributes":{"POSITION":0,"NORMAL":1,"TEXCOORD_0":2},"indices":11,"material":0},{"mode":4,"attributes":{"POSITION":0,"NORMAL":1,"TEXCOORD_0":2},"indices":12,"material":1},{"mode":4,"attributes":{"POSITION":0,"NORMAL":1,"TEXCOORD_0":2},"indices":13,"material":0},{"mode":4,"attributes":{"POSITION":0,"NORMAL":1,"TEXCOORD_0":2},"indices":14,"material":1},{"mode":4,"attributes":{"POSITION":0,"NORMAL":1,"TEXCOORD_0":2},"indices":15,"material":0},{"mode":4,"attributes":{"POSITION":0,"NORMAL":1,"TEXCOORD_0":2},"indices":16,"material":1},{"mode":4,"attributes":{"POSITION":0,"NORMAL":1,"TEXCOORD_0":2},"indices":17,"material":0},{"mode":4,"attributes":{"POSITION":0,"NORMAL":1,"TEXCOORD_0":2},"indices":18,"material":1},{"mode":4,"attributes":{"POSITION":0,"NORMAL":1,"TEXCOORD_0":2},"indices":19,"material":0},{"mode":4,"attributes":{"POSITION":0,"NORMAL":1,"TEXCOORD_0":2},"indices":20,"material":1},{"mode":4,"attributes":{"POSITION":0,"NORMAL":1,"TEXCOORD_0":2},"indices":21,"material":0},{"mode":4,"attributes":{"POSITION":0,"NORMAL":1,"TEXCOORD_0":2},"indices":22,"material":1},{"mode":4,"attributes":{"POSITION":0,"NORMAL":1,"TEXCOORD_0":2},"indices":23,"material":0},{"mode":4,"attributes":{"POSITION":0,"NORMAL":1,"TEXCOORD_0":2},"indices":24,"material":1},{"mode":4,"attributes":{"POSITION":0,"NORMAL":1,"TEXCOORD_0":2},"indices":25,"material":0},{"mode":4,"attributes":{"POSITION":0,"NORMAL":1,"TEXCOORD_0":2},"indices":26,"material":1}]},{"primitives":[{"mode":4,"attributes":{"POSITION":27,"NORMAL":28,"TEXCOORD_0":29},"indices":30,"material":0}]},{"primitives":[{"mode":4,"attributes":{"POSITION":31,"NORMAL":32,"TEXCOORD_0":33},"indices":34,"material":0}]},{"primitives":[{"mode":4,"attributes":{"POSITION":35,"NORMAL":36,"TEXCOORD_0":37},"indices":38,"material":2},{"mode":4,"attributes":{"POSITION":35,"NORMAL":36,"TEXCOORD_0":37},"indices":39,"material":3},{"mode":4,"attributes":{"POSITION":35,"NORMAL":36,"TEXCOORD_0":37},"indices":40,"material":2},{"mode":4,"attributes":{"POSITION":35,"NORMAL":36,"TEXCOORD_0":37},"indices":41,"material":3},{"mode":4,"attributes":{"POSITION":35,"NORMAL":36,"TEXCOORD_0":37},"indices":42,"material":2},{"mode":4,"attributes":{"POSITION":35,"NORMAL":36,"TEXCOORD_0":37},"indices":43,"material":3},{"mode":4,"attributes":{"POSITION":35,"NORMAL":36,"TEXCOORD_0":37},"indices":44,"material":2},{"mode":4,"attributes":{"POSITION":35,"NORMAL":36,"TEXCOORD_0":37},"indices":45,"material":3},{"mode":4,"attributes":{"POSITION":35,"NORMAL":36,"TEXCOORD_0":37},"indices":46,"material":2},{"mode":4,"attributes":{"POSITION":35,"NORMAL":36,"TEXCOORD_0":37},"indices":47,"material":3},{"mode":4,"attributes":{"POSITION":35,"NORMAL":36,"TEXCOORD_0":37},"indices":48,"material":2},{"mode":4,"attributes":{"POSITION":35,"NORMAL":36,"TEXCOORD_0":37},"indices":49,"material":3},{"mode":4,"attributes":{"POSITION":35,"NORMAL":36,"TEXCOORD_0":37},"indices":50,"material":2},{"mode":4,"attributes":{"POSITION":35,"NORMAL":36,"TEXCOORD_0":37},"indices":51,"material":3},{"mode":4,"attributes":{"POSITION":35,"NORMAL":36,"TEXCOORD_0":37},"indices":52,"material":2},{"mode":4,"attributes":{"POSITION":35,"NORMAL":36,"TEXCOORD_0":37},"indices":53,"material":3},{"mode":4,"attributes":{"POSITION":35,"NORMAL":36,"TEXCOORD_0":37},"indices":54,"material":2},{"mode":4,"attributes":{"POSITION":35,"NORMAL":36,"TEXCOORD_0":37},"indices":55,"material":3},{"mode":4,"attributes":{"POSITION":35,"NORMAL":36,"TEXCOORD_0":37},"indices":56,"material":2},{"mode":4,"attributes":{"POSITION":35,"NORMAL":36,"TEXCOORD_0":37},"indices":57,"material":3},{"mode":4,"attributes":{"POSITION":35,"NORMAL":36,"TEXCOORD_0":37},"indices":58,"material":2},{"mode":4,"attributes":{"POSITION":35,"NORMAL":36,"TEXCOORD_0":37},"indices":59,"material":3},{"mode":4,"attributes":{"POSITION":35,"NORMAL":36,"TEXCOORD_0":37},"indices":60,"material":2},{"mode":4,"attributes":{"POSITION":35,"NORMAL":36,"TEXCOORD_0":37},"indices":61,"material":3},{"mode":4,"attributes":{"POSITION":35,"NORMAL":36,"TEXCOORD_0":37},"indices":62,"material":2},{"mode":4,"attributes":{"POSITION":35,"NORMAL":36,"TEXCOORD_0":37},"indices":63,"material":3},{"mode":4,"attributes":{"POSITION":35,"NORMAL":36,"TEXCOORD_0":37},"indices":64,"material":2},{"mode":4,"attributes":{"POSITION":35,"NORMAL":36,"TEXCOORD_0":37},"indices":65,"material":3},{"mode":4,"attributes":{"POSITION":35,"NORMAL":36,"TEXCOORD_0":37},"indices":66,"material":2},{"mode":4,"attributes":{"POSITION":35,"NORMAL":36,"TEXCOORD_0":37},"indices":67,"material":3},{"mode":4,"attributes":{"POSITION":35,"NORMAL":36,"TEXCOORD_0":37},"indices":68,"material":2},{"mode":4,"attributes":{"POSITION":35,"NORMAL":36,"TEXCOORD_0":37},"indices":69,"material":3},{"mode":4,"attributes":{"POSITION":35,"NORMAL":36,"TEXCOORD_0":37},"indices":70,"material":2},{"mode":4,"attributes":{"POSITION":35,"NORMAL":36,"TEXCOORD_0":37},"indices":71,"material":3},{"mode":4,"attributes":{"POSITION":35,"NORMAL":36,"TEXCOORD_0":37},"indices":72,"material":2},{"mode":4,"attributes":{"POSITION":35,"NORMAL":36,"TEXCOORD_0":37},"indices":73,"material":3},{"mode":4,"attributes":{"POSITION":35,"NORMAL":36,"TEXCOORD_0":37},"indices":74,"material":2},{"mode":4,"attributes":{"POSITION":35,"NORMAL":36,"TEXCOORD_0":37},"indices":75,"material":3},{"mode":4,"attributes":{"POSITION":35,"NORMAL":36,"TEXCOORD_0":37},"indices":76,"material":2},{"mode":4,"attributes":{"POSITION":35,"NORMAL":36,"TEXCOORD_0":37},"indices":77,"material":3},{"mode":4,"attributes":{"POSITION":35,"NORMAL":36,"TEXCOORD_0":37},"indices":78,"material":2}]}]}