{"asset":{"version":"2.0","generator":"Blockbench 5.0.3 glTF exporter"},"scenes":[{"nodes":[0,1,2,3,4,5,6,7,8,9,13,17,21,25],"name":"blockbench_export"}],"scene":0,"nodes":[{"name":"cuboid","mesh":0},{"name":"cuboid","mesh":1},{"name":"cuboid","mesh":2},{"name":"cuboid","mesh":3},{"name":"cuboid","mesh":4},{"name":"cuboid","mesh":5},{"name":"cuboid","mesh":6},{"name":"cuboid","mesh":7},{"translation":[0,0,-0.03125],"name":"sphere","mesh":8},{"translation":[0,0,-0.03125],"name":"sphere","mesh":9},{"translation":[0,0.03125,0],"name":"sphere","mesh":10},{"translation":[0,0.0625,0],"name":"cylinder","mesh":11},{"translation":[0,0.0625,0],"name":"sphere","mesh":12},{"name":"group","children":[10,11,12]},{"translation":[0,0.0625,0],"name":"cylinder","mesh":13},{"translation":[0,0.0625,0],"name":"sphere","mesh":14},{"translation":[0,0.03125,0],"name":"sphere","mesh":15},{"translation":[-0.625,0,0],"name":"group2","children":[14,15,16]},{"translation":[0,0.03125,0],"name":"sphere","mesh":16},{"translation":[0,0.0625,0],"name":"sphere","mesh":17},{"translation":[0,0.0625,0],"name":"cylinder","mesh":18},{"translation":[0,0,-0.375],"name":"group3","children":[18,19,20]},{"translation":[0,0.0625,0],"name":"cylinder","mesh":19},{"translation":[0,0.0625,0],"name":"sphere","mesh":20},{"translation":[0,0.03125,0],"name":"sphere","mesh":21},{"translation":[-0.625,0,-0.375],"name":"group4","children":[22,23,24]}],"bufferViews":[{"buffer":0,"byteOffset":0,"byteLength":288,"target":34962,"byteStride":12},{"buffer":0,"byteOffset":288,"byteLength":288,"target":34962,"byteStride":12},{"buffer":0,"byteOffset":576,"byteLength":192,"target":34962,"byteStride":8},{"buffer":0,"byteOffset":768,"byteLength":72,"target":34963},{"buffer":0,"byteOffset":840,"byteLength":288,"target":34962,"byteStride":12},{"buffer":0,"byteOffset":1128,"byteLength":288,"target":34962,"byteStride":12},{"buffer":0,"byteOffset":1416,"byteLength":192,"target":34962,"byteStride":8},{"buffer":0,"byteOffset":1608,"byteLength":72,"target":34963},{"buffer":0,"byteOffset":1680,"byteLength":288,"target":34962,"byteStride":12},{"buffer":0,"byteOffset":1968,"byteLength":288,"target":34962,"byteStride":12},{"buffer":0,"byteOffset":2256,"byteLength":192,"target":34962,"byteStride":8},{"buffer":0,"byteOffset":2448,"byteLength":72,"target":34963},{"buffer":0,"byteOffset":2520,"byteLength":288,"target":34962,"byteStride":12},{"buffer":0,"byteOffset":2808,"byteLength":288,"target":34962,"byteStride":12},{"buffer":0,"byteOffset":3096,"byteLength":192,"target":34962,"byteStride":8},{"buffer":0,"byteOffset":3288,"byteLength":72,"target":34963},{"buffer":0,"byteOffset":3360,"byteLength":288,"target":34962,"byteStride":12},{"buffer":0,"byteOffset":3648,"byteLength":288,"target":34962,"byteStride":12},{"buffer":0,"byteOffset":3936,"byteLength":192,"target":34962,"byteStride":8},{"buffer":0,"byteOffset":4128,"byteLength":72,"target":34963},{"buffer":0,"byteOffset":4200,"byteLength":288,"target":34962,"byteStride":12},{"buffer":0,"byteOffset":4488,"byteLength":288,"target":34962,"byteStride":12},{"buffer":0,"byteOffset":4776,"byteLength":192,"target":34962,"byteStride":8},{"buffer":0,"byteOffset":4968,"byteLength":72,"target":34963},{"buffer":0,"byteOffset":5040,"byteLength":288,"target":34962,"byteStride":12},{"buffer":0,"byteOffset":5328,"byteLength":288,"target":34962,"byteStride":12},{"buffer":0,"byteOffset":5616,"byteLength":192,"target":34962,"byteStride":8},{"buffer":0,"byteOffset":5808,"byteLength":72,"target":34963},{"buffer":0,"byteOffset":5880,"byteLength":288,"target":34962,"byteStride":12},{"buffer":0,"byteOffset":6168,"byteLength":288,"target":34962,"byteStride":12},{"buffer":0,"byteOffset":6456,"byteLength":192,"target":34962,"byteStride":8},{"buffer":0,"byteOffset":6648,"byteLength":72,"target":34963},{"buffer":0,"byteOffset":6720,"byteLength":54144,"target":34962,"byteStride":12},{"buffer":0,"byteOffset":60864,"byteLength":54144,"target":34962,"byteStride":12},{"buffer":0,"byteOffset":115008,"byteLength":36096,"target":34962,"byteStride":8},{"buffer":0,"byteOffset":151104,"byteLength":13248,"target":34963},{"buffer":0,"byteOffset":164352,"byteLength":54144,"target":34962,"byteStride":12},{"buffer":0,"byteOffset":218496,"byteLength":54144,"target":34962,"byteStride":12},{"buffer":0,"byteOffset":272640,"byteLength":36096,"target":34962,"byteStride":8},{"buffer":0,"byteOffset":308736,"byteLength":13248,"target":34963},{"buffer":0,"byteOffset":321984,"byteLength":54144,"target":34962,"byteStride":12},{"buffer":0,"byteOffset":376128,"byteLength":54144,"target":34962,"byteStride":12},{"buffer":0,"byteOffset":430272,"byteLength":36096,"target":34962,"byteStride":8},{"buffer":0,"byteOffset":466368,"byteLength":13248,"target":34963},{"buffer":0,"byteOffset":479616,"byteLength":5760,"target":34962,"byteStride":12},{"buffer":0,"byteOffset":485376,"byteLength":5760,"target":34962,"byteStride":12},{"buffer":0,"byteOffset":491136,"byteLength":3840,"target":34962,"byteStride":8},{"buffer":0,"byteOffset":494976,"byteLength":1152,"target":34963},{"buffer":0,"byteOffset":496128,"byteLength":54144,"target":34962,"byteStride":12},{"buffer":0,"byteOffset":550272,"byteLength":54144,"target":34962,"byteStride":12},{"buffer":0,"byteOffset":604416,"byteLength":36096,"target":34962,"byteStride":8},{"buffer":0,"byteOffset":640512,"byteLength":13248,"target":34963},{"buffer":0,"byteOffset":653760,"byteLength":5760,"target":34962,"byteStride":12},{"buffer":0,"byteOffset":659520,"byteLength":5760,"target":34962,"byteStride":12},{"buffer":0,"byteOffset":665280,"byteLength":3840,"target":34962,"byteStride":8},{"buffer":0,"byteOffset":669120,"byteLength":1152,"target":34963},{"buffer":0,"byteOffset":670272,"byteLength":54144,"target":34962,"byteStride":12},{"buffer":0,"byteOffset":724416,"byteLength":54144,"target":34962,"byteStride":12},{"buffer":0,"byteOffset":778560,"byteLength":36096,"target":34962,"byteStride":8},{"buffer":0,"byteOffset":814656,"byteLength":13248,"target":34963},{"buffer":0,"byteOffset":827904,"byteLength":54144,"target":34962,"byteStride":12},{"buffer":0,"byteOffset":882048,"byteLength":54144,"target":34962,"byteStride":12},{"buffer":0,"byteOffset":936192,"byteLength":36096,"target":34962,"byteStride":8},{"buffer":0,"byteOffset":972288,"byteLength":13248,"target":34963},{"buffer":0,"byteOffset":985536,"byteLength":54144,"target":34962,"byteStride":12},{"buffer":0,"byteOffset":1039680,"byteLength":54144,"target":34962,"byteStride":12},{"buffer":0,"byteOffset":1093824,"byteLength":36096,"target":34962,"byteStride":8},{"buffer":0,"byteOffset":1129920,"byteLength":13248,"target":34963},{"buffer":0,"byteOffset":1143168,"byteLength":54144,"target":34962,"byteStride":12},{"buffer":0,"byteOffset":1197312,"byteLength":54144,"target":34962,"byteStride":12},{"buffer":0,"byteOffset":1251456,"byteLength":36096,"target":34962,"byteStride":8},{"buffer":0,"byteOffset":1287552,"byteLength":13248,"target":34963},{"buffer":0,"byteOffset":1300800,"byteLength":5760,"target":34962,"byteStride":12},{"buffer":0,"byteOffset":1306560,"byteLength":5760,"target":34962,"byteStride":12},{"buffer":0,"byteOffset":1312320,"byteLength":3840,"target":34962,"byteStride":8},{"buffer":0,"byteOffset":1316160,"byteLength":1152,"target":34963},{"buffer":0,"byteOffset":1317312,"byteLength":5760,"target":34962,"byteStride":12},{"buffer":0,"byteOffset":1323072,"byteLength":5760,"target":34962,"byteStride":12},{"buffer":0,"byteOffset":1328832,"byteLength":3840,"target":34962,"byteStride":8},{"buffer":0,"byteOffset":1332672,"byteLength":1152,"target":34963},{"buffer":0,"byteOffset":1333824,"byteLength":54144,"target":34962,"byteStride":12},{"buffer":0,"byteOffset":1387968,"byteLength":54144,"target":34962,"byteStride":12},{"buffer":0,"byteOffset":1442112,"byteLength":36096,"target":34962,"byteStride":8},{"buffer":0,"byteOffset":1478208,"byteLength":13248,"target":34963},{"buffer":0,"byteOffset":1491456,"byteLength":54144,"target":34962,"byteStride":12},{"buffer":0,"byteOffset":1545600,"byteLength":54144,"target":34962,"byteStride":12},{"buffer":0,"byteOffset":1599744,"byteLength":36096,"target":34962,"byteStride":8},{"buffer":0,"byteOffset":1635840,"byteLength":13248,"target":34963}],"buffers":[{"byteLength":1649088,"uri":"data:application/octet-stream;base64,"}],"accessors":[{"bufferView":0,"componentType":5126,"count":24,"max":[0.40625,0.09375,0.40625],"min":[-0.40625,0.03125,-0.15625],"type":"VEC3"},{"bufferView":1,"componentType":5126,"count":24,"max":[1,1,1],"min":[-1,-1,-1],"type":"VEC3"},{"bufferView":2,"componentType":5126,"count":24,"max":[0.671875,0.484375],"min":[0.21875,0],"type":"VEC2"},{"bufferView":3,"componentType":5123,"count":36,"max":[23],"min":[0],"type":"SCALAR"},{"bufferView":4,"componentType":5126,"count":24,"max":[0.34375,0.28125,0.40625],"min":[-0.34375,0.09375,0.34375],"type":"VEC3"},{"bufferView":5,"componentType":5126,"count":24,"max":[1,1,1],"min":[-1,-1,-1],"type":"VEC3"},{"bufferView":6,"componentType":5126,"count":24,"max":[0.71875,0.59375],"min":[0,0],"type":"VEC2"},{"bufferView":7,"componentType":5123,"count":36,"max":[23],"min":[0],"type":"SCALAR"},{"bufferView":8,"componentType":5126,"count":24,"max":[0.40625,0.59375,0.40625],"min":[0.34375,0.03125,-0.15625],"type":"VEC3"},{"bufferView":9,"componentType":5126,"count":24,"max":[1,1,1],"min":[-1,-1,-1],"type":"VEC3"},{"bufferView":10,"componentType":5126,"count":24,"max":[0.578125,0.671875],"min":[0.15625,0.15625],"type":"VEC2"},{"bufferView":11,"componentType":5123,"count":36,"max":[23],"min":[0],"type":"SCALAR"},{"bufferView":12,"componentType":5126,"count":24,"max":[-0.34375,0.59375,0.40625],"min":[-0.40625,0.03125,-0.15625],"type":"VEC3"},{"bufferView":13,"componentType":5126,"count":24,"max":[1,1,1],"min":[-1,-1,-1],"type":"VEC3"},{"bufferView":14,"componentType":5126,"count":24,"max":[0.578125,0.671875],"min":[0,0],"type":"VEC2"},{"bufferView":15,"componentType":5123,"count":36,"max":[23],"min":[0],"type":"SCALAR"},{"bufferView":16,"componentType":5126,"count":24,"max":[0.40625,0.59375,0.40625],"min":[-0.40625,0.53125,-0.15625],"type":"VEC3"},{"bufferView":17,"componentType":5126,"count":24,"max":[1,1,1],"min":[-1,-1,-1],"type":"VEC3"},{"bufferView":18,"componentType":5126,"count":24,"max":[0.640625,0.515625],"min":[0,0],"type":"VEC2"},{"bufferView":19,"componentType":5123,"count":36,"max":[23],"min":[0],"type":"SCALAR"},{"bufferView":20,"componentType":5126,"count":24,"max":[0.40625,0.34375,0.40625],"min":[-0.40625,0.28125,-0.15625],"type":"VEC3"},{"bufferView":21,"componentType":5126,"count":24,"max":[1,1,1],"min":[-1,-1,-1],"type":"VEC3"},{"bufferView":22,"componentType":5126,"count":24,"max":[0.640625,0.515625],"min":[0,0],"type":"VEC2"},{"bufferView":23,"componentType":5123,"count":36,"max":[23],"min":[0],"type":"SCALAR"},{"bufferView":24,"componentType":5126,"count":24,"max":[0.34375,0.53125,0.40625],"min":[-0.34375,0.34375,0.34375],"type":"VEC3"},{"bufferView":25,"componentType":5126,"count":24,"max":[1,1,1],"min":[-1,-1,-1],"type":"VEC3"},{"bufferView":26,"componentType":5126,"count":24,"max":[0.71875,0.59375],"min":[0,0],"type":"VEC2"},{"bufferView":27,"componentType":5123,"count":36,"max":[23],"min":[0],"type":"SCALAR"},{"bufferView":28,"componentType":5126,"count":24,"max":[0.40625,0.53125,-0.09375],"min":[-0.40625,0.09375,-0.15625],"type":"VEC3"},{"bufferView":29,"componentType":5126,"count":24,"max":[1,1,1],"min":[-1,-1,-1],"type":"VEC3"},{"bufferView":30,"componentType":5126,"count":24,"max":[0.84375,0.59375],"min":[0,0],"type":"VEC2"},{"bufferView":31,"componentType":5123,"count":36,"max":[23],"min":[0],"type":"SCALAR"},{"bufferView":32,"componentType":5126,"count":4512,"max":[0.03125,0.21875,0.46875],"min":[-0.03125,0.15625,0.40625],"type":"VEC3"},{"bufferView":33,"componentType":5126,"count":4512,"max":[0.9978589415550232,0.9978589415550232,0.9978589415550232],"min":[-0.9978589415550232,-0.9978589415550232,-0.9978589415550232],"type":"VEC3"},{"bufferView":34,"componentType":5126,"count":4512,"max":[0.59375,0.65625],"min":[0.023174133151769638,0.13172340393066406],"type":"VEC2"},{"bufferView":35,"componentType":5123,"count":6624,"max":[4511],"min":[0],"type":"SCALAR"},{"bufferView":36,"componentType":5126,"count":4512,"max":[0.03125,0.46875,0.46875],"min":[-0.03125,0.40625,0.40625],"type":"VEC3"},{"bufferView":37,"componentType":5126,"count":4512,"max":[0.9978589415550232,0.9978589415550232,0.9978589415550232],"min":[-0.9978589415550232,-0.9978589415550232,-0.9978589415550232],"type":"VEC3"},{"bufferView":38,"componentType":5126,"count":4512,"max":[0.59375,0.59375],"min":[0.002316352678462863,0.125],"type":"VEC2"},{"bufferView":39,"componentType":5123,"count":6624,"max":[4511],"min":[0],"type":"SCALAR"},{"bufferView":40,"componentType":5126,"count":4512,"max":[0.375,0.0625,0.375],"min":[0.25,-0.0625,0.25],"type":"VEC3"},{"bufferView":41,"componentType":5126,"count":4512,"max":[0.9978589415550232,0.9978589415550232,0.9978589415550232],"min":[-0.9978589415550232,-0.9978589415550232,-0.9978589415550232],"type":"VEC3"},{"bufferView":42,"componentType":5126,"count":4512,"max":[0.765625,0.7677940726280212],"min":[0.07285396754741669,0],"type":"VEC2"},{"bufferView":43,"componentType":5123,"count":6624,"max":[4511],"min":[0],"type":"SCALAR"},{"bufferView":44,"componentType":5126,"count":480,"max":[0.34375,0,0.34375],"min":[0.28125,-0.125,0.28125],"type":"VEC3"},{"bufferView":45,"componentType":5126,"count":480,"max":[1,1,1],"min":[-1,-1,-1],"type":"VEC3"},{"bufferView":46,"componentType":5126,"count":480,"max":[0.6875,0.6875],"min":[0.03240624815225601,0.3125],"type":"VEC2"},{"bufferView":47,"componentType":5123,"count":576,"max":[479],"min":[0],"type":"SCALAR"},{"bufferView":48,"componentType":5126,"count":4512,"max":[0.34375,-0.09375,0.34375],"min":[0.28125,-0.15625,0.28125],"type":"VEC3"},{"bufferView":49,"componentType":5126,"count":4512,"max":[0.9978589415550232,0.9978589415550232,0.9978589415550232],"min":[-0.9978589415550232,-0.9978589415550232,-0.9978589415550232],"type":"VEC3"},{"bufferView":50,"componentType":5126,"count":4512,"max":[0.765625,0.7552774548530579],"min":[0.03291593864560127,0.15625],"type":"VEC2"},{"bufferView":51,"componentType":5123,"count":6624,"max":[4511],"min":[0],"type":"SCALAR"},{"bufferView":52,"componentType":5126,"count":480,"max":[0.34375,0,0.34375],"min":[0.28125,-0.125,0.28125],"type":"VEC3"},{"bufferView":53,"componentType":5126,"count":480,"max":[1,1,1],"min":[-1,-1,-1],"type":"VEC3"},{"bufferView":54,"componentType":5126,"count":480,"max":[0.703125,0.703125],"min":[0.03125,0],"type":"VEC2"},{"bufferView":55,"componentType":5123,"count":576,"max":[479],"min":[0],"type":"SCALAR"},{"bufferView":56,"componentType":5126,"count":4512,"max":[0.34375,-0.09375,0.34375],"min":[0.28125,-0.15625,0.28125],"type":"VEC3"},{"bufferView":57,"componentType":5126,"count":4512,"max":[0.9978589415550232,0.9978589415550232,0.9978589415550232],"min":[-0.9978589415550232,-0.9978589415550232,-0.9978589415550232],"type":"VEC3"},{"bufferView":58,"componentType":5126,"count":4512,"max":[0.7540375590324402,0.755279541015625],"min":[0.09584193676710129,0.07235044240951538],"type":"VEC2"},{"bufferView":59,"componentType":5123,"count":6624,"max":[4511],"min":[0],"type":"SCALAR"},{"bufferView":60,"componentType":5126,"count":4512,"max":[0.375,0.0625,0.375],"min":[0.25,-0.0625,0.25],"type":"VEC3"},{"bufferView":61,"componentType":5126,"count":4512,"max":[0.9978589415550232,0.9978589415550232,0.9978589415550232],"min":[-0.9978589415550232,-0.9978589415550232,-0.9978589415550232],"type":"VEC3"},{"bufferView":62,"componentType":5126,"count":4512,"max":[0.78125,0.765625],"min":[0.01035397406667471,0.03125],"type":"VEC2"},{"bufferView":63,"componentType":5123,"count":6624,"max":[4511],"min":[0],"type":"SCALAR"},{"bufferView":64,"componentType":5126,"count":4512,"max":[0.375,0.0625,0.375],"min":[0.25,-0.0625,0.25],"type":"VEC3"},{"bufferView":65,"componentType":5126,"count":4512,"max":[0.9978589415550232,0.9978589415550232,0.9978589415550232],"min":[-0.9978589415550232,-0.9978589415550232,-0.9978589415550232],"type":"VEC3"},{"bufferView":66,"componentType":5126,"count":4512,"max":[0.78125,0.7677925825119019],"min":[0.125,0.011163115501403809],"type":"VEC2"},{"bufferView":67,"componentType":5123,"count":6624,"max":[4511],"min":[0],"type":"SCALAR"},{"bufferView":68,"componentType":5126,"count":4512,"max":[0.34375,-0.09375,0.34375],"min":[0.28125,-0.15625,0.28125],"type":"VEC3"},{"bufferView":69,"componentType":5126,"count":4512,"max":[0.9978589415550232,0.9978589415550232,0.9978589415550232],"min":[-0.9978589415550232,-0.9978589415550232,-0.9978589415550232],"type":"VEC3"},{"bufferView":70,"componentType":5126,"count":4512,"max":[0.765625,0.7552774548530579],"min":[0.0016659391112625599,0.09375],"type":"VEC2"},{"bufferView":71,"componentType":5123,"count":6624,"max":[4511],"min":[0],"type":"SCALAR"},{"bufferView":72,"componentType":5126,"count":480,"max":[0.34375,0,0.34375],"min":[0.28125,-0.125,0.28125],"type":"VEC3"},{"bufferView":73,"componentType":5126,"count":480,"max":[1,1,1],"min":[-1,-1,-1],"type":"VEC3"},{"bufferView":74,"componentType":5126,"count":480,"max":[0.703125,0.6875],"min":[0.06365624815225601,0.15625],"type":"VEC2"},{"bufferView":75,"componentType":5123,"count":576,"max":[479],"min":[0],"type":"SCALAR"},{"bufferView":76,"componentType":5126,"count":480,"max":[0.34375,0,0.34375],"min":[0.28125,-0.125,0.28125],"type":"VEC3"},{"bufferView":77,"componentType":5126,"count":480,"max":[1,1,1],"min":[-1,-1,-1],"type":"VEC3"},{"bufferView":78,"componentType":5126,"count":480,"max":[0.703125,0.6875],"min":[0.06365624815225601,0.15625],"type":"VEC2"},{"bufferView":79,"componentType":5123,"count":576,"max":[479],"min":[0],"type":"SCALAR"},{"bufferView":80,"componentType":5126,"count":4512,"max":[0.34375,-0.09375,0.34375],"min":[0.28125,-0.15625,0.28125],"type":"VEC3"},{"bufferView":81,"componentType":5126,"count":4512,"max":[0.9978589415550232,0.9978589415550232,0.9978589415550232],"min":[-0.9978589415550232,-0.9978589415550232,-0.9978589415550232],"type":"VEC3"},{"bufferView":82,"componentType":5126,"count":4512,"max":[0.765625,0.7552774548530579],"min":[0.0016659391112625599,0.09375],"type":"VEC2"},{"bufferView":83,"componentType":5123,"count":6624,"max":[4511],"min":[0],"type":"SCALAR"},{"bufferView":84,"componentType":5126,"count":4512,"max":[0.375,0.0625,0.375],"min":[0.25,-0.0625,0.25],"type":"VEC3"},{"bufferView":85,"componentType":5126,"count":4512,"max":[0.9978589415550232,0.9978589415550232,0.9978589415550232],"min":[-0.9978589415550232,-0.9978589415550232,-0.9978589415550232],"type":"VEC3"},{"bufferView":86,"componentType":5126,"count":4512,"max":[0.78125,0.7677925825119019],"min":[0.125,0.011163115501403809],"type":"VEC2"},{"bufferView":87,"componentType":5123,"count":6624,"max":[4511],"min":[0],"type":"SCALAR"}],"materials":[{"pbrMetallicRoughness":{"metallicFactor":0,"roughnessFactor":1,"baseColorTexture":{"index":0}},"alphaMode":"MASK","alphaCutoff":0.05,"doubleSided":true},{"pbrMetallicRoughness":{"metallicFactor":0,"roughnessFactor":1,"baseColorTexture":{"index":1}},"alphaMode":"MASK","alphaCutoff":0.05,"doubleSided":true},{"pbrMetallicRoughness":{"metallicFactor":0,"roughnessFactor":1,"baseColorTexture":{"index":2}},"alphaMode":"MASK","alphaCutoff":0.05,"doubleSided":true}],"textures":[{"sampler":0,"source":0,"name":"texture"},{"sampler":1,"source":1,"name":"texture"},{"sampler":2,"source":2,"name":"texture"}],"samplers":[{"magFilter":9728,"minFilter":9728,"wrapS":33071,"wrapT":33071},{"magFilter":9728,"minFilter":9728,"wrapS":33071,"wrapT":33071},{"magFilter":9728,"minFilter":9728,"wrapS":33071,"wrapT":33071}],"images":[{"mimeType":"image/png","uri":"data:image/png;base64,"},{"mimeType":"image/png","uri":"data:image/png;base64,"},{"mimeType":"image/png","uri":"data:image/png;base64,"}],"meshes":[{"primitives":[{"mode":4,"attributes":{"POSITION":0,"NORMAL":1,"TEXCOORD_0":2},"indices":3,"material":0}]},{"primitives":[{"mode":4,"attributes":{"POSITION":4,"NORMAL":5,"TEXCOORD_0":6},"indices":7,"material":1}]},{"primitives":[{"mode":4,"attributes":{"POSITION":8,"NORMAL":9,"TEXCOORD_0":10},"indices":11,"material":0}]},{"primitives":[{"mode":4,"attributes":{"POSITION":12,"NORMAL":13,"TEXCOORD_0":14},"indices":15,"material":0}]},{"primitives":[{"mode":4,"attributes":{"POSITION":16,"NORMAL":17,"TEXCOORD_0":18},"indices":19,"material":0}]},{"primitives":[{"mode":4,"attributes":{"POSITION":20,"NORMAL":21,"TEXCOORD_0":22},"indices":23,"material":0}]},{"primitives":[{"mode":4,"attributes":{"POSITION":24,"NORMAL":25,"TEXCOORD_0":26},"indices":27,"material":1}]},{"primitives":[{"mode":4,"attributes":{"POSITION":28,"NORMAL":29,"TEXCOORD_0":30},"indices":31,"material":2}]},{"primitives":[{"mode":4,"attributes":{"POSITION":32,"NORMAL":33,"TEXCOORD_0":34},"indices":35,"material":2}]},{"primitives":[{"mode":4,"attributes":{"POSITION":36,"NORMAL":37,"TEXCOORD_0":38},"indices":39,"material":2}]},{"primitives":[{"mode":4,"attributes":{"POSITION":40,"NORMAL":41,"TEXCOORD_0":42},"indices":43,"material":0}]},{"primitives":[{"mode":4,"attributes":{"POSITION":44,"NORMAL":45,"TEXCOORD_0":46},"indices":47,"material":0}]},{"primitives":[{"mode":4,"attributes":{"POSITION":48,"NORMAL":49,"TEXCOORD_0":50},"indices":51,"material":0}]},{"primitives":[{"mode":4,"attributes":{"POSITION":52,"NORMAL":53,"TEXCOORD_0":54},"indices":55,"material":0}]},{"primitives":[{"mode":4,"attributes":{"POSITION":56,"NORMAL":57,"TEXCOORD_0":58},"indices":59,"material":0}]},{"primitives":[{"mode":4,"attributes":{"POSITION":60,"NORMAL":61,"TEXCOORD_0":62},"indices":63,"material":0}]},{"primitives":[{"mode":4,"attributes":{"POSITION":64,"NORMAL":65,"TEXCOORD_0":66},"indices":67,"material":0}]},{"primitives":[{"mode":4,"attributes":{"POSITION":68,"NORMAL":69,"TEXCOORD_0":70},"indices":71,"material":0}]},{"primitives":[{"mode":4,"attributes":{"POSITION":72,"NORMAL":73,"TEXCOORD_0":74},"indices":75,"material":0}]},{"primitives":[{"mode":4,"attributes":{"POSITION":76,"NORMAL":77,"TEXCOORD_0":78},"indices":79,"material":0}]},{"primitives":[{"mode":4,"attributes":{"POSITION":80,"NORMAL":81,"TEXCOORD_0":82},"indices":83,"material":0}]},{"primitives":[{"mode":4,"attributes":{"POSITION":84,"NORMAL":85,"TEXCOORD_0":86},"indices":87,"material":0}]}]}