{"asset":{"version":"2.0","generator":"Blockbench 5.0.3 glTF exporter"},"scenes":[{"nodes":[0,1,2,3,4,5],"name":"blockbench_export"}],"scene":0,"nodes":[{"translation":[0,-0.03125,0],"name":"cylinder","mesh":0},{"translation":[0,0.20624999999999996,0],"name":"cylinder","mesh":1},{"translation":[0,0.765625,0],"name":"sphere","mesh":2},{"translation":[0,0.53125,0],"name":"cylinder","mesh":3},{"rotation":[0,0,0.7071067811865475,0.7071067811865476],"translation":[0.25,0.5,-0.375],"name":"beveled_cuboid","mesh":4},{"translation":[0,0.7500000000000007,0],"name":"sphere","mesh":5}],"bufferViews":[{"buffer":0,"byteOffset":0,"byteLength":1440,"target":34962,"byteStride":12},{"buffer":0,"byteOffset":1440,"byteLength":1440,"target":34962,"byteStride":12},{"buffer":0,"byteOffset":2880,"byteLength":960,"target":34962,"byteStride":8},{"buffer":0,"byteOffset":3840,"byteLength":288,"target":34963},{"buffer":0,"byteOffset":4128,"byteLength":1440,"target":34962,"byteStride":12},{"buffer":0,"byteOffset":5568,"byteLength":1440,"target":34962,"byteStride":12},{"buffer":0,"byteOffset":7008,"byteLength":960,"target":34962,"byteStride":8},{"buffer":0,"byteOffset":7968,"byteLength":288,"target":34963},{"buffer":0,"byteOffset":8256,"byteLength":1584,"target":34962,"byteStride":12},{"buffer":0,"byteOffset":9840,"byteLength":1584,"target":34962,"byteStride":12},{"buffer":0,"byteOffset":11424,"byteLength":1056,"target":34962,"byteStride":8},{"buffer":0,"byteOffset":12480,"byteLength":360,"target":34963},{"buffer":0,"byteOffset":12840,"byteLength":576,"target":34962,"byteStride":12},{"buffer":0,"byteOffset":13416,"byteLength":576,"target":34962,"byteStride":12},{"buffer":0,"byteOffset":13992,"byteLength":384,"target":34962,"byteStride":8},{"buffer":0,"byteOffset":14376,"byteLength":144,"target":34963},{"buffer":0,"byteOffset":14520,"byteLength":384,"target":34962,"byteStride":12},{"buffer":0,"byteOffset":14904,"byteLength":384,"target":34962,"byteStride":12},{"buffer":0,"byteOffset":15288,"byteLength":256,"target":34962,"byteStride":8},{"buffer":0,"byteOffset":15544,"byteLength":84,"target":34963},{"buffer":0,"byteOffset":15628,"byteLength":1584,"target":34962,"byteStride":12},{"buffer":0,"byteOffset":17212,"byteLength":1584,"target":34962,"byteStride":12},{"buffer":0,"byteOffset":18796,"byteLength":1056,"target":34962,"byteStride":8},{"buffer":0,"byteOffset":19852,"byteLength":360,"target":34963}],"buffers":[{"byteLength":20212,"uri":"data:application/octet-stream;base64,"}],"accessors":[{"bufferView":0,"componentType":5126,"count":120,"max":[0.0625,0.2874999940395355,0.0625],"min":[-0.0625,0.21250000596046448,-0.0625],"type":"VEC3"},{"bufferView":1,"componentType":5126,"count":120,"max":[1,1,1],"min":[-1,-1,-1],"type":"VEC3"},{"bufferView":2,"componentType":5126,"count":120,"max":[0.03235238790512085,0.03235239163041115],"min":[0,0],"type":"VEC2"},{"bufferView":3,"componentType":5123,"count":144,"max":[119],"min":[0],"type":"SCALAR"},{"bufferView":4,"componentType":5126,"count":120,"max":[0.0625,0.44999998807907104,0.0625],"min":[-0.0625,0.05000000074505806,-0.0625],"type":"VEC3"},{"bufferView":5,"componentType":5126,"count":120,"max":[1,1,1],"min":[-1,-1,-1],"type":"VEC3"},{"bufferView":6,"componentType":5126,"count":120,"max":[0.03235238790512085,0.03235239163041115],"min":[0,0],"type":"VEC2"},{"bufferView":7,"componentType":5123,"count":144,"max":[119],"min":[0],"type":"SCALAR"},{"bufferView":8,"componentType":5126,"count":132,"max":[0.15625,9.567553122231318e-18,0.15625],"min":[-0.15625,-0.15625,-0.15625],"type":"VEC3"},{"bufferView":9,"componentType":5126,"count":132,"max":[0.9659258127212524,-0.258819043636322,0.9659258127212524],"min":[-0.9659258127212524,-0.9659258127212524,-0.9659258127212524],"type":"VEC3"},{"bufferView":10,"componentType":5126,"count":132,"max":[0.016746874898672104,0.016176564618945122],"min":[0,0],"type":"VEC2"},{"bufferView":11,"componentType":5123,"count":180,"max":[131],"min":[0],"type":"SCALAR"},{"bufferView":12,"componentType":5126,"count":48,"max":[0.15625,0.30000001192092896,0.15625],"min":[-0.15625,0.20000000298023224,-0.15625],"type":"VEC3"},{"bufferView":13,"componentType":5126,"count":48,"max":[1,0,1],"min":[-1,0,-1],"type":"VEC3"},{"bufferView":14,"componentType":5126,"count":48,"max":[0.016746874898672104,0.031250014901161194],"min":[0,0],"type":"VEC2"},{"bufferView":15,"componentType":5123,"count":72,"max":[47],"min":[0],"type":"SCALAR"},{"bufferView":16,"componentType":5126,"count":32,"max":[0.05000000074505806,0.26875001192092896,0.4468750059604645],"min":[-0.05000000074505806,0.23125000298023224,0.4281249940395355],"type":"VEC3"},{"bufferView":17,"componentType":5126,"count":32,"max":[0.8320503234863281,0.8944271802902222,1],"min":[-0.8320503234863281,-0.8944271802902222,0.3713906705379486],"type":"VEC3"},{"bufferView":18,"componentType":5126,"count":32,"max":[0.046875,0.015624990686774254],"min":[0,0],"type":"VEC2"},{"bufferView":19,"componentType":5123,"count":42,"max":[31],"min":[0],"type":"SCALAR"},{"bufferView":20,"componentType":5126,"count":132,"max":[0.1395031213760376,0.09375,0.1395031213760376],"min":[-0.1395031213760376,5.740531707902668e-18,-0.1395031213760376],"type":"VEC3"},{"bufferView":21,"componentType":5126,"count":132,"max":[0.9288869500160217,0.984171450138092,0.9288869500160217],"min":[-0.9288869500160217,0.3703633248806,-0.9288869500160217],"type":"VEC3"},{"bufferView":22,"componentType":5126,"count":132,"max":[0.016746874898672104,0.016176577657461166],"min":[0,0],"type":"VEC2"},{"bufferView":23,"componentType":5123,"count":180,"max":[131],"min":[0],"type":"SCALAR"}],"materials":[{"pbrMetallicRoughness":{"metallicFactor":0,"roughnessFactor":1,"baseColorTexture":{"index":0}},"alphaMode":"MASK","alphaCutoff":0.05,"doubleSided":true},{"pbrMetallicRoughness":{"metallicFactor":0,"roughnessFactor":1,"baseColorTexture":{"index":1}},"alphaMode":"MASK","alphaCutoff":0.05,"doubleSided":true},{"pbrMetallicRoughness":{"metallicFactor":0,"roughnessFactor":1,"baseColorTexture":{"index":2}},"alphaMode":"MASK","alphaCutoff":0.05,"doubleSided":true}],"textures":[{"sampler":0,"source":0,"name":"211832.png"},{"sampler":1,"source":1,"name":"f5cb5c.png"},{"sampler":2,"source":2,"name":"branco.png"}],"samplers":[{"magFilter":9728,"minFilter":9728,"wrapS":33071,"wrapT":33071},{"magFilter":9728,"minFilter":9728,"wrapS":33071,"wrapT":33071},{"magFilter":9728,"minFilter":9728,"wrapS":33071,"wrapT":33071}],"images":[{"mimeType":"image/png","uri":"data:image/png;base64,"},{"mimeType":"image/png","uri":"data:image/png;base64,"},{"mimeType":"image/png","uri":"data:image/png;base64,"}],"meshes":[{"primitives":[{"mode":4,"attributes":{"POSITION":0,"NORMAL":1,"TEXCOORD_0":2},"indices":3,"material":0}]},{"primitives":[{"mode":4,"attributes":{"POSITION":4,"NORMAL":5,"TEXCOORD_0":6},"indices":7,"material":1}]},{"primitives":[{"mode":4,"attributes":{"POSITION":8,"NORMAL":9,"TEXCOORD_0":10},"indices":11,"material":1}]},{"primitives":[{"mode":4,"attributes":{"POSITION":12,"NORMAL":13,"TEXCOORD_0":14},"indices":15,"material":0}]},{"primitives":[{"mode":4,"attributes":{"POSITION":16,"NORMAL":17,"TEXCOORD_0":18},"indices":19,"material":0}]},{"primitives":[{"mode":4,"attributes":{"POSITION":20,"NORMAL":21,"TEXCOORD_0":22},"indices":23,"material":2}]}]}