{"accessors":[{"bufferView":0,"componentType":5126,"count":4,"max":[1.0,0.0,1.0],"min":[-1.0,0.0,-1.0],"normalized":false,"type":"VEC3"},{"bufferView":1,"componentType":5126,"count":4,"max":[1.0,0.0,-0.0000152590218931437,1.0],"min":[1.0,0.0,-0.0000152590218931437,1.0],"normalized":false,"type":"VEC4"},{"bufferView":2,"componentType":5126,"count":4,"max":[0.0,1.0,-0.0000152590218931437],"min":[0.0,1.0,-0.0000152590218931437],"normalized":false,"type":"VEC3"},{"bufferView":3,"componentType":5126,"count":4,"max":[1.0,1.0],"min":[0.0,0.0],"normalized":false,"type":"VEC2"},{"bufferView":4,"componentType":5123,"count":6,"max":[3.0],"min":[0.0],"normalized":false,"type":"SCALAR"},{"bufferView":5,"componentType":5126,"count":4,"max":[1.0,0.0,1.0],"min":[-1.0,0.0,-1.0],"normalized":false,"type":"VEC3"},{"bufferView":6,"componentType":5126,"count":4,"max":[1.0,0.0,-0.0000152590218931437,1.0],"min":[1.0,0.0,-0.0000152590218931437,1.0],"normalized":false,"type":"VEC4"},{"bufferView":7,"componentType":5126,"count":4,"max":[0.0,1.0,-0.0000152590218931437],"min":[0.0,1.0,-0.0000152590218931437],"normalized":false,"type":"VEC3"},{"bufferView":8,"componentType":5126,"count":4,"max":[1.0,1.0],"min":[0.0,0.0],"normalized":false,"type":"VEC2"},{"bufferView":9,"componentType":5123,"count":6,"max":[3.0],"min":[0.0],"normalized":false,"type":"SCALAR"},{"bufferView":10,"componentType":5126,"count":4,"max":[1.0,0.0,1.0],"min":[-1.0,0.0,-1.0],"normalized":false,"type":"VEC3"},{"bufferView":11,"componentType":5126,"count":4,"max":[1.0,0.0,-0.0000152590218931437,1.0],"min":[1.0,0.0,-0.0000152590218931437,1.0],"normalized":false,"type":"VEC4"},{"bufferView":12,"componentType":5126,"count":4,"max":[0.0,1.0,-0.0000152590218931437],"min":[0.0,1.0,-0.0000152590218931437],"normalized":false,"type":"VEC3"},{"bufferView":13,"componentType":5126,"count":4,"max":[1.0,1.0],"min":[0.0,0.0],"normalized":false,"type":"VEC2"},{"bufferView":14,"componentType":5123,"count":6,"max":[3.0],"min":[0.0],"normalized":false,"type":"SCALAR"},{"bufferView":15,"componentType":5126,"count":4,"max":[1.0,0.0,1.0],"min":[-1.0,0.0,-1.0],"normalized":false,"type":"VEC3"},{"bufferView":16,"componentType":5126,"count":4,"max":[1.0,0.0,-0.0000152590218931437,1.0],"min":[1.0,0.0,-0.0000152590218931437,1.0],"normalized":false,"type":"VEC4"},{"bufferView":17,"componentType":5126,"count":4,"max":[0.0,1.0,-0.0000152590218931437],"min":[0.0,1.0,-0.0000152590218931437],"normalized":false,"type":"VEC3"},{"bufferView":18,"componentType":5126,"count":4,"max":[1.0,1.0],"min":[0.0,0.0],"normalized":false,"type":"VEC2"},{"bufferView":19,"componentType":5123,"count":6,"max":[3.0],"min":[0.0],"normalized":false,"type":"SCALAR"},{"bufferView":20,"componentType":5126,"count":8,"max":[0.0625,1.125,0.0625],"min":[-0.0625,-0.625,-0.0625],"normalized":false,"type":"VEC3"},{"bufferView":21,"componentType":5126,"count":8,"max":[0.0000239173550653504,0.0000152590218931437,1.0,1.0],"min":[0.0000239173550653504,0.0000152590218931437,-1.0,1.0],"normalized":false,"type":"VEC4"},{"bufferView":22,"componentType":5126,"count":8,"max":[1.0,0.0000152586571857682,0.0000239175878959941],"min":[-1.0,-0.0000152586571857682,0.0000239175878959941],"normalized":false,"type":"VEC3"},{"bufferView":23,"componentType":5126,"count":8,"max":[0.0624856948852539,0.0312352180480957],"min":[0.0,0.0],"normalized":false,"type":"VEC2"},{"bufferView":24,"componentType":5123,"count":12,"max":[7.0],"min":[0.0],"normalized":false,"type":"SCALAR"},{"bufferView":25,"componentType":5126,"count":4,"max":[0.0625,1.125,0.0625],"min":[-0.0625,1.125,-0.0625],"normalized":false,"type":"VEC3"},{"bufferView":26,"componentType":5126,"count":4,"max":[1.0,0.0000152590218931437,-0.0000152586571857682,1.0],"min":[1.0,0.0000152590218931437,-0.0000152586571857682,1.0],"normalized":false,"type":"VEC4"},{"bufferView":27,"componentType":5126,"count":4,"max":[-0.0000152586571857682,1.0,0.0000239175878959941],"min":[-0.0000152586571857682,1.0,0.0000239175878959941],"normalized":false,"type":"VEC3"},{"bufferView":28,"componentType":5126,"count":4,"max":[0.890623331069946,0.617181658744812],"min":[0.0,0.0],"normalized":false,"type":"VEC2"},{"bufferView":29,"componentType":5123,"count":6,"max":[3.0],"min":[0.0],"normalized":false,"type":"SCALAR"},{"bufferView":30,"componentType":5126,"count":12,"max":[0.0625,1.125,0.0625],"min":[-0.0625,-0.625,-0.0625],"normalized":false,"type":"VEC3"},{"bufferView":31,"componentType":5126,"count":12,"max":[1.0,0.993430197238922,0.000047936900955392,1.0],"min":[-1.0,-0.00000000000133398608999358,-0.0000000874227765734759,1.0],"normalized":false,"type":"VEC4"},{"bufferView":32,"componentType":5126,"count":12,"max":[0.0000152586571857682,0.0,1.0],"min":[-0.000047936900955392,-1.0,-1.0],"normalized":false,"type":"VEC3"},{"bufferView":33,"componentType":5126,"count":12,"max":[0.070160984992981,0.101258866488934],"min":[0.0,0.0],"normalized":false,"type":"VEC2"},{"bufferView":34,"componentType":5123,"count":18,"max":[11.0],"min":[0.0],"normalized":false,"type":"SCALAR"},{"bufferView":35,"componentType":5126,"count":8,"max":[0.0625,1.125,0.0625],"min":[-0.0625,-0.625,-0.0625],"normalized":false,"type":"VEC3"},{"bufferView":36,"componentType":5126,"count":8,"max":[0.0000239173550653504,0.0000152590218931437,1.0,1.0],"min":[0.0000239173550653504,0.0000152590218931437,-1.0,1.0],"normalized":false,"type":"VEC4"},{"bufferView":37,"componentType":5126,"count":8,"max":[1.0,0.0000152586571857682,0.0000239175878959941],"min":[-1.0,-0.0000152586571857682,0.0000239175878959941],"normalized":false,"type":"VEC3"},{"bufferView":38,"componentType":5126,"count":8,"max":[0.0624856948852539,0.0312352180480957],"min":[0.0,0.0],"normalized":false,"type":"VEC2"},{"bufferView":39,"componentType":5123,"count":12,"max":[7.0],"min":[0.0],"normalized":false,"type":"SCALAR"},{"bufferView":40,"componentType":5126,"count":4,"max":[0.0625,1.125,0.0625],"min":[-0.0625,1.125,-0.0625],"normalized":false,"type":"VEC3"},{"bufferView":41,"componentType":5126,"count":4,"max":[1.0,0.0000152590218931437,-0.0000152586571857682,1.0],"min":[1.0,0.0000152590218931437,-0.0000152586571857682,1.0],"normalized":false,"type":"VEC4"},{"bufferView":42,"componentType":5126,"count":4,"max":[-0.0000152586571857682,1.0,0.0000239175878959941],"min":[-0.0000152586571857682,1.0,0.0000239175878959941],"normalized":false,"type":"VEC3"},{"bufferView":43,"componentType":5126,"count":4,"max":[0.890623331069946,0.617181658744812],"min":[0.0,0.0],"normalized":false,"type":"VEC2"},{"bufferView":44,"componentType":5123,"count":6,"max":[3.0],"min":[0.0],"normalized":false,"type":"SCALAR"},{"bufferView":45,"componentType":5126,"count":12,"max":[0.0625,1.125,0.0625],"min":[-0.0625,-0.625,-0.0625],"normalized":false,"type":"VEC3"},{"bufferView":46,"componentType":5126,"count":12,"max":[1.0,0.993430197238922,0.000047936900955392,1.0],"min":[-1.0,-0.00000000000133398608999358,-0.0000000874227765734759,1.0],"normalized":false,"type":"VEC4"},{"bufferView":47,"componentType":5126,"count":12,"max":[0.0000152586571857682,0.0,1.0],"min":[-0.000047936900955392,-1.0,-1.0],"normalized":false,"type":"VEC3"},{"bufferView":48,"componentType":5126,"count":12,"max":[0.070160984992981,0.101258866488934],"min":[0.0,0.0],"normalized":false,"type":"VEC2"},{"bufferView":49,"componentType":5123,"count":18,"max":[11.0],"min":[0.0],"normalized":false,"type":"SCALAR"},{"bufferView":50,"componentType":5126,"count":8,"max":[0.0625,1.125,0.0625],"min":[-0.0625,-0.625,-0.0625],"normalized":false,"type":"VEC3"},{"bufferView":51,"componentType":5126,"count":8,"max":[0.0000239173550653504,0.0000152590218931437,1.0,1.0],"min":[0.0000239173550653504,0.0000152590218931437,-1.0,1.0],"normalized":false,"type":"VEC4"},{"bufferView":52,"componentType":5126,"count":8,"max":[1.0,0.0000152586571857682,0.0000239175878959941],"min":[-1.0,-0.0000152586571857682,0.0000239175878959941],"normalized":false,"type":"VEC3"},{"bufferView":53,"componentType":5126,"count":8,"max":[0.0624856948852539,0.0312352180480957],"min":[0.0,0.0],"normalized":false,"type":"VEC2"},{"bufferView":54,"componentType":5123,"count":12,"max":[7.0],"min":[0.0],"normalized":false,"type":"SCALAR"},{"bufferView":55,"componentType":5126,"count":4,"max":[0.0625,1.125,0.0625],"min":[-0.0625,1.125,-0.0625],"normalized":false,"type":"VEC3"},{"bufferView":56,"componentType":5126,"count":4,"max":[1.0,0.0000152590218931437,-0.0000152586571857682,1.0],"min":[1.0,0.0000152590218931437,-0.0000152586571857682,1.0],"normalized":false,"type":"VEC4"},{"bufferView":57,"componentType":5126,"count":4,"max":[-0.0000152586571857682,1.0,0.0000239175878959941],"min":[-0.0000152586571857682,1.0,0.0000239175878959941],"normalized":false,"type":"VEC3"},{"bufferView":58,"componentType":5126,"count":4,"max":[0.890623331069946,0.617181658744812],"min":[0.0,0.0],"normalized":false,"type":"VEC2"},{"bufferView":59,"componentType":5123,"count":6,"max":[3.0],"min":[0.0],"normalized":false,"type":"SCALAR"},{"bufferView":60,"componentType":5126,"count":12,"max":[0.0625,1.125,0.0625],"min":[-0.0625,-0.625,-0.0625],"normalized":false,"type":"VEC3"},{"bufferView":61,"componentType":5126,"count":12,"max":[1.0,0.993430197238922,0.000047936900955392,1.0],"min":[-1.0,-0.00000000000133398608999358,-0.0000000874227765734759,1.0],"normalized":false,"type":"VEC4"},{"bufferView":62,"componentType":5126,"count":12,"max":[0.0000152586571857682,0.0,1.0],"min":[-0.000047936900955392,-1.0,-1.0],"normalized":false,"type":"VEC3"},{"bufferView":63,"componentType":5126,"count":12,"max":[0.070160984992981,0.101258866488934],"min":[0.0,0.0],"normalized":false,"type":"VEC2"},{"bufferView":64,"componentType":5123,"count":18,"max":[11.0],"min":[0.0],"normalized":false,"type":"SCALAR"},{"bufferView":65,"componentType":5126,"count":24,"max":[0.75,0.265625,0.0625],"min":[-0.75,0.234375,-0.0625],"normalized":false,"type":"VEC3"},{"bufferView":66,"componentType":5126,"count":24,"max":[1.0,0.0000152590218931437,1.0,1.0],"min":[-1.0,-0.00000000000133398608999358,-1.0,1.0],"normalized":false,"type":"VEC4"},{"bufferView":67,"componentType":5126,"count":24,"max":[1.0,1.0,1.0],"min":[-1.0,-1.0,-1.0],"normalized":false,"type":"VEC3"},{"bufferView":68,"componentType":5126,"count":24,"max":[0.0624856948852539,0.0624856948852539],"min":[0.0,0.0],"normalized":false,"type":"VEC2"},{"bufferView":69,"componentType":5123,"count":36,"max":[23.0],"min":[0.0],"normalized":false,"type":"SCALAR"},{"bufferView":70,"componentType":5126,"count":24,"max":[0.8125,0.3125,0.0625],"min":[-0.8125,0.1875,-0.0625],"normalized":false,"type":"VEC3"},{"bufferView":71,"componentType":5126,"count":24,"max":[1.0,0.0000152590218931437,1.0,1.0],"min":[-1.0,-0.00000000000133398608999358,-1.0,1.0],"normalized":false,"type":"VEC4"},{"bufferView":72,"componentType":5126,"count":24,"max":[1.0,1.0,1.0],"min":[-1.0,-1.0,-1.0],"normalized":false,"type":"VEC3"},{"bufferView":73,"componentType":5126,"count":24,"max":[0.0624856948852539,0.0624856948852539],"min":[0.0,0.0],"normalized":false,"type":"VEC2"},{"bufferView":74,"componentType":5123,"count":36,"max":[23.0],"min":[0.0],"normalized":false,"type":"SCALAR"},{"bufferView":75,"componentType":5126,"count":24,"max":[0.75,0.3125,0.0625],"min":[-0.75,0.1875,-0.0625],"normalized":false,"type":"VEC3"},{"bufferView":76,"componentType":5126,"count":24,"max":[1.0,0.0000152590218931437,1.0,1.0],"min":[-1.0,-0.00000000000133398608999358,-1.0,1.0],"normalized":false,"type":"VEC4"},{"bufferView":77,"componentType":5126,"count":24,"max":[1.0,1.0,1.0],"min":[-1.0,-1.0,-1.0],"normalized":false,"type":"VEC3"},{"bufferView":78,"componentType":5126,"count":24,"max":[0.0624856948852539,0.0624856948852539],"min":[0.0,0.0],"normalized":false,"type":"VEC2"},{"bufferView":79,"componentType":5123,"count":36,"max":[23.0],"min":[0.0],"normalized":false,"type":"SCALAR"}],"asset":{"generator":"Godot Engine v4.5.1.stable.steam@f62fdbde15035c5576dad93e586201f4d41ef0cb","version":"2.0"},"bufferViews":[{"buffer":0,"byteLength":48,"byteStride":12,"target":34962},{"buffer":0,"byteLength":64,"byteOffset":48,"byteStride":16,"target":34962},{"buffer":0,"byteLength":48,"byteOffset":112,"byteStride":12,"target":34962},{"buffer":0,"byteLength":32,"byteOffset":160,"byteStride":8,"target":34962},{"buffer":0,"byteLength":12,"byteOffset":192,"target":34963},{"buffer":0,"byteLength":48,"byteOffset":204,"byteStride":12,"target":34962},{"buffer":0,"byteLength":64,"byteOffset":252,"byteStride":16,"target":34962},{"buffer":0,"byteLength":48,"byteOffset":316,"byteStride":12,"target":34962},{"buffer":0,"byteLength":32,"byteOffset":364,"byteStride":8,"target":34962},{"buffer":0,"byteLength":12,"byteOffset":396,"target":34963},{"buffer":0,"byteLength":48,"byteOffset":408,"byteStride":12,"target":34962},{"buffer":0,"byteLength":64,"byteOffset":456,"byteStride":16,"target":34962},{"buffer":0,"byteLength":48,"byteOffset":520,"byteStride":12,"target":34962},{"buffer":0,"byteLength":32,"byteOffset":568,"byteStride":8,"target":34962},{"buffer":0,"byteLength":12,"byteOffset":600,"target":34963},{"buffer":0,"byteLength":48,"byteOffset":612,"byteStride":12,"target":34962},{"buffer":0,"byteLength":64,"byteOffset":660,"byteStride":16,"target":34962},{"buffer":0,"byteLength":48,"byteOffset":724,"byteStride":12,"target":34962},{"buffer":0,"byteLength":32,"byteOffset":772,"byteStride":8,"target":34962},{"buffer":0,"byteLength":12,"byteOffset":804,"target":34963},{"buffer":0,"byteLength":96,"byteOffset":816,"byteStride":12,"target":34962},{"buffer":0,"byteLength":128,"byteOffset":912,"byteStride":16,"target":34962},{"buffer":0,"byteLength":96,"byteOffset":1040,"byteStride":12,"target":34962},{"buffer":0,"byteLength":64,"byteOffset":1136,"byteStride":8,"target":34962},{"buffer":0,"byteLength":24,"byteOffset":1200,"target":34963},{"buffer":0,"byteLength":48,"byteOffset":1224,"byteStride":12,"target":34962},{"buffer":0,"byteLength":64,"byteOffset":1272,"byteStride":16,"target":34962},{"buffer":0,"byteLength":48,"byteOffset":1336,"byteStride":12,"target":34962},{"buffer":0,"byteLength":32,"byteOffset":1384,"byteStride":8,"target":34962},{"buffer":0,"byteLength":12,"byteOffset":1416,"target":34963},{"buffer":0,"byteLength":144,"byteOffset":1428,"byteStride":12,"target":34962},{"buffer":0,"byteLength":192,"byteOffset":1572,"byteStride":16,"target":34962},{"buffer":0,"byteLength":144,"byteOffset":1764,"byteStride":12,"target":34962},{"buffer":0,"byteLength":96,"byteOffset":1908,"byteStride":8,"target":34962},{"buffer":0,"byteLength":36,"byteOffset":2004,"target":34963},{"buffer":0,"byteLength":96,"byteOffset":2040,"byteStride":12,"target":34962},{"buffer":0,"byteLength":128,"byteOffset":2136,"byteStride":16,"target":34962},{"buffer":0,"byteLength":96,"byteOffset":2264,"byteStride":12,"target":34962},{"buffer":0,"byteLength":64,"byteOffset":2360,"byteStride":8,"target":34962},{"buffer":0,"byteLength":24,"byteOffset":2424,"target":34963},{"buffer":0,"byteLength":48,"byteOffset":2448,"byteStride":12,"target":34962},{"buffer":0,"byteLength":64,"byteOffset":2496,"byteStride":16,"target":34962},{"buffer":0,"byteLength":48,"byteOffset":2560,"byteStride":12,"target":34962},{"buffer":0,"byteLength":32,"byteOffset":2608,"byteStride":8,"target":34962},{"buffer":0,"byteLength":12,"byteOffset":2640,"target":34963},{"buffer":0,"byteLength":144,"byteOffset":2652,"byteStride":12,"target":34962},{"buffer":0,"byteLength":192,"byteOffset":2796,"byteStride":16,"target":34962},{"buffer":0,"byteLength":144,"byteOffset":2988,"byteStride":12,"target":34962},{"buffer":0,"byteLength":96,"byteOffset":3132,"byteStride":8,"target":34962},{"buffer":0,"byteLength":36,"byteOffset":3228,"target":34963},{"buffer":0,"byteLength":96,"byteOffset":3264,"byteStride":12,"target":34962},{"buffer":0,"byteLength":128,"byteOffset":3360,"byteStride":16,"target":34962},{"buffer":0,"byteLength":96,"byteOffset":3488,"byteStride":12,"target":34962},{"buffer":0,"byteLength":64,"byteOffset":3584,"byteStride":8,"target":34962},{"buffer":0,"byteLength":24,"byteOffset":3648,"target":34963},{"buffer":0,"byteLength":48,"byteOffset":3672,"byteStride":12,"target":34962},{"buffer":0,"byteLength":64,"byteOffset":3720,"byteStride":16,"target":34962},{"buffer":0,"byteLength":48,"byteOffset":3784,"byteStride":12,"target":34962},{"buffer":0,"byteLength":32,"byteOffset":3832,"byteStride":8,"target":34962},{"buffer":0,"byteLength":12,"byteOffset":3864,"target":34963},{"buffer":0,"byteLength":144,"byteOffset":3876,"byteStride":12,"target":34962},{"buffer":0,"byteLength":192,"byteOffset":4020,"byteStride":16,"target":34962},{"buffer":0,"byteLength":144,"byteOffset":4212,"byteStride":12,"target":34962},{"buffer":0,"byteLength":96,"byteOffset":4356,"byteStride":8,"target":34962},{"buffer":0,"byteLength":36,"byteOffset":4452,"target":34963},{"buffer":0,"byteLength":288,"byteOffset":4488,"byteStride":12,"target":34962},{"buffer":0,"byteLength":384,"byteOffset":4776,"byteStride":16,"target":34962},{"buffer":0,"byteLength":288,"byteOffset":5160,"byteStride":12,"target":34962},{"buffer":0,"byteLength":192,"byteOffset":5448,"byteStride":8,"target":34962},{"buffer":0,"byteLength":72,"byteOffset":5640,"target":34963},{"buffer":0,"byteLength":288,"byteOffset":5712,"byteStride":12,"target":34962},{"buffer":0,"byteLength":384,"byteOffset":6000,"byteStride":16,"target":34962},{"buffer":0,"byteLength":288,"byteOffset":6384,"byteStride":12,"target":34962},{"buffer":0,"byteLength":192,"byteOffset":6672,"byteStride":8,"target":34962},{"buffer":0,"byteLength":72,"byteOffset":6864,"target":34963},{"buffer":0,"byteLength":288,"byteOffset":6936,"byteStride":12,"target":34962},{"buffer":0,"byteLength":384,"byteOffset":7224,"byteStride":16,"target":34962},{"buffer":0,"byteLength":288,"byteOffset":7608,"byteStride":12,"target":34962},{"buffer":0,"byteLength":192,"byteOffset":7896,"byteStride":8,"target":34962},{"buffer":0,"byteLength":72,"byteOffset":8088,"target":34963}],"buffers":[{"byteLength":8160,"uri":"janela_modelo20.bin"}],"extensionsUsed":["GODOT_single_root"],"images":[{"uri":"textures%2Fmaterial_0_albedo.png"}],"materials":[{"alphaMode":"BLEND","doubleSided":true,"extensions":{},"pbrMetallicRoughness":{"baseColorFactor":[0.122138775885105,0.254152089357376,0.921581923961639,0.317647069692612],"metallicFactor":0.0,"roughnessFactor":1.0}},{"alphaCutoff":0.0500000007450581,"alphaMode":"MASK","doubleSided":true,"extensions":{},"name":"material_0","pbrMetallicRoughness":{"baseColorFactor":[1.0,1.0,1.0,1.0],"baseColorTexture":{"index":0},"metallicFactor":0.0,"roughnessFactor":1.0}},{"alphaCutoff":0.0500000007450581,"alphaMode":"MASK","doubleSided":true,"extensions":{},"name":"material_1","pbrMetallicRoughness":{"baseColorFactor":[1.0,1.0,1.0,1.0],"metallicFactor":0.0,"roughnessFactor":1.0}}],"meshes":[{"primitives":[{"attributes":{"NORMAL":2,"POSITION":0,"TANGENT":1,"TEXCOORD_0":3},"indices":4,"material":0,"mode":4}]},{"primitives":[{"attributes":{"NORMAL":7,"POSITION":5,"TANGENT":6,"TEXCOORD_0":8},"indices":9,"material":0,"mode":4}]},{"primitives":[{"attributes":{"NORMAL":12,"POSITION":10,"TANGENT":11,"TEXCOORD_0":13},"indices":14,"material":0,"mode":4}]},{"primitives":[{"attributes":{"NORMAL":17,"POSITION":15,"TANGENT":16,"TEXCOORD_0":18},"indices":19,"material":0,"mode":4}]},{"primitives":[{"attributes":{"NORMAL":22,"POSITION":20,"TANGENT":21,"TEXCOORD_0":23},"indices":24,"material":1,"mode":4},{"attributes":{"NORMAL":27,"POSITION":25,"TANGENT":26,"TEXCOORD_0":28},"indices":29,"material":2,"mode":4},{"attributes":{"NORMAL":32,"POSITION":30,"TANGENT":31,"TEXCOORD_0":33},"indices":34,"material":1,"mode":4}]},{"primitives":[{"attributes":{"NORMAL":37,"POSITION":35,"TANGENT":36,"TEXCOORD_0":38},"indices":39,"material":1,"mode":4},{"attributes":{"NORMAL":42,"POSITION":40,"TANGENT":41,"TEXCOORD_0":43},"indices":44,"material":2,"mode":4},{"attributes":{"NORMAL":47,"POSITION":45,"TANGENT":46,"TEXCOORD_0":48},"indices":49,"material":1,"mode":4}]},{"primitives":[{"attributes":{"NORMAL":52,"POSITION":50,"TANGENT":51,"TEXCOORD_0":53},"indices":54,"material":1,"mode":4},{"attributes":{"NORMAL":57,"POSITION":55,"TANGENT":56,"TEXCOORD_0":58},"indices":59,"material":2,"mode":4},{"attributes":{"NORMAL":62,"POSITION":60,"TANGENT":61,"TEXCOORD_0":63},"indices":64,"material":1,"mode":4}]},{"primitives":[{"attributes":{"NORMAL":67,"POSITION":65,"TANGENT":66,"TEXCOORD_0":68},"indices":69,"material":1,"mode":4}]},{"primitives":[{"attributes":{"NORMAL":72,"POSITION":70,"TANGENT":71,"TEXCOORD_0":73},"indices":74,"material":1,"mode":4}]},{"primitives":[{"attributes":{"NORMAL":77,"POSITION":75,"TANGENT":76,"TEXCOORD_0":78},"indices":79,"material":1,"mode":4}]}],"nodes":[{"children":[1,2,3,4,5],"name":"janela_modelo1"},{"mesh":0,"name":"MeshInstance3D","rotation":[-0.000000015454306279139,-0.70710676908493,0.70710676908493,-0.0000000463629241664876],"scale":[0.292686700820923,1.0,0.381544589996338],"translation":[1.34443986415863,1.31013596057892,1.11823308467865]},{"mesh":1,"name":"MeshInstance3D2","rotation":[-0.000000015454306279139,-0.70710676908493,0.70710676908493,-0.0000000463629241664876],"scale":[0.292686700820923,1.0,0.381544589996338],"translation":[2.02501344680786,1.31013596057892,1.11823308467865]},{"mesh":2,"name":"MeshInstance3D3","rotation":[-0.000000015454306279139,-0.70710676908493,0.70710676908493,-0.0000000463629241664876],"scale":[0.292686700820923,1.0,0.381544589996338],"translation":[2.02501344680786,0.539456903934479,1.11823308467865]},{"mesh":3,"name":"MeshInstance3D4","rotation":[-0.000000015454306279139,-0.70710676908493,0.70710676908493,-0.0000000463629241664876],"scale":[0.292686700820923,1.0,0.381544589996338],"translation":[1.33553409576416,0.539456903934479,1.11823308467865]},{"children":[6,7,8,9,10,11],"name":"blockbench_export2","translation":[1.68545889854431,0.0,1.09466958045959]},{"mesh":4,"name":"lateral","translation":[0.6875,0.625,0.0]},{"mesh":5,"name":"lateral2","translation":[-0.6875,0.625,0.0]},{"mesh":6,"name":"lateral_meio","translation":[0.0,0.625,0.0]},{"mesh":7,"name":"divisao","translation":[0.0,0.6875,0.0]},{"mesh":8,"name":"sup","translation":[0.0,1.5,0.0]},{"mesh":9,"name":"inf","translation":[0.0,-0.1875,0.0]}],"samplers":[{"magFilter":9728,"minFilter":9728,"wrapS":33071,"wrapT":33071}],"scene":0,"scenes":[{"nodes":[0]}],"textures":[{"sampler":0,"source":0}]}