{"asset":{"version":"2.0","generator":"Blockbench 5.0.3 glTF exporter"},"scenes":[{"nodes":[0,1,2,3,4,5],"name":"blockbench_export"}],"scene":0,"nodes":[{"translation":[0,1.3125,0.8125],"name":"cuboid","mesh":0},{"translation":[0,0.9375,0],"name":"beveled_cuboid","mesh":1},{"translation":[0,1.3125,0],"name":"beveled_cuboid","mesh":2},{"translation":[0,2.075,0.8125],"name":"torus","mesh":3},{"translation":[0,0.125,0.125],"name":"cuboid","mesh":4},{"translation":[0,2.08125,0.8125],"name":"circle","mesh":5}],"bufferViews":[{"buffer":0,"byteOffset":0,"byteLength":288,"target":34962,"byteStride":12},{"buffer":0,"byteOffset":288,"byteLength":288,"target":34962,"byteStride":12},{"buffer":0,"byteOffset":576,"byteLength":192,"target":34962,"byteStride":8},{"buffer":0,"byteOffset":768,"byteLength":72,"target":34963},{"buffer":0,"byteOffset":840,"byteLength":1152,"target":34962,"byteStride":12},{"buffer":0,"byteOffset":1992,"byteLength":1152,"target":34962,"byteStride":12},{"buffer":0,"byteOffset":3144,"byteLength":768,"target":34962,"byteStride":8},{"buffer":0,"byteOffset":3912,"byteLength":24,"target":34963},{"buffer":0,"byteOffset":3936,"byteLength":12,"target":34963},{"buffer":0,"byteOffset":3948,"byteLength":12,"target":34963},{"buffer":0,"byteOffset":3960,"byteLength":12,"target":34963},{"buffer":0,"byteOffset":3972,"byteLength":204,"target":34963},{"buffer":0,"byteOffset":4176,"byteLength":384,"target":34962,"byteStride":12},{"buffer":0,"byteOffset":4560,"byteLength":384,"target":34962,"byteStride":12},{"buffer":0,"byteOffset":4944,"byteLength":256,"target":34962,"byteStride":8},{"buffer":0,"byteOffset":5200,"byteLength":84,"target":34963},{"buffer":0,"byteOffset":5284,"byteLength":4608,"target":34962,"byteStride":12},{"buffer":0,"byteOffset":9892,"byteLength":4608,"target":34962,"byteStride":12},{"buffer":0,"byteOffset":14500,"byteLength":3072,"target":34962,"byteStride":8},{"buffer":0,"byteOffset":17572,"byteLength":1152,"target":34963},{"buffer":0,"byteOffset":18724,"byteLength":288,"target":34962,"byteStride":12},{"buffer":0,"byteOffset":19012,"byteLength":288,"target":34962,"byteStride":12},{"buffer":0,"byteOffset":19300,"byteLength":192,"target":34962,"byteStride":8},{"buffer":0,"byteOffset":19492,"byteLength":24,"target":34963},{"buffer":0,"byteOffset":19516,"byteLength":12,"target":34963},{"buffer":0,"byteOffset":19528,"byteLength":36,"target":34963},{"buffer":0,"byteOffset":19564,"byteLength":432,"target":34962,"byteStride":12},{"buffer":0,"byteOffset":19996,"byteLength":432,"target":34962,"byteStride":12},{"buffer":0,"byteOffset":20428,"byteLength":288,"target":34962,"byteStride":8},{"buffer":0,"byteOffset":20716,"byteLength":72,"target":34963}],"buffers":[{"byteLength":20788,"uri":"data:application/octet-stream;base64,"}],"accessors":[{"bufferView":0,"componentType":5126,"count":24,"max":[0.42500001192092896,0.7562500238418579,0.15625],"min":[-0.42500001192092896,-0.2562499940395355,-0.15625],"type":"VEC3"},{"bufferView":1,"componentType":5126,"count":24,"max":[1,1,1],"min":[-1,-1,-1],"type":"VEC3"},{"bufferView":2,"componentType":5126,"count":24,"max":[0.0625,0.0625],"min":[0,0],"type":"VEC2"},{"bufferView":3,"componentType":5123,"count":36,"max":[23],"min":[0],"type":"SCALAR"},{"bufferView":4,"componentType":5126,"count":96,"max":[0.5,0.375,0.921875],"min":[-0.5,-0.0625,-0.625],"type":"VEC3"},{"bufferView":5,"componentType":5126,"count":96,"max":[1,1,1],"min":[-1,-1,-1],"type":"VEC3"},{"bufferView":6,"componentType":5126,"count":96,"max":[0.75,0.4013671875],"min":[0,0],"type":"VEC2"},{"bufferView":7,"componentType":5123,"count":12,"max":[7],"min":[0],"type":"SCALAR"},{"bufferView":8,"componentType":5123,"count":6,"max":[11],"min":[8],"type":"SCALAR"},{"bufferView":9,"componentType":5123,"count":6,"max":[15],"min":[12],"type":"SCALAR"},{"bufferView":10,"componentType":5123,"count":6,"max":[19],"min":[16],"type":"SCALAR"},{"bufferView":11,"componentType":5123,"count":102,"max":[95],"min":[20],"type":"SCALAR"},{"bufferView":12,"componentType":5126,"count":32,"max":[0.4749999940395355,0.047916874289512634,0.6000000238418579],"min":[-0.4749999940395355,-0.0020831250585615635,-0.6000000238418579],"type":"VEC3"},{"bufferView":13,"componentType":5126,"count":32,"max":[0.6753727197647095,0.5079365968704224,0.4473000168800354],"min":[-0.6753727197647095,-1,-0.876215934753418],"type":"VEC3"},{"bufferView":14,"componentType":5126,"count":32,"max":[0.0468750037252903,0.09375],"min":[0,0],"type":"VEC2"},{"bufferView":15,"componentType":5123,"count":42,"max":[31],"min":[0],"type":"SCALAR"},{"bufferView":16,"componentType":5126,"count":384,"max":[0.07500000298023224,0.01690937578678131,0.07500000298023224],"min":[-0.07500000298023224,-0.01690937578678131,-0.07500000298023224],"type":"VEC3"},{"bufferView":17,"componentType":5126,"count":384,"max":[0.9386493563652039,0.9060971736907959,0.9386493563652039],"min":[-0.9386493563652039,-0.9060971736907959,-0.9386493563652039],"type":"VEC3"},{"bufferView":18,"componentType":5126,"count":384,"max":[0.020933592692017555,0.006160154938697815],"min":[0,0],"type":"VEC2"},{"bufferView":19,"componentType":5123,"count":576,"max":[383],"min":[0],"type":"SCALAR"},{"bufferView":20,"componentType":5126,"count":24,"max":[0.296875,0.765625,0.3187499940395355],"min":[-0.296875,0.109375,-0.3187499940395355],"type":"VEC3"},{"bufferView":21,"componentType":5126,"count":24,"max":[1,1,1],"min":[-1,-1,-1],"type":"VEC3"},{"bufferView":22,"componentType":5126,"count":24,"max":[0.7734375,0.53515625],"min":[0,0],"type":"VEC2"},{"bufferView":23,"componentType":5123,"count":12,"max":[7],"min":[0],"type":"SCALAR"},{"bufferView":24,"componentType":5123,"count":6,"max":[11],"min":[8],"type":"SCALAR"},{"bufferView":25,"componentType":5123,"count":18,"max":[23],"min":[12],"type":"SCALAR"},{"bufferView":26,"componentType":5126,"count":36,"max":[0.0625,0,0.0625],"min":[-0.0625,0,-0.0625],"type":"VEC3"},{"bufferView":27,"componentType":5126,"count":36,"max":[0,1,0],"min":[0,1,0],"type":"VEC3"},{"bufferView":28,"componentType":5126,"count":36,"max":[0.03235238045454025,0.03235239163041115],"min":[0,0],"type":"VEC2"},{"bufferView":29,"componentType":5123,"count":36,"max":[35],"min":[0],"type":"SCALAR"}],"materials":[{"pbrMetallicRoughness":{"metallicFactor":0,"roughnessFactor":1,"baseColorTexture":{"index":0}},"alphaMode":"MASK","alphaCutoff":0.05,"doubleSided":true},{"pbrMetallicRoughness":{"metallicFactor":0,"roughnessFactor":1},"alphaMode":"MASK","alphaCutoff":0.05,"doubleSided":true},{"pbrMetallicRoughness":{"metallicFactor":0,"roughnessFactor":1,"baseColorTexture":{"index":1}},"alphaMode":"MASK","alphaCutoff":0.05,"doubleSided":true},{"pbrMetallicRoughness":{"metallicFactor":0,"roughnessFactor":1,"baseColorTexture":{"index":2}},"alphaMode":"MASK","alphaCutoff":0.05,"doubleSided":true},{"pbrMetallicRoughness":{"metallicFactor":0,"roughnessFactor":1},"alphaMode":"MASK","alphaCutoff":0.05,"doubleSided":true}],"textures":[{"sampler":0,"source":0,"name":"412b6b.png"},{"sampler":1,"source":1,"name":"6a0dad.png"},{"sampler":2,"source":2,"name":"211832.png"}],"samplers":[{"magFilter":9728,"minFilter":9728,"wrapS":33071,"wrapT":33071},{"magFilter":9728,"minFilter":9728,"wrapS":33071,"wrapT":33071},{"magFilter":9728,"minFilter":9728,"wrapS":33071,"wrapT":33071}],"images":[{"mimeType":"image/png","uri":"data:image/png;base64,"},{"mimeType":"image/png","uri":"data:image/png;base64,"},{"mimeType":"image/png","uri":"data:image/png;base64,"}],"meshes":[{"primitives":[{"mode":4,"attributes":{"POSITION":0,"NORMAL":1,"TEXCOORD_0":2},"indices":3,"material":0}]},{"primitives":[{"mode":4,"attributes":{"POSITION":4,"NORMAL":5,"TEXCOORD_0":6},"indices":7,"material":0},{"mode":4,"attributes":{"POSITION":4,"NORMAL":5,"TEXCOORD_0":6},"indices":8,"material":1},{"mode":4,"attributes":{"POSITION":4,"NORMAL":5,"TEXCOORD_0":6},"indices":9,"material":0},{"mode":4,"attributes":{"POSITION":4,"NORMAL":5,"TEXCOORD_0":6},"indices":10,"material":1},{"mode":4,"attributes":{"POSITION":4,"NORMAL":5,"TEXCOORD_0":6},"indices":11,"material":0}]},{"primitives":[{"mode":4,"attributes":{"POSITION":12,"NORMAL":13,"TEXCOORD_0":14},"indices":15,"material":2}]},{"primitives":[{"mode":4,"attributes":{"POSITION":16,"NORMAL":17,"TEXCOORD_0":18},"indices":19,"material":3}]},{"primitives":[{"mode":4,"attributes":{"POSITION":20,"NORMAL":21,"TEXCOORD_0":22},"indices":23,"material":0},{"mode":4,"attributes":{"POSITION":20,"NORMAL":21,"TEXCOORD_0":22},"indices":24,"material":4},{"mode":4,"attributes":{"POSITION":20,"NORMAL":21,"TEXCOORD_0":22},"indices":25,"material":0}]},{"primitives":[{"mode":4,"attributes":{"POSITION":26,"NORMAL":27,"TEXCOORD_0":28},"indices":29,"material":3}]}]}