# Made in Blockbench 5.0.4
mtllib materials.mtl

o porta
v 0.3593750000000002 1.51875 0.0625
v 0.3593750000000002 1.51875 -0.0625
v 0.3593750000000002 0.006249999999999978 0.0625
v 0.3593750000000002 0.006249999999999978 -0.0625
v -0.29687500000000006 1.51875 0.0625
v -0.29687500000000006 1.51875 -0.0625
v -0.29687500000000006 0.006249999999999978 0.0625
v -0.29687500000000006 0.006249999999999978 -0.0625
v 0.28764536290322584 0.7264880952380952 -0.125
v 0.28764536290322584 0.7264880952380952 0.125
v 0.291734677419355 0.6904761904761905 0.108253125
v 0.29472832661290327 0.664113675595238 0.0625
v 0.2958239919354839 0.6544642857142856 0
v 0.29472832661290327 0.664113675595238 -0.0625
v 0.291734677419355 0.6904761904761905 -0.108253125
v 0.2988176411290324 0.7001255803571429 0.108253125
v 0.3069962701612905 0.680826800595238 0.0625
v 0.30998991935483866 0.6737630654761904 0
v 0.3069962701612905 0.680826800595238 -0.0625
v 0.2988176411290324 0.7001255803571429 -0.108253125
v 0.30290695564516146 0.7168387053571428 0.108253125
v 0.3140792338709677 0.7097749702380951 0.0625
v 0.31816854838709674 0.7071893154761905 0
v 0.3140792338709677 0.7097749702380951 -0.0625
v 0.30290695564516146 0.7168387053571428 -0.108253125
v 0.30290695564516146 0.7361374851190475 0.108253125
v 0.3140792338709677 0.7432012202380952 0.0625
v 0.31816854838709674 0.745786875 0
v 0.3140792338709677 0.7432012202380952 -0.0625
v 0.30290695564516146 0.7361374851190475 -0.108253125
v 0.2988176411290324 0.7528506101190475 0.108253125
v 0.3069962701612905 0.7721493898809524 0.0625
v 0.30998991935483866 0.779213125 0
v 0.3069962701612905 0.7721493898809524 -0.0625
v 0.2988176411290324 0.7528506101190475 -0.108253125
v 0.291734677419355 0.7625 0.108253125
v 0.29472832661290327 0.7888625148809524 0.0625
v 0.2958239919354839 0.7985119047619048 0
v 0.29472832661290327 0.7888625148809524 -0.0625
v 0.291734677419355 0.7625 -0.108253125
v 0.2835560483870969 0.7625 0.108253125
v 0.28056239919354853 0.7888625148809524 0.0625
v 0.27946673387096777 0.7985119047619048 0
v 0.28056239919354853 0.7888625148809524 -0.0625
v 0.2835560483870969 0.7625 -0.108253125
v 0.27647308467741927 0.7528506101190475 0.108253125
v 0.2682944556451614 0.7721493898809524 0.0625
v 0.265300806451613 0.779213125 0
v 0.2682944556451614 0.7721493898809524 -0.0625
v 0.27647308467741927 0.7528506101190475 -0.108253125
v 0.27238377016129034 0.7361374851190475 0.108253125
v 0.261211491935484 0.7432012202380952 0.0625
v 0.25712217741935495 0.745786875 0
v 0.261211491935484 0.7432012202380952 -0.0625
v 0.27238377016129034 0.7361374851190475 -0.108253125
v 0.27238377016129034 0.7168387053571428 0.108253125
v 0.261211491935484 0.7097749702380951 0.0625
v 0.25712217741935495 0.7071893154761905 0
v 0.261211491935484 0.7097749702380951 -0.0625
v 0.27238377016129034 0.7168387053571428 -0.108253125
v 0.27647308467741927 0.7001255803571429 0.108253125
v 0.2682944556451614 0.680826800595238 0.0625
v 0.265300806451613 0.6737630654761904 0
v 0.2682944556451614 0.680826800595238 -0.0625
v 0.27647308467741927 0.7001255803571429 -0.108253125
v 0.2835560483870969 0.6904761904761905 0.108253125
v 0.28056239919354853 0.664113675595238 0.0625
v 0.27946673387096777 0.6544642857142856 0
v 0.28056239919354853 0.664113675595238 -0.0625
v 0.2835560483870969 0.6904761904761905 -0.108253125
vt 0.08080808080808081 1
vt 0 1
vt 0 0.9416058394160584
vt 0.08080808080808081 0.9416058394160584
vt 0.08080808080808081 0.9416058394160584
vt 0.08080808080808081 1
vt 0 1
vt 0 0.9416058394160584
vt 0 0.8832116788321168
vt 0.08080808080808081 0.8832116788321168
vt 0.08080808080808081 1
vt 0 1
vt 0.08080808080808081 0.8832116788321168
vt 0.08080808080808081 1
vt 0 1
vt 0 0.8832116788321168
vt 0.08080808080808081 0.9416058394160584
vt 0.08080808080808081 1
vt 0 1
vt 0 0.9416058394160584
vt 0.08080808080808081 1
vt 0 1
vt 0 0.9416058394160584
vt 0.08080808080808081 0.9416058394160584
vt 0 0.9737898734177215
vt 0.009401754385964913 0.9737898734177215
vt 0.004700877192982456 1
vt 0.0034412280701754385 1
vt 0 0.9737898734177215
vt 0.01628421052631579 0.9737898734177215
vt 0.01284298245614035 1
vt 0.01795 1
vt 0 0.7411749999999999
vt 0.26795 0.7411749999999999
vt 0.25 1
vt 0 1
vt 0.01795 0.7411749999999999
vt 0.25 0.7411749999999999
vt 0.26795 1
vt 0 1
vt 0.0034412280701754385 0.9737898734177215
vt 0.01284298245614035 0.9737898734177215
vt 0.01628421052631579 1
vt 0.009401754385964913 1
vt 0 1
vt 0.004700877192982456 0.9737898734177215
vt 0 0.9737898734177215
vt 0.009401754385964913 0.9737898734177215
vt 0.004700877192982456 1
vt 0.0034412280701754385 1
vt 0 0.9737898734177215
vt 0.01628421052631579 0.9737898734177215
vt 0.01284298245614035 1
vt 0.01795 1
vt 0 0.7411749999999999
vt 0.26795 0.7411749999999999
vt 0.25 1
vt 0 1
vt 0.01795 0.7411749999999999
vt 0.25 0.7411749999999999
vt 0.26795 1
vt 0 1
vt 0.0034412280701754385 0.9737898734177215
vt 0.01284298245614035 0.9737898734177215
vt 0.01628421052631579 1
vt 0.009401754385964913 1
vt 0 1
vt 0.004700877192982456 0.9737898734177215
vt 0 0.9737898734177215
vt 0.009401754385964913 0.9737898734177215
vt 0.004700877192982456 1
vt 0.0034412280701754385 1
vt 0 0.9737898734177215
vt 0.01628421052631579 0.9737898734177215
vt 0.01284298245614035 1
vt 0.01795 1
vt 0 0.7411749999999999
vt 0.26795 0.7411749999999999
vt 0.25 1
vt 0 1
vt 0.01795 0.7411749999999999
vt 0.25 0.7411749999999999
vt 0.26795 1
vt 0 1
vt 0.0034412280701754385 0.9737898734177215
vt 0.01284298245614035 0.9737898734177215
vt 0.01628421052631579 1
vt 0.009401754385964913 1
vt 0 1
vt 0.004700877192982456 0.9737898734177215
vt 0 0.9737898734177215
vt 0.009401754385964913 0.9737898734177215
vt 0.004700877192982456 1
vt 0.0034412280701754385 1
vt 0 0.9737898734177215
vt 0.01628421052631579 0.9737898734177215
vt 0.01284298245614035 1
vt 0.01795 1
vt 0 0.7411749999999999
vt 0.26795 0.7411749999999999
vt 0.25 1
vt 0 1
vt 0.01795 0.7411749999999999
vt 0.25 0.7411749999999999
vt 0.26795 1
vt 0 1
vt 0.0034412280701754385 0.9737898734177215
vt 0.01284298245614035 0.9737898734177215
vt 0.01628421052631579 1
vt 0.009401754385964913 1
vt 0 1
vt 0.004700877192982456 0.9737898734177215
vt 0 0.9737898734177215
vt 0.009401754385964913 0.9737898734177215
vt 0.004700877192982456 1
vt 0.0034412280701754385 1
vt 0 0.9737898734177215
vt 0.01628421052631579 0.9737898734177215
vt 0.01284298245614035 1
vt 0.01795 1
vt 0 0.7411749999999999
vt 0.26795 0.7411749999999999
vt 0.25 1
vt 0 1
vt 0.01795 0.7411749999999999
vt 0.25 0.7411749999999999
vt 0.26795 1
vt 0 1
vt 0.0034412280701754385 0.9737898734177215
vt 0.01284298245614035 0.9737898734177215
vt 0.01628421052631579 1
vt 0.009401754385964913 1
vt 0 1
vt 0.004700877192982456 0.9737898734177215
vt 0 0.9737898734177215
vt 0.009401754385964913 0.9737898734177215
vt 0.004700877192982456 1
vt 0.0034412280701754385 1
vt 0 0.9737898734177215
vt 0.01628421052631579 0.9737898734177215
vt 0.01284298245614035 1
vt 0.01795 1
vt 0 0.7411749999999999
vt 0.26795 0.7411749999999999
vt 0.25 1
vt 0 1
vt 0.01795 0.7411749999999999
vt 0.25 0.7411749999999999
vt 0.26795 1
vt 0 1
vt 0.0034412280701754385 0.9737898734177215
vt 0.01284298245614035 0.9737898734177215
vt 0.01628421052631579 1
vt 0.009401754385964913 1
vt 0 1
vt 0.004700877192982456 0.9737898734177215
vt 0 0.9737898734177215
vt 0.009401754385964913 0.9737898734177215
vt 0.004700877192982456 1
vt 0.0034412280701754385 1
vt 0 0.9737898734177215
vt 0.01628421052631579 0.9737898734177215
vt 0.01284298245614035 1
vt 0.01795 1
vt 0 0.7411749999999999
vt 0.26795 0.7411749999999999
vt 0.25 1
vt 0 1
vt 0.01795 0.7411749999999999
vt 0.25 0.7411749999999999
vt 0.26795 1
vt 0 1
vt 0.0034412280701754385 0.9737898734177215
vt 0.01284298245614035 0.9737898734177215
vt 0.01628421052631579 1
vt 0.009401754385964913 1
vt 0 1
vt 0.004700877192982456 0.9737898734177215
vt 0 0.9737898734177215
vt 0.009401754385964913 0.9737898734177215
vt 0.004700877192982456 1
vt 0.0034412280701754385 1
vt 0 0.9737898734177215
vt 0.01628421052631579 0.9737898734177215
vt 0.01284298245614035 1
vt 0.01795 1
vt 0 0.7411749999999999
vt 0.26795 0.7411749999999999
vt 0.25 1
vt 0 1
vt 0.01795 0.7411749999999999
vt 0.25 0.7411749999999999
vt 0.26795 1
vt 0 1
vt 0.0034412280701754385 0.9737898734177215
vt 0.01284298245614035 0.9737898734177215
vt 0.01628421052631579 1
vt 0.009401754385964913 1
vt 0 1
vt 0.004700877192982456 0.9737898734177215
vt 0 0.9737898734177215
vt 0.009401754385964913 0.9737898734177215
vt 0.004700877192982456 1
vt 0.0034412280701754385 1
vt 0 0.9737898734177215
vt 0.01628421052631579 0.9737898734177215
vt 0.01284298245614035 1
vt 0.01795 1
vt 0 0.7411749999999999
vt 0.26795 0.7411749999999999
vt 0.25 1
vt 0 1
vt 0.01795 0.7411749999999999
vt 0.25 0.7411749999999999
vt 0.26795 1
vt 0 1
vt 0.0034412280701754385 0.9737898734177215
vt 0.01284298245614035 0.9737898734177215
vt 0.01628421052631579 1
vt 0.009401754385964913 1
vt 0 1
vt 0.004700877192982456 0.9737898734177215
vt 0 0.9737898734177215
vt 0.009401754385964913 0.9737898734177215
vt 0.004700877192982456 1
vt 0.0034412280701754385 1
vt 0 0.9737898734177215
vt 0.01628421052631579 0.9737898734177215
vt 0.01284298245614035 1
vt 0.01795 1
vt 0 0.7411749999999999
vt 0.26795 0.7411749999999999
vt 0.25 1
vt 0 1
vt 0.01795 0.7411749999999999
vt 0.25 0.7411749999999999
vt 0.26795 1
vt 0 1
vt 0.0034412280701754385 0.9737898734177215
vt 0.01284298245614035 0.9737898734177215
vt 0.01628421052631579 1
vt 0.009401754385964913 1
vt 0 1
vt 0.004700877192982456 0.9737898734177215
vt 0 0.9737898734177215
vt 0.009401754385964913 0.9737898734177215
vt 0.004700877192982456 1
vt 0.0034412280701754385 1
vt 0 0.9737898734177215
vt 0.01628421052631579 0.9737898734177215
vt 0.01284298245614035 1
vt 0.01795 1
vt 0 0.7411749999999999
vt 0.26795 0.7411749999999999
vt 0.25 1
vt 0 1
vt 0.01795 0.7411749999999999
vt 0.25 0.7411749999999999
vt 0.26795 1
vt 0 1
vt 0.0034412280701754385 0.9737898734177215
vt 0.01284298245614035 0.9737898734177215
vt 0.01628421052631579 1
vt 0.009401754385964913 1
vt 0 1
vt 0.004700877192982456 0.9737898734177215
vt 0 0.9737898734177215
vt 0.009401754385964913 0.9737898734177215
vt 0.004700877192982456 1
vt 0.0034412280701754385 1
vt 0 0.9737898734177215
vt 0.01628421052631579 0.9737898734177215
vt 0.01284298245614035 1
vt 0.01795 1
vt 0 0.7411749999999999
vt 0.26795 0.7411749999999999
vt 0.25 1
vt 0 1
vt 0.01795 0.7411749999999999
vt 0.25 0.7411749999999999
vt 0.26795 1
vt 0 1
vt 0.0034412280701754385 0.9737898734177215
vt 0.01284298245614035 0.9737898734177215
vt 0.01628421052631579 1
vt 0.009401754385964913 1
vt 0 1
vt 0.004700877192982456 0.9737898734177215
vn 1 0 0
vn -1 0 0
vn 0 1 0
vn 0 -1 0
vn 0 0 1
vn 0 0 -1
vn 0.45357408838271607 -0.33293802481817814 0.8266939082743737
vn 0.7500991422424819 -0.5505956505874536 0.3663273213415453
vn 0.8016879565131113 -0.5884648431168302 0.10490733433519595
vn 0.8016886493406872 -0.5884639224258983 -0.10490720433521813
vn 0.750098378220072 -0.5505964270454256 -0.3663277187388763
vn 0.45357408838271607 -0.33293802481817814 -0.8266939082743737
vn 0.6792854851439731 -0.16620542208563724 0.714805559115241
vn 0.9368450627500575 -0.22922484091101253 0.2641539337397074
vn 0.9687417715973132 -0.23702866992100216 0.07319009221185364
vn 0.9687416347942226 -0.2370292121385962 -0.07319014694050963
vn 0.9368452404220116 -0.2292243276481295 -0.2641537490040344
vn 0.679285485143973 -0.1662054220856372 -0.714805559115241
vn 0.7391231906128714 0 0.6735702703491665
vn 0.9714568616752461 0 0.2372162850735205
vn 0.9978663689194178 0 0.0652894308412664
vn 0.9978663689194177 0 -0.06528943084126639
vn 0.9714568616752463 0 -0.23721628507352058
vn 0.7391231906128714 0 -0.6735702703491665
vn 0.6792854851439739 0.16620542208563685 0.7148055591152404
vn 0.9368450124219636 0.22922482859686327 0.2641541229184767
vn 0.9687417905028707 0.23702867454675453 0.0731898269973442
vn 0.9687416566243426 0.23702921747993316 -0.07318984069920582
vn 0.936845153250638 0.22922430631931298 -0.26415407667347945
vn 0.6792854851439739 0.16620542208563688 -0.7148055591152404
vn 0.45357408838271784 0.3329380248181775 0.8266939082743727
vn 0.750099219739987 0.5505957074729873 0.3663270771561716
vn 0.8016879243693238 0.5884648195222499 0.1049077123239813
vn 0.8016886122239674 0.5884638951810948 -0.104907640802292
vn 0.7500985124486688 0.5505965255735461 -0.36632729580067286
vn 0.45357408838271784 0.3329380248181775 -0.8266939082743727
vn 0 0.42167178979386777 0.9067485327763352
vn 0 0.8664602165648263 0.4992461247825911
vn 0 0.9882907456448229 0.1525824435274254
vn 0 0.9882907456448229 -0.15258244352742537
vn 0 0.8664602165648263 -0.4992461247825913
vn 0 0.42167178979386777 -0.9067485327763352
vn -0.4535740883827102 0.3329380248181823 0.8266939082743753
vn -0.7500991422424836 0.550595650587451 0.3663273213415456
vn -0.8016879565131122 0.5884648431168283 0.10490733433519737
vn -0.8016886493406891 0.5884639224258953 -0.10490720433521938
vn -0.7500983782200636 0.5505964270454333 -0.3663277187388821
vn -0.45357408838271024 0.33293802481818235 -0.8266939082743753
vn -0.6792854851439779 0.16620542208563333 0.7148055591152374
vn -0.9368450627500566 0.2292248409110188 0.2641539337397058
vn -0.968741771597313 0.2370286699210025 0.07319009221185681
vn -0.9687416347942208 0.23702921213860254 -0.07319014694051339
vn -0.9368452404220147 0.22922432764812334 -0.2641537490040282
vn -0.6792854851439779 0.16620542208563333 -0.7148055591152374
vn -0.7391231906128739 0 0.6735702703491637
vn -0.9714568616752456 0 0.23721628507352274
vn -0.9978663689194178 0 0.0652894308412664
vn -0.9978663689194177 0 -0.0652894308412664
vn -0.9714568616752456 0 -0.23721628507352274
vn -0.7391231906128739 0 -0.6735702703491637
vn -0.6792854851439769 -0.1662054220856337 0.7148055591152381
vn -0.936845012421961 -0.2292248285968704 0.2641541229184791
vn -0.9687417905028708 -0.23702867454675414 0.07318982699734398
vn -0.9687416566243408 -0.23702921747994082 -0.07318984069920581
vn -0.9368451532506389 -0.2292243063193078 -0.2641540766734808
vn -0.679285485143977 -0.16620542208563371 -0.714805559115238
vn -0.45357408838270835 -0.3329380248181829 0.826693908274376
vn -0.7500992197399914 -0.5505957074729846 0.3663270771561665
vn -0.8016879243693225 -0.5884648195222514 0.10490771232398506
vn -0.8016886122239703 -0.5884638951810904 -0.1049076408022953
vn -0.7500985124486592 -0.5505965255735595 -0.36632729580067225
vn -0.45357408838270824 -0.33293802481818285 -0.8266939082743759
vn 0 -0.42167178979386777 0.9067485327763352
vn 0 -0.8664602165648263 0.4992461247825911
vn 0 -0.9882907456448231 0.15258244352742495
vn 0 -0.988290745644823 -0.15258244352742495
vn 0 -0.8664602165648262 -0.49924612478259117
vn 0 -0.42167178979386777 -0.9067485327763352
usemtl m_ed1abb00-6a2c-fcb6-f313-838e0ce79d34
f 2/1/1 1/2/1 3/3/1 4/4/1
f 7/5/2 5/6/2 6/7/2 8/8/2
f 5/9/3 1/10/3 2/11/3 6/12/3
f 4/13/4 3/14/4 7/15/4 8/16/4
f 3/17/5 1/18/5 5/19/5 7/20/5
f 6/21/6 2/22/6 4/23/6 8/24/6
usemtl m_525eb178-5516-062f-87a8-413ddf90b72a
f 11/25/7 16/26/7 10/27/7
f 11/28/8 12/29/8 17/30/8 16/31/8
usemtl none
f 12/32/9 13/33/9 18/34/9 17/35/9
f 13/36/10 14/37/10 19/38/10 18/39/10
usemtl m_525eb178-5516-062f-87a8-413ddf90b72a
f 14/40/11 15/41/11 20/42/11 19/43/11
f 20/44/12 15/45/12 9/46/12
f 16/47/13 21/48/13 10/49/13
f 16/50/14 17/51/14 22/52/14 21/53/14
usemtl none
f 17/54/15 18/55/15 23/56/15 22/57/15
f 18/58/16 19/59/16 24/60/16 23/61/16
usemtl m_525eb178-5516-062f-87a8-413ddf90b72a
f 19/62/17 20/63/17 25/64/17 24/65/17
f 25/66/18 20/67/18 9/68/18
f 21/69/19 26/70/19 10/71/19
f 21/72/20 22/73/20 27/74/20 26/75/20
usemtl none
f 22/76/21 23/77/21 28/78/21 27/79/21
f 23/80/22 24/81/22 29/82/22 28/83/22
usemtl m_525eb178-5516-062f-87a8-413ddf90b72a
f 24/84/23 25/85/23 30/86/23 29/87/23
f 30/88/24 25/89/24 9/90/24
f 26/91/25 31/92/25 10/93/25
f 26/94/26 27/95/26 32/96/26 31/97/26
usemtl none
f 27/98/27 28/99/27 33/100/27 32/101/27
f 28/102/28 29/103/28 34/104/28 33/105/28
usemtl m_525eb178-5516-062f-87a8-413ddf90b72a
f 29/106/29 30/107/29 35/108/29 34/109/29
f 35/110/30 30/111/30 9/112/30
f 31/113/31 36/114/31 10/115/31
f 31/116/32 32/117/32 37/118/32 36/119/32
usemtl none
f 32/120/33 33/121/33 38/122/33 37/123/33
f 33/124/34 34/125/34 39/126/34 38/127/34
usemtl m_525eb178-5516-062f-87a8-413ddf90b72a
f 34/128/35 35/129/35 40/130/35 39/131/35
f 40/132/36 35/133/36 9/134/36
f 36/135/37 41/136/37 10/137/37
f 36/138/38 37/139/38 42/140/38 41/141/38
usemtl none
f 37/142/39 38/143/39 43/144/39 42/145/39
f 38/146/40 39/147/40 44/148/40 43/149/40
usemtl m_525eb178-5516-062f-87a8-413ddf90b72a
f 39/150/41 40/151/41 45/152/41 44/153/41
f 45/154/42 40/155/42 9/156/42
f 41/157/43 46/158/43 10/159/43
f 41/160/44 42/161/44 47/162/44 46/163/44
usemtl none
f 42/164/45 43/165/45 48/166/45 47/167/45
f 43/168/46 44/169/46 49/170/46 48/171/46
usemtl m_525eb178-5516-062f-87a8-413ddf90b72a
f 44/172/47 45/173/47 50/174/47 49/175/47
f 50/176/48 45/177/48 9/178/48
f 46/179/49 51/180/49 10/181/49
f 46/182/50 47/183/50 52/184/50 51/185/50
usemtl none
f 47/186/51 48/187/51 53/188/51 52/189/51
f 48/190/52 49/191/52 54/192/52 53/193/52
usemtl m_525eb178-5516-062f-87a8-413ddf90b72a
f 49/194/53 50/195/53 55/196/53 54/197/53
f 55/198/54 50/199/54 9/200/54
f 51/201/55 56/202/55 10/203/55
f 51/204/56 52/205/56 57/206/56 56/207/56
usemtl none
f 52/208/57 53/209/57 58/210/57 57/211/57
f 53/212/58 54/213/58 59/214/58 58/215/58
usemtl m_525eb178-5516-062f-87a8-413ddf90b72a
f 54/216/59 55/217/59 60/218/59 59/219/59
f 60/220/60 55/221/60 9/222/60
f 56/223/61 61/224/61 10/225/61
f 56/226/62 57/227/62 62/228/62 61/229/62
usemtl none
f 57/230/63 58/231/63 63/232/63 62/233/63
f 58/234/64 59/235/64 64/236/64 63/237/64
usemtl m_525eb178-5516-062f-87a8-413ddf90b72a
f 59/238/65 60/239/65 65/240/65 64/241/65
f 65/242/66 60/243/66 9/244/66
f 61/245/67 66/246/67 10/247/67
f 61/248/68 62/249/68 67/250/68 66/251/68
usemtl none
f 62/252/69 63/253/69 68/254/69 67/255/69
f 63/256/70 64/257/70 69/258/70 68/259/70
usemtl m_525eb178-5516-062f-87a8-413ddf90b72a
f 64/260/71 65/261/71 70/262/71 69/263/71
f 70/264/72 65/265/72 9/266/72
f 66/267/73 11/268/73 10/269/73
f 66/270/74 67/271/74 12/272/74 11/273/74
usemtl none
f 67/274/75 68/275/75 13/276/75 12/277/75
f 68/278/76 69/279/76 14/280/76 13/281/76
usemtl m_525eb178-5516-062f-87a8-413ddf90b72a
f 69/282/77 70/283/77 15/284/77 14/285/77
f 15/286/78 70/287/78 9/288/78