{"asset":{"version":"2.0","generator":"Blockbench 5.0.3 glTF exporter"},"scenes":[{"nodes":[0,1],"name":"blockbench_export"}],"scene":0,"nodes":[{"translation":[0.7500000000000001,1.0625,0],"name":"porta","mesh":0},{"translation":[2.1875,1.0625,0],"name":"guar_lateral","mesh":1}],"bufferViews":[{"buffer":0,"byteOffset":0,"byteLength":3456,"target":34962,"byteStride":12},{"buffer":0,"byteOffset":3456,"byteLength":3456,"target":34962,"byteStride":12},{"buffer":0,"byteOffset":6912,"byteLength":2304,"target":34962,"byteStride":8},{"buffer":0,"byteOffset":9216,"byteLength":72,"target":34963},{"buffer":0,"byteOffset":9288,"byteLength":20,"target":34963},{"buffer":0,"byteOffset":9308,"byteLength":24,"target":34963},{"buffer":0,"byteOffset":9332,"byteLength":36,"target":34963},{"buffer":0,"byteOffset":9368,"byteLength":24,"target":34963},{"buffer":0,"byteOffset":9392,"byteLength":36,"target":34963},{"buffer":0,"byteOffset":9428,"byteLength":24,"target":34963},{"buffer":0,"byteOffset":9452,"byteLength":36,"target":34963},{"buffer":0,"byteOffset":9488,"byteLength":24,"target":34963},{"buffer":0,"byteOffset":9512,"byteLength":36,"target":34963},{"buffer":0,"byteOffset":9548,"byteLength":24,"target":34963},{"buffer":0,"byteOffset":9572,"byteLength":36,"target":34963},{"buffer":0,"byteOffset":9608,"byteLength":24,"target":34963},{"buffer":0,"byteOffset":9632,"byteLength":36,"target":34963},{"buffer":0,"byteOffset":9668,"byteLength":24,"target":34963},{"buffer":0,"byteOffset":9692,"byteLength":36,"target":34963},{"buffer":0,"byteOffset":9728,"byteLength":24,"target":34963},{"buffer":0,"byteOffset":9752,"byteLength":36,"target":34963},{"buffer":0,"byteOffset":9788,"byteLength":24,"target":34963},{"buffer":0,"byteOffset":9812,"byteLength":36,"target":34963},{"buffer":0,"byteOffset":9848,"byteLength":24,"target":34963},{"buffer":0,"byteOffset":9872,"byteLength":36,"target":34963},{"buffer":0,"byteOffset":9908,"byteLength":24,"target":34963},{"buffer":0,"byteOffset":9932,"byteLength":36,"target":34963},{"buffer":0,"byteOffset":9968,"byteLength":24,"target":34963},{"buffer":0,"byteOffset":9992,"byteLength":20,"target":34963},{"buffer":0,"byteOffset":10012,"byteLength":864,"target":34962,"byteStride":12},{"buffer":0,"byteOffset":10876,"byteLength":864,"target":34962,"byteStride":12},{"buffer":0,"byteOffset":11740,"byteLength":576,"target":34962,"byteStride":8},{"buffer":0,"byteOffset":12316,"byteLength":216,"target":34963}],"buffers":[{"byteLength":12532,"uri":"data:application/octet-stream;base64,"}],"accessors":[{"bufferView":0,"componentType":5126,"count":288,"max":[1.334375023841858,1.5625,0.125],"min":[-0.02187499962747097,-1.0625,-0.125],"type":"VEC3"},{"bufferView":1,"componentType":5126,"count":288,"max":[1,1,1],"min":[-1,-1,-1],"type":"VEC3"},{"bufferView":2,"componentType":5126,"count":288,"max":[0.26794999837875366,0.25882500410079956],"min":[0,0],"type":"VEC2"},{"bufferView":3,"componentType":5123,"count":36,"max":[23],"min":[0],"type":"SCALAR"},{"bufferView":4,"componentType":5123,"count":9,"max":[30],"min":[24],"type":"SCALAR"},{"bufferView":5,"componentType":5123,"count":12,"max":[38],"min":[31],"type":"SCALAR"},{"bufferView":6,"componentType":5123,"count":18,"max":[52],"min":[39],"type":"SCALAR"},{"bufferView":7,"componentType":5123,"count":12,"max":[60],"min":[53],"type":"SCALAR"},{"bufferView":8,"componentType":5123,"count":18,"max":[74],"min":[61],"type":"SCALAR"},{"bufferView":9,"componentType":5123,"count":12,"max":[82],"min":[75],"type":"SCALAR"},{"bufferView":10,"componentType":5123,"count":18,"max":[96],"min":[83],"type":"SCALAR"},{"bufferView":11,"componentType":5123,"count":12,"max":[104],"min":[97],"type":"SCALAR"},{"bufferView":12,"componentType":5123,"count":18,"max":[118],"min":[105],"type":"SCALAR"},{"bufferView":13,"componentType":5123,"count":12,"max":[126],"min":[119],"type":"SCALAR"},{"bufferView":14,"componentType":5123,"count":18,"max":[140],"min":[127],"type":"SCALAR"},{"bufferView":15,"componentType":5123,"count":12,"max":[148],"min":[141],"type":"SCALAR"},{"bufferView":16,"componentType":5123,"count":18,"max":[162],"min":[149],"type":"SCALAR"},{"bufferView":17,"componentType":5123,"count":12,"max":[170],"min":[163],"type":"SCALAR"},{"bufferView":18,"componentType":5123,"count":18,"max":[184],"min":[171],"type":"SCALAR"},{"bufferView":19,"componentType":5123,"count":12,"max":[192],"min":[185],"type":"SCALAR"},{"bufferView":20,"componentType":5123,"count":18,"max":[206],"min":[193],"type":"SCALAR"},{"bufferView":21,"componentType":5123,"count":12,"max":[214],"min":[207],"type":"SCALAR"},{"bufferView":22,"componentType":5123,"count":18,"max":[228],"min":[215],"type":"SCALAR"},{"bufferView":23,"componentType":5123,"count":12,"max":[236],"min":[229],"type":"SCALAR"},{"bufferView":24,"componentType":5123,"count":18,"max":[250],"min":[237],"type":"SCALAR"},{"bufferView":25,"componentType":5123,"count":12,"max":[258],"min":[251],"type":"SCALAR"},{"bufferView":26,"componentType":5123,"count":18,"max":[272],"min":[259],"type":"SCALAR"},{"bufferView":27,"componentType":5123,"count":12,"max":[280],"min":[273],"type":"SCALAR"},{"bufferView":28,"componentType":5123,"count":9,"max":[287],"min":[281],"type":"SCALAR"},{"bufferView":29,"componentType":5126,"count":72,"max":[0.109375,1.7781250476837158,0.0625],"min":[-1.671875,-1.0625,-0.0625],"type":"VEC3"},{"bufferView":30,"componentType":5126,"count":72,"max":[1,1,1],"min":[-1,-1,-1],"type":"VEC3"},{"bufferView":31,"componentType":5126,"count":72,"max":[0.0624999962747097,0.0624999962747097],"min":[0,0],"type":"VEC2"},{"bufferView":32,"componentType":5123,"count":108,"max":[71],"min":[0],"type":"SCALAR"}],"materials":[{"pbrMetallicRoughness":{"metallicFactor":0,"roughnessFactor":1,"baseColorTexture":{"index":0}},"alphaMode":"MASK","alphaCutoff":0.05,"doubleSided":true},{"pbrMetallicRoughness":{"metallicFactor":0,"roughnessFactor":1,"baseColorTexture":{"index":1}},"alphaMode":"MASK","alphaCutoff":0.05,"doubleSided":true},{"pbrMetallicRoughness":{"metallicFactor":0,"roughnessFactor":1},"alphaMode":"MASK","alphaCutoff":0.05,"doubleSided":true},{"pbrMetallicRoughness":{"metallicFactor":0,"roughnessFactor":1,"baseColorTexture":{"index":2}},"alphaMode":"MASK","alphaCutoff":0.05,"doubleSided":true}],"textures":[{"sampler":0,"source":0,"name":"412b6b.png"},{"sampler":1,"source":1,"name":"f5cb5c.png"},{"sampler":2,"source":2,"name":"211832.png"}],"samplers":[{"magFilter":9728,"minFilter":9728,"wrapS":33071,"wrapT":33071},{"magFilter":9728,"minFilter":9728,"wrapS":33071,"wrapT":33071},{"magFilter":9728,"minFilter":9728,"wrapS":33071,"wrapT":33071}],"images":[{"mimeType":"image/png","uri":"data:image/png;base64,"},{"mimeType":"image/png","uri":"data:image/png;base64,"},{"mimeType":"image/png","uri":"data:image/png;base64,"}],"meshes":[{"primitives":[{"mode":4,"attributes":{"POSITION":0,"NORMAL":1,"TEXCOORD_0":2},"indices":3,"material":0},{"mode":4,"attributes":{"POSITION":0,"NORMAL":1,"TEXCOORD_0":2},"indices":4,"material":1},{"mode":4,"attributes":{"POSITION":0,"NORMAL":1,"TEXCOORD_0":2},"indices":5,"material":2},{"mode":4,"attributes":{"POSITION":0,"NORMAL":1,"TEXCOORD_0":2},"indices":6,"material":1},{"mode":4,"attributes":{"POSITION":0,"NORMAL":1,"TEXCOORD_0":2},"indices":7,"material":2},{"mode":4,"attributes":{"POSITION":0,"NORMAL":1,"TEXCOORD_0":2},"indices":8,"material":1},{"mode":4,"attributes":{"POSITION":0,"NORMAL":1,"TEXCOORD_0":2},"indices":9,"material":2},{"mode":4,"attributes":{"POSITION":0,"NORMAL":1,"TEXCOORD_0":2},"indices":10,"material":1},{"mode":4,"attributes":{"POSITION":0,"NORMAL":1,"TEXCOORD_0":2},"indices":11,"material":2},{"mode":4,"attributes":{"POSITION":0,"NORMAL":1,"TEXCOORD_0":2},"indices":12,"material":1},{"mode":4,"attributes":{"POSITION":0,"NORMAL":1,"TEXCOORD_0":2},"indices":13,"material":2},{"mode":4,"attributes":{"POSITION":0,"NORMAL":1,"TEXCOORD_0":2},"indices":14,"material":1},{"mode":4,"attributes":{"POSITION":0,"NORMAL":1,"TEXCOORD_0":2},"indices":15,"material":2},{"mode":4,"attributes":{"POSITION":0,"NORMAL":1,"TEXCOORD_0":2},"indices":16,"material":1},{"mode":4,"attributes":{"POSITION":0,"NORMAL":1,"TEXCOORD_0":2},"indices":17,"material":2},{"mode":4,"attributes":{"POSITION":0,"NORMAL":1,"TEXCOORD_0":2},"indices":18,"material":1},{"mode":4,"attributes":{"POSITION":0,"NORMAL":1,"TEXCOORD_0":2},"indices":19,"material":2},{"mode":4,"attributes":{"POSITION":0,"NORMAL":1,"TEXCOORD_0":2},"indices":20,"material":1},{"mode":4,"attributes":{"POSITION":0,"NORMAL":1,"TEXCOORD_0":2},"indices":21,"material":2},{"mode":4,"attributes":{"POSITION":0,"NORMAL":1,"TEXCOORD_0":2},"indices":22,"material":1},{"mode":4,"attributes":{"POSITION":0,"NORMAL":1,"TEXCOORD_0":2},"indices":23,"material":2},{"mode":4,"attributes":{"POSITION":0,"NORMAL":1,"TEXCOORD_0":2},"indices":24,"material":1},{"mode":4,"attributes":{"POSITION":0,"NORMAL":1,"TEXCOORD_0":2},"indices":25,"material":2},{"mode":4,"attributes":{"POSITION":0,"NORMAL":1,"TEXCOORD_0":2},"indices":26,"material":1},{"mode":4,"attributes":{"POSITION":0,"NORMAL":1,"TEXCOORD_0":2},"indices":27,"material":2},{"mode":4,"attributes":{"POSITION":0,"NORMAL":1,"TEXCOORD_0":2},"indices":28,"material":1}]},{"primitives":[{"mode":4,"attributes":{"POSITION":29,"NORMAL":30,"TEXCOORD_0":31},"indices":32,"material":3}]}]}