# Made in Blockbench 5.0.4
mtllib materials.mtl

o Estrutura
v -0.21750000000000003 0.40460526315789475 -0.1625
v -0.21750000000000003 0.40460526315789475 -0.17500000000000002
v -0.21750000000000003 0.27850877192982454 -0.1625
v -0.21750000000000003 0.27850877192982454 -0.17500000000000002
v -0.44500000000000006 0.40460526315789475 -0.1625
v -0.44500000000000006 0.40460526315789475 -0.17500000000000002
v -0.44500000000000006 0.27850877192982454 -0.1625
v -0.44500000000000006 0.27850877192982454 -0.17500000000000002
v -0.43041666666666667 0.38815789473684204 0.125
v -0.43041666666666667 0.38815789473684204 -0.1625
v -0.43041666666666667 0.27850877192982454 0.125
v -0.43041666666666667 0.27850877192982454 -0.1625
v -0.4362500000000001 0.38815789473684204 0.125
v -0.4362500000000001 0.38815789473684204 -0.1625
v -0.4362500000000001 0.27850877192982454 0.125
v -0.4362500000000001 0.27850877192982454 -0.1625
v -0.22625000000000006 0.38815789473684204 0.125
v -0.22625000000000006 0.38815789473684204 -0.1625
v -0.22625000000000006 0.27850877192982454 0.125
v -0.22625000000000006 0.27850877192982454 -0.1625
v -0.23208333333333342 0.38815789473684204 0.125
v -0.23208333333333342 0.38815789473684204 -0.1625
v -0.23208333333333342 0.27850877192982454 0.125
v -0.23208333333333342 0.27850877192982454 -0.1625
v -0.22625000000000006 0.38815789473684204 0.128125
v -0.22625000000000006 0.38815789473684204 0.12187500000000007
v -0.22625000000000006 0.27850877192982454 0.128125
v -0.22625000000000006 0.27850877192982454 0.12187500000000007
v -0.4362500000000001 0.38815789473684204 0.128125
v -0.4362500000000001 0.38815789473684204 0.12187500000000007
v -0.4362500000000001 0.27850877192982454 0.128125
v -0.4362500000000001 0.27850877192982454 0.12187500000000007
v -0.22625000000000006 0.27850877192982454 0.128125
v -0.22625000000000006 0.27850877192982454 -0.16875
v -0.22625000000000006 0.27850877192982454 0.128125
v -0.22625000000000006 0.27850877192982454 -0.16875
v -0.4362500000000001 0.27850877192982454 0.128125
v -0.4362500000000001 0.27850877192982454 -0.16875
v -0.4362500000000001 0.27850877192982454 0.128125
v -0.4362500000000001 0.27850877192982454 -0.16875
v -0.2729166666666667 0.34978070175438597 -0.16875
v -0.2729166666666667 0.34978070175438597 -0.184375
v -0.2729166666666667 0.3333333333333333 -0.16875
v -0.2729166666666667 0.3333333333333333 -0.184375
v -0.38958333333333345 0.34978070175438597 -0.16875
v -0.38958333333333345 0.34978070175438597 -0.184375
v -0.38958333333333345 0.3333333333333333 -0.16875
v -0.38958333333333345 0.3333333333333333 -0.184375
v 0.4125 0.4375 0.14375
v 0.4125 0.4375 -0.19375000000000003
v 0.4125 0.4100877192982456 0.14375
v 0.4125 0.4100877192982456 -0.19375000000000003
v -0.4625 0.4375 0.14375
v -0.4625 0.4375 -0.19375000000000003
v -0.4625 0.4100877192982456 0.14375
v -0.4625 0.4100877192982456 -0.19375000000000003
v 0.4125 0.4375 0.14375
v 0.4125 0.4375 -0.16875
v 0.4125 0.05372807017543857 0.14375
v 0.4125 0.05372807017543857 -0.16875
v 0.3833333333333332 0.4375 0.14375
v 0.3833333333333332 0.4375 -0.16875
v 0.3833333333333332 0.05372807017543857 0.14375
v 0.3833333333333332 0.05372807017543857 -0.16875
v -0.4333333333333334 0.4375 0.14375
v -0.4333333333333334 0.4375 -0.16875
v -0.4333333333333334 0.05372807017543857 0.14375
v -0.4333333333333334 0.05372807017543857 -0.16875
v -0.4625 0.4375 0.14375
v -0.4625 0.4375 -0.16875
v -0.4625 0.05372807017543857 0.14375
v -0.4625 0.05372807017543857 -0.16875
v -0.1970833333333334 0.4375 0.14375
v -0.1970833333333334 0.4375 -0.16875
v -0.1970833333333334 0.05372807017543857 0.14375
v -0.1970833333333334 0.05372807017543857 -0.16875
v -0.22625000000000006 0.4375 0.14375
v -0.22625000000000006 0.4375 -0.16875
v -0.22625000000000006 0.05372807017543857 0.14375
v -0.22625000000000006 0.05372807017543857 -0.16875
v -0.1970833333333334 0.060581140350877166 0.14375
v -0.1970833333333334 0.060581140350877166 -0.16875
v -0.1970833333333334 0.046875 0.14375
v -0.1970833333333334 0.046875 -0.16875
v -0.4625 0.060581140350877166 0.14375
v -0.4625 0.060581140350877166 -0.16875
v -0.4625 0.046875 0.14375
v -0.4625 0.046875 -0.16875
v -0.1970833333333334 0.4169407894736842 0.14375
v -0.1970833333333334 0.4169407894736842 -0.16875
v -0.1970833333333334 0.40323464912280704 0.14375
v -0.1970833333333334 0.40323464912280704 -0.16875
v -0.4625 0.4169407894736842 0.14375
v -0.4625 0.4169407894736842 -0.16875
v -0.4625 0.40323464912280704 0.14375
v -0.4625 0.40323464912280704 -0.16875
v -0.1970833333333334 0.2798793859649123 0.14375
v -0.1970833333333334 0.2798793859649123 -0.16875
v -0.1970833333333334 0.2661732456140351 0.14375
v -0.1970833333333334 0.2661732456140351 -0.16875
v -0.4625 0.2798793859649123 0.14375
v -0.4625 0.2798793859649123 -0.16875
v -0.4625 0.2661732456140351 0.14375
v -0.4625 0.2661732456140351 -0.16875
v -0.20000000000000007 0.4100877192982456 0.14375
v -0.20000000000000007 0.4100877192982456 0.14375
v -0.20000000000000007 0.05372807017543857 0.14375
v -0.20000000000000007 0.05372807017543857 0.14375
v -0.4333333333333334 0.4100877192982456 0.14375
v -0.4333333333333334 0.4100877192982456 0.14375
v -0.4333333333333334 0.05372807017543857 0.14375
v -0.4333333333333334 0.05372807017543857 0.14375
vt 0.08080808080808081 1
vt 0 1
vt 0 0.9416058394160584
vt 0.08080808080808081 0.9416058394160584
vt 0.08080808080808081 0.9416058394160584
vt 0.08080808080808081 1
vt 0 1
vt 0 0.9416058394160584
vt 0 0.8832116788321168
vt 0.08080808080808081 0.8832116788321168
vt 0.08080808080808081 1
vt 0 1
vt 0.08080808080808081 0.8832116788321168
vt 0.08080808080808081 1
vt 0 1
vt 0 0.8832116788321168
vt 0.08080808080808081 0.9416058394160584
vt 0.08080808080808081 1
vt 0 1
vt 0 0.9416058394160584
vt 0.08080808080808081 1
vt 0 1
vt 0 0.9416058394160584
vt 0.08080808080808081 0.9416058394160584
vt 0.08080808080808081 1
vt 0 1
vt 0 0.9416058394160584
vt 0.08080808080808081 0.9416058394160584
vt 0.08080808080808081 0.9416058394160584
vt 0.08080808080808081 1
vt 0 1
vt 0 0.9416058394160584
vt 0 0.8832116788321168
vt 0.08080808080808081 0.8832116788321168
vt 0.08080808080808081 1
vt 0 1
vt 0.08080808080808081 0.8832116788321168
vt 0.08080808080808081 1
vt 0 1
vt 0 0.8832116788321168
vt 1 0.5
vt 1 1
vt 0 1
vt 0 0.5
vt 1 1
vt 0 1
vt 0 0.5
vt 1 0.5
vt 0.08080808080808081 1
vt 0 1
vt 0 0.9416058394160584
vt 0.08080808080808081 0.9416058394160584
vt 0.08080808080808081 0.9416058394160584
vt 0.08080808080808081 1
vt 0 1
vt 0 0.9416058394160584
vt 0 0.8832116788321168
vt 0.08080808080808081 0.8832116788321168
vt 0.08080808080808081 1
vt 0 1
vt 0.08080808080808081 0.8832116788321168
vt 0.08080808080808081 1
vt 0 1
vt 0 0.8832116788321168
vt 1 0.5
vt 1 1
vt 0 1
vt 0 0.5
vt 1 1
vt 0 1
vt 0 0.5
vt 1 0.5
vt 0.08080808080808081 1
vt 0 1
vt 0 0.9416058394160584
vt 0.08080808080808081 0.9416058394160584
vt 0.08080808080808081 0.9416058394160584
vt 0.08080808080808081 1
vt 0 1
vt 0 0.9416058394160584
vt 0 0.8832116788321168
vt 0.08080808080808081 0.8832116788321168
vt 0.08080808080808081 1
vt 0 1
vt 0.08080808080808081 0.8832116788321168
vt 0.08080808080808081 1
vt 0 1
vt 0 0.8832116788321168
vt 0.08080808080808081 0.9416058394160584
vt 0.08080808080808081 1
vt 0 1
vt 0 0.9416058394160584
vt 0.08080808080808081 1
vt 0 1
vt 0 0.9416058394160584
vt 0.08080808080808081 0.9416058394160584
vt 0 1
vt 0 0.5
vt 1 1
vt 1 0.5
vt 1 1
vt 0 1
vt 1 0.5
vt 0 0.5
vt 0 0.8832116788321168
vt 0.08080808080808081 0.8832116788321168
vt 0.08080808080808081 1
vt 0 1
vt 1 0
vt 1 1
vt 0 1
vt 0 0
vt 1 1
vt 0 1
vt 1 0.5
vt 0 0.5
vt 0 1
vt 0 0.5
vt 1 1
vt 1 0.5
vt 0.07017543859649122 1
vt 0 1
vt 0 0.9493670886075949
vt 0.07017543859649122 0.9493670886075949
vt 0.07017543859649122 0.9493670886075949
vt 0.07017543859649122 1
vt 0 1
vt 0 0.9493670886075949
vt 0 0.8987341772151899
vt 0.07017543859649122 0.8987341772151899
vt 0.07017543859649122 1
vt 0 1
vt 0.07017543859649122 0.8987341772151899
vt 0.07017543859649122 1
vt 0 1
vt 0 0.8987341772151899
vt 1 0.5
vt 1 1
vt 0 1
vt 0 0.5
vt 0.07017543859649122 1
vt 0 1
vt 0 0.9493670886075949
vt 0.07017543859649122 0.9493670886075949
vt 0.07476635514018691 1
vt 0 1
vt 0 0.9459459459459459
vt 0.07476635514018691 0.9459459459459459
vt 0.07476635514018691 0.9459459459459459
vt 0.07476635514018691 1
vt 0 1
vt 0 0.9459459459459459
vt 0 0.8918918918918919
vt 0.07476635514018691 0.8918918918918919
vt 0.07476635514018691 1
vt 0 1
vt 0.07476635514018691 0.8918918918918919
vt 0.07476635514018691 1
vt 0 1
vt 0 0.8918918918918919
vt 0.07476635514018691 0.9459459459459459
vt 0.07476635514018691 1
vt 0 1
vt 0 0.9459459459459459
vt 0.07476635514018691 1
vt 0 1
vt 0 0.9459459459459459
vt 0.07476635514018691 0.9459459459459459
vt 0.07476635514018691 1
vt 0 1
vt 0 0.9459459459459459
vt 0.07476635514018691 0.9459459459459459
vt 0.07476635514018691 0.9459459459459459
vt 0.07476635514018691 1
vt 0 1
vt 0 0.9459459459459459
vt 0 0.8918918918918919
vt 0.07476635514018691 0.8918918918918919
vt 0.07476635514018691 1
vt 0 1
vt 0.07476635514018691 0.8918918918918919
vt 0.07476635514018691 1
vt 0 1
vt 0 0.8918918918918919
vt 0.07476635514018691 0.9459459459459459
vt 0.07476635514018691 1
vt 0 1
vt 0 0.9459459459459459
vt 0.07476635514018691 1
vt 0 1
vt 0 0.9459459459459459
vt 0.07476635514018691 0.9459459459459459
vt 0.07476635514018691 1
vt 0 1
vt 0 0.9459459459459459
vt 0.07476635514018691 0.9459459459459459
vt 0.07476635514018691 0.9459459459459459
vt 0.07476635514018691 1
vt 0 1
vt 0 0.9459459459459459
vt 0 0.8918918918918919
vt 0.07476635514018691 0.8918918918918919
vt 0.07476635514018691 1
vt 0 1
vt 1 0
vt 1 1
vt 0 1
vt 0 0
vt 0.07476635514018691 0.9459459459459459
vt 0.07476635514018691 1
vt 0 1
vt 0 0.9459459459459459
vt 0.07476635514018691 1
vt 0 1
vt 0 0.9459459459459459
vt 0.07476635514018691 0.9459459459459459
vt 0.07476635514018691 1
vt 0 1
vt 0 0.9459459459459459
vt 0.07476635514018691 0.9459459459459459
vt 0.07476635514018691 0.9459459459459459
vt 0.07476635514018691 1
vt 0 1
vt 0 0.9459459459459459
vt 0 0.8918918918918919
vt 0.07476635514018691 0.8918918918918919
vt 0.07476635514018691 1
vt 0 1
vt 1 0
vt 1 1
vt 0 1
vt 0 0
vt 0.07476635514018691 0.9459459459459459
vt 0.07476635514018691 1
vt 0 1
vt 0 0.9459459459459459
vt 0.07476635514018691 1
vt 0 1
vt 0 0.9459459459459459
vt 0.07476635514018691 0.9459459459459459
vt 0.07476635514018691 1
vt 0 1
vt 0 0.9459459459459459
vt 0.07476635514018691 0.9459459459459459
vt 0.07476635514018691 0.9459459459459459
vt 0.07476635514018691 1
vt 0 1
vt 0 0.9459459459459459
vt 0 0.8918918918918919
vt 0.07476635514018691 0.8918918918918919
vt 0.07476635514018691 1
vt 0 1
vt 0.07476635514018691 0.8918918918918919
vt 0.07476635514018691 1
vt 0 1
vt 0 0.8918918918918919
vt 0.07476635514018691 0.9459459459459459
vt 0.07476635514018691 1
vt 0 1
vt 0 0.9459459459459459
vt 0.07476635514018691 1
vt 0 1
vt 0 0.9459459459459459
vt 0.07476635514018691 0.9459459459459459
vt 0.07476635514018691 1
vt 0 1
vt 0 0.9459459459459459
vt 0.07476635514018691 0.9459459459459459
vt 0.07476635514018691 0.9459459459459459
vt 0.07476635514018691 1
vt 0 1
vt 0 0.9459459459459459
vt 0 0
vt 1 0
vt 1 1
vt 0 1
vt 0.07476635514018691 0.8918918918918919
vt 0.07476635514018691 1
vt 0 1
vt 0 0.8918918918918919
vt 0.07476635514018691 0.9459459459459459
vt 0.07476635514018691 1
vt 0 1
vt 0 0.9459459459459459
vt 0.07476635514018691 1
vt 0 1
vt 0 0.9459459459459459
vt 0.07476635514018691 0.9459459459459459
vt 0.07476635514018691 1
vt 0 1
vt 0 0.9459459459459459
vt 0.07476635514018691 0.9459459459459459
vt 0.07476635514018691 0.9459459459459459
vt 0.07476635514018691 1
vt 0 1
vt 0 0.9459459459459459
vt 0 0.8918918918918919
vt 0.07476635514018691 0.8918918918918919
vt 0.07476635514018691 1
vt 0 1
vt 0.07476635514018691 0.8918918918918919
vt 0.07476635514018691 1
vt 0 1
vt 0 0.8918918918918919
vt 0.07476635514018691 0.9459459459459459
vt 0.07476635514018691 1
vt 0 1
vt 0 0.9459459459459459
vt 0.07476635514018691 1
vt 0 1
vt 0 0.9459459459459459
vt 0.07476635514018691 0.9459459459459459
vt 1 1
vt 0 1
vt 0 0.5
vt 1 0.5
vt 1 1
vt 0 1
vt 1 0.5
vt 0 0.5
vt 1 0
vt 1 1
vt 0 0
vt 0 1
vt 1 1
vt 0 1
vt 1 0
vt 0 0
vt 0.07476635514018691 0.9459459459459459
vt 0.07476635514018691 1
vt 0 1
vt 0 0.9459459459459459
vt 1 1
vt 0 1
vt 0 0.5
vt 1 0.5
vn 1 0 0
vn -1 0 0
vn 0 1 0
vn 0 -1 0
vn 0 0 1
vn 0 0 -1
vn 1 0 0
vn -1 0 0
vn 0 1 0
vn 0 -1 0
vn 0 0 1
vn 0 0 -1
vn 1 0 0
vn -1 0 0
vn 0 1 0
vn 0 -1 0
vn 0 0 1
vn 0 0 -1
vn 1 0 0
vn -1 0 0
vn 0 1 0
vn 0 -1 0
vn 0 0 1
vn 0 0 -1
vn 0 0 0
vn 0 0 0
vn 0 1 0
vn 0 -1 0
vn 0 0 0
vn 0 0 0
vn 1 0 0
vn -1 0 0
vn 0 1 0
vn 0 -1 0
vn 0 0 1
vn 0 0 -1
vn 1 0 0
vn -1 0 0
vn 0 1 0
vn 0 -1 0
vn 0 0 1
vn 0 0 -1
vn 1 0 0
vn -1 0 0
vn 0 1 0
vn 0 -1 0
vn 0 0 1
vn 0 0 -1
vn 1 0 0
vn -1 0 0
vn 0 1 0
vn 0 -1 0
vn 0 0 1
vn 0 0 -1
vn 1 0 0
vn -1 0 0
vn 0 1 0
vn 0 -1 0
vn 0 0 1
vn 0 0 -1
vn 1 0 0
vn -1 0 0
vn 0 1 0
vn 0 -1 0
vn 0 0 1
vn 0 0 -1
vn 1 0 0
vn -1 0 0
vn 0 1 0
vn 0 -1 0
vn 0 0 1
vn 0 0 -1
vn 1 0 0
vn -1 0 0
vn 0 1 0
vn 0 -1 0
vn 0 0 1
vn 0 0 -1
vn 0 0 0
vn 0 0 0
vn 0 0 0
vn 0 0 0
vn 0 0 1
vn 0 0 -1
usemtl m_a9b76278-8b90-c5c7-d089-07b7f8f014b7
f 2/1/1 1/2/1 3/3/1 4/4/1
f 7/5/2 5/6/2 6/7/2 8/8/2
f 5/9/3 1/10/3 2/11/3 6/12/3
f 4/13/4 3/14/4 7/15/4 8/16/4
f 3/17/5 1/18/5 5/19/5 7/20/5
f 6/21/6 2/22/6 4/23/6 8/24/6
f 10/25/7 9/26/7 11/27/7 12/28/7
f 15/29/8 13/30/8 14/31/8 16/32/8
f 13/33/9 9/34/9 10/35/9 14/36/9
f 12/37/10 11/38/10 15/39/10 16/40/10
usemtl none
f 11/41/11 9/42/11 13/43/11 15/44/11
f 14/45/12 10/46/12 12/47/12 16/48/12
usemtl m_a9b76278-8b90-c5c7-d089-07b7f8f014b7
f 18/49/13 17/50/13 19/51/13 20/52/13
f 23/53/14 21/54/14 22/55/14 24/56/14
f 21/57/15 17/58/15 18/59/15 22/60/15
f 20/61/16 19/62/16 23/63/16 24/64/16
usemtl none
f 19/65/17 17/66/17 21/67/17 23/68/17
f 22/69/18 18/70/18 20/71/18 24/72/18
usemtl m_a9b76278-8b90-c5c7-d089-07b7f8f014b7
f 26/73/19 25/74/19 27/75/19 28/76/19
f 31/77/20 29/78/20 30/79/20 32/80/20
f 29/81/21 25/82/21 26/83/21 30/84/21
f 28/85/22 27/86/22 31/87/22 32/88/22
f 27/89/23 25/90/23 29/91/23 31/92/23
f 30/93/24 26/94/24 28/95/24 32/96/24
usemtl none
f 33/97/25 35/98/25 34/99/25 36/100/25
f 37/101/26 38/102/26 39/103/26 40/104/26
usemtl m_a9b76278-8b90-c5c7-d089-07b7f8f014b7
f 37/105/27 33/106/27 34/107/27 38/108/27
usemtl none
f 36/109/28 35/110/28 39/111/28 40/112/28
f 33/113/29 37/114/29 35/115/29 39/116/29
f 34/117/30 36/118/30 38/119/30 40/120/30
usemtl m_a467893b-e3d2-9f15-d653-894acecb95b1
f 42/121/31 41/122/31 43/123/31 44/124/31
f 47/125/32 45/126/32 46/127/32 48/128/32
f 45/129/33 41/130/33 42/131/33 46/132/33
f 44/133/34 43/134/34 47/135/34 48/136/34
usemtl none
f 43/137/35 41/138/35 45/139/35 47/140/35
usemtl m_a467893b-e3d2-9f15-d653-894acecb95b1
f 46/141/36 42/142/36 44/143/36 48/144/36
usemtl m_656fdf31-39d1-78d0-023a-0e2f04990294
f 50/145/37 49/146/37 51/147/37 52/148/37
f 55/149/38 53/150/38 54/151/38 56/152/38
f 53/153/39 49/154/39 50/155/39 54/156/39
f 52/157/40 51/158/40 55/159/40 56/160/40
f 51/161/41 49/162/41 53/163/41 55/164/41
f 54/165/42 50/166/42 52/167/42 56/168/42
f 58/169/43 57/170/43 59/171/43 60/172/43
f 63/173/44 61/174/44 62/175/44 64/176/44
f 61/177/45 57/178/45 58/179/45 62/180/45
f 60/181/46 59/182/46 63/183/46 64/184/46
f 59/185/47 57/186/47 61/187/47 63/188/47
f 62/189/48 58/190/48 60/191/48 64/192/48
f 66/193/49 65/194/49 67/195/49 68/196/49
f 71/197/50 69/198/50 70/199/50 72/200/50
f 69/201/51 65/202/51 66/203/51 70/204/51
usemtl none
f 68/205/52 67/206/52 71/207/52 72/208/52
usemtl m_656fdf31-39d1-78d0-023a-0e2f04990294
f 67/209/53 65/210/53 69/211/53 71/212/53
f 70/213/54 66/214/54 68/215/54 72/216/54
f 74/217/55 73/218/55 75/219/55 76/220/55
f 79/221/56 77/222/56 78/223/56 80/224/56
f 77/225/57 73/226/57 74/227/57 78/228/57
usemtl none
f 76/229/58 75/230/58 79/231/58 80/232/58
usemtl m_656fdf31-39d1-78d0-023a-0e2f04990294
f 75/233/59 73/234/59 77/235/59 79/236/59
f 78/237/60 74/238/60 76/239/60 80/240/60
f 82/241/61 81/242/61 83/243/61 84/244/61
f 87/245/62 85/246/62 86/247/62 88/248/62
f 85/249/63 81/250/63 82/251/63 86/252/63
f 84/253/64 83/254/64 87/255/64 88/256/64
f 83/257/65 81/258/65 85/259/65 87/260/65
f 86/261/66 82/262/66 84/263/66 88/264/66
f 90/265/67 89/266/67 91/267/67 92/268/67
f 95/269/68 93/270/68 94/271/68 96/272/68
usemtl none
f 93/273/69 89/274/69 90/275/69 94/276/69
usemtl m_656fdf31-39d1-78d0-023a-0e2f04990294
f 92/277/70 91/278/70 95/279/70 96/280/70
f 91/281/71 89/282/71 93/283/71 95/284/71
f 94/285/72 90/286/72 92/287/72 96/288/72
f 98/289/73 97/290/73 99/291/73 100/292/73
f 103/293/74 101/294/74 102/295/74 104/296/74
f 101/297/75 97/298/75 98/299/75 102/300/75
f 100/301/76 99/302/76 103/303/76 104/304/76
f 99/305/77 97/306/77 101/307/77 103/308/77
f 102/309/78 98/310/78 100/311/78 104/312/78
usemtl none
f 106/313/79 105/314/79 107/315/79 108/316/79
f 109/317/80 110/318/80 111/319/80 112/320/80
f 105/321/81 106/322/81 109/323/81 110/324/81
f 107/325/82 111/326/82 108/327/82 112/328/82
usemtl m_656fdf31-39d1-78d0-023a-0e2f04990294
f 107/329/83 105/330/83 109/331/83 111/332/83
usemtl none
f 110/333/84 106/334/84 108/335/84 112/336/84