{"asset":{"version":"2.0","generator":"Blockbench 5.0.3 glTF exporter"},"scenes":[{"nodes":[0,1,2],"name":"blockbench_export"}],"scene":0,"nodes":[{"name":"inf","mesh":0},{"translation":[0,0.00625,0],"name":"meio","mesh":1},{"translation":[0,0.0125,0],"name":"sup","mesh":2}],"bufferViews":[{"buffer":0,"byteOffset":0,"byteLength":1440,"target":34962,"byteStride":12},{"buffer":0,"byteOffset":1440,"byteLength":1440,"target":34962,"byteStride":12},{"buffer":0,"byteOffset":2880,"byteLength":960,"target":34962,"byteStride":8},{"buffer":0,"byteOffset":3840,"byteLength":288,"target":34963},{"buffer":0,"byteOffset":4128,"byteLength":1440,"target":34962,"byteStride":12},{"buffer":0,"byteOffset":5568,"byteLength":1440,"target":34962,"byteStride":12},{"buffer":0,"byteOffset":7008,"byteLength":960,"target":34962,"byteStride":8},{"buffer":0,"byteOffset":7968,"byteLength":8,"target":34963},{"buffer":0,"byteOffset":7976,"byteLength":20,"target":34963},{"buffer":0,"byteOffset":7996,"byteLength":8,"target":34963},{"buffer":0,"byteOffset":8004,"byteLength":20,"target":34963},{"buffer":0,"byteOffset":8024,"byteLength":8,"target":34963},{"buffer":0,"byteOffset":8032,"byteLength":20,"target":34963},{"buffer":0,"byteOffset":8052,"byteLength":8,"target":34963},{"buffer":0,"byteOffset":8060,"byteLength":20,"target":34963},{"buffer":0,"byteOffset":8080,"byteLength":8,"target":34963},{"buffer":0,"byteOffset":8088,"byteLength":20,"target":34963},{"buffer":0,"byteOffset":8108,"byteLength":8,"target":34963},{"buffer":0,"byteOffset":8116,"byteLength":20,"target":34963},{"buffer":0,"byteOffset":8136,"byteLength":8,"target":34963},{"buffer":0,"byteOffset":8144,"byteLength":20,"target":34963},{"buffer":0,"byteOffset":8164,"byteLength":8,"target":34963},{"buffer":0,"byteOffset":8172,"byteLength":20,"target":34963},{"buffer":0,"byteOffset":8192,"byteLength":8,"target":34963},{"buffer":0,"byteOffset":8200,"byteLength":20,"target":34963},{"buffer":0,"byteOffset":8220,"byteLength":8,"target":34963},{"buffer":0,"byteOffset":8228,"byteLength":20,"target":34963},{"buffer":0,"byteOffset":8248,"byteLength":8,"target":34963},{"buffer":0,"byteOffset":8256,"byteLength":20,"target":34963},{"buffer":0,"byteOffset":8276,"byteLength":8,"target":34963},{"buffer":0,"byteOffset":8284,"byteLength":20,"target":34963},{"buffer":0,"byteOffset":8304,"byteLength":1440,"target":34962,"byteStride":12},{"buffer":0,"byteOffset":9744,"byteLength":1440,"target":34962,"byteStride":12},{"buffer":0,"byteOffset":11184,"byteLength":960,"target":34962,"byteStride":8},{"buffer":0,"byteOffset":12144,"byteLength":8,"target":34963},{"buffer":0,"byteOffset":12152,"byteLength":20,"target":34963},{"buffer":0,"byteOffset":12172,"byteLength":8,"target":34963},{"buffer":0,"byteOffset":12180,"byteLength":20,"target":34963},{"buffer":0,"byteOffset":12200,"byteLength":8,"target":34963},{"buffer":0,"byteOffset":12208,"byteLength":20,"target":34963},{"buffer":0,"byteOffset":12228,"byteLength":8,"target":34963},{"buffer":0,"byteOffset":12236,"byteLength":20,"target":34963},{"buffer":0,"byteOffset":12256,"byteLength":8,"target":34963},{"buffer":0,"byteOffset":12264,"byteLength":20,"target":34963},{"buffer":0,"byteOffset":12284,"byteLength":8,"target":34963},{"buffer":0,"byteOffset":12292,"byteLength":20,"target":34963},{"buffer":0,"byteOffset":12312,"byteLength":8,"target":34963},{"buffer":0,"byteOffset":12320,"byteLength":20,"target":34963},{"buffer":0,"byteOffset":12340,"byteLength":8,"target":34963},{"buffer":0,"byteOffset":12348,"byteLength":20,"target":34963},{"buffer":0,"byteOffset":12368,"byteLength":20,"target":34963},{"buffer":0,"byteOffset":12388,"byteLength":8,"target":34963},{"buffer":0,"byteOffset":12396,"byteLength":8,"target":34963},{"buffer":0,"byteOffset":12404,"byteLength":20,"target":34963},{"buffer":0,"byteOffset":12424,"byteLength":8,"target":34963},{"buffer":0,"byteOffset":12432,"byteLength":20,"target":34963},{"buffer":0,"byteOffset":12452,"byteLength":8,"target":34963},{"buffer":0,"byteOffset":12460,"byteLength":20,"target":34963}],"buffers":[{"byteLength":12480,"uri":"data:application/octet-stream;base64,"}],"accessors":[{"bufferView":0,"componentType":5126,"count":120,"max":[0.75,0.26249998807907104,0.75],"min":[-0.75,0.23749999701976776,-0.75],"type":"VEC3"},{"bufferView":1,"componentType":5126,"count":120,"max":[1,1,1],"min":[-1,-1,-1],"type":"VEC3"},{"bufferView":2,"componentType":5126,"count":120,"max":[0.03235238790512085,0.0647047758102417],"min":[0,0],"type":"VEC2"},{"bufferView":3,"componentType":5123,"count":144,"max":[119],"min":[0],"type":"SCALAR"},{"bufferView":4,"componentType":5126,"count":120,"max":[0.6875,0.26249998807907104,0.6875],"min":[-0.6875,0.23749999701976776,-0.6875],"type":"VEC3"},{"bufferView":5,"componentType":5126,"count":120,"max":[1,1,1],"min":[-1,-1,-1],"type":"VEC3"},{"bufferView":6,"componentType":5126,"count":120,"max":[0.5176382064819336,0.5],"min":[0,0],"type":"VEC2"},{"bufferView":7,"componentType":5123,"count":3,"max":[2],"min":[0],"type":"SCALAR"},{"bufferView":8,"componentType":5123,"count":9,"max":[9],"min":[3],"type":"SCALAR"},{"bufferView":9,"componentType":5123,"count":3,"max":[12],"min":[10],"type":"SCALAR"},{"bufferView":10,"componentType":5123,"count":9,"max":[19],"min":[13],"type":"SCALAR"},{"bufferView":11,"componentType":5123,"count":3,"max":[22],"min":[20],"type":"SCALAR"},{"bufferView":12,"componentType":5123,"count":9,"max":[29],"min":[23],"type":"SCALAR"},{"bufferView":13,"componentType":5123,"count":3,"max":[32],"min":[30],"type":"SCALAR"},{"bufferView":14,"componentType":5123,"count":9,"max":[39],"min":[33],"type":"SCALAR"},{"bufferView":15,"componentType":5123,"count":3,"max":[42],"min":[40],"type":"SCALAR"},{"bufferView":16,"componentType":5123,"count":9,"max":[49],"min":[43],"type":"SCALAR"},{"bufferView":17,"componentType":5123,"count":3,"max":[52],"min":[50],"type":"SCALAR"},{"bufferView":18,"componentType":5123,"count":9,"max":[59],"min":[53],"type":"SCALAR"},{"bufferView":19,"componentType":5123,"count":3,"max":[62],"min":[60],"type":"SCALAR"},{"bufferView":20,"componentType":5123,"count":9,"max":[69],"min":[63],"type":"SCALAR"},{"bufferView":21,"componentType":5123,"count":3,"max":[72],"min":[70],"type":"SCALAR"},{"bufferView":22,"componentType":5123,"count":9,"max":[79],"min":[73],"type":"SCALAR"},{"bufferView":23,"componentType":5123,"count":3,"max":[82],"min":[80],"type":"SCALAR"},{"bufferView":24,"componentType":5123,"count":9,"max":[89],"min":[83],"type":"SCALAR"},{"bufferView":25,"componentType":5123,"count":3,"max":[92],"min":[90],"type":"SCALAR"},{"bufferView":26,"componentType":5123,"count":9,"max":[99],"min":[93],"type":"SCALAR"},{"bufferView":27,"componentType":5123,"count":3,"max":[102],"min":[100],"type":"SCALAR"},{"bufferView":28,"componentType":5123,"count":9,"max":[109],"min":[103],"type":"SCALAR"},{"bufferView":29,"componentType":5123,"count":3,"max":[112],"min":[110],"type":"SCALAR"},{"bufferView":30,"componentType":5123,"count":9,"max":[119],"min":[113],"type":"SCALAR"},{"bufferView":31,"componentType":5126,"count":120,"max":[0.4375,0.26249998807907104,0.4375],"min":[-0.4375,0.23749999701976776,-0.4375],"type":"VEC3"},{"bufferView":32,"componentType":5126,"count":120,"max":[1,1,1],"min":[-1,-1,-1],"type":"VEC3"},{"bufferView":33,"componentType":5126,"count":120,"max":[0.5176382064819336,0.5176382064819336],"min":[0,0],"type":"VEC2"},{"bufferView":34,"componentType":5123,"count":3,"max":[2],"min":[0],"type":"SCALAR"},{"bufferView":35,"componentType":5123,"count":9,"max":[9],"min":[3],"type":"SCALAR"},{"bufferView":36,"componentType":5123,"count":3,"max":[12],"min":[10],"type":"SCALAR"},{"bufferView":37,"componentType":5123,"count":9,"max":[19],"min":[13],"type":"SCALAR"},{"bufferView":38,"componentType":5123,"count":3,"max":[22],"min":[20],"type":"SCALAR"},{"bufferView":39,"componentType":5123,"count":9,"max":[29],"min":[23],"type":"SCALAR"},{"bufferView":40,"componentType":5123,"count":3,"max":[32],"min":[30],"type":"SCALAR"},{"bufferView":41,"componentType":5123,"count":9,"max":[39],"min":[33],"type":"SCALAR"},{"bufferView":42,"componentType":5123,"count":3,"max":[42],"min":[40],"type":"SCALAR"},{"bufferView":43,"componentType":5123,"count":9,"max":[49],"min":[43],"type":"SCALAR"},{"bufferView":44,"componentType":5123,"count":3,"max":[52],"min":[50],"type":"SCALAR"},{"bufferView":45,"componentType":5123,"count":9,"max":[59],"min":[53],"type":"SCALAR"},{"bufferView":46,"componentType":5123,"count":3,"max":[62],"min":[60],"type":"SCALAR"},{"bufferView":47,"componentType":5123,"count":9,"max":[69],"min":[63],"type":"SCALAR"},{"bufferView":48,"componentType":5123,"count":3,"max":[72],"min":[70],"type":"SCALAR"},{"bufferView":49,"componentType":5123,"count":9,"max":[79],"min":[73],"type":"SCALAR"},{"bufferView":50,"componentType":5123,"count":9,"max":[86],"min":[80],"type":"SCALAR"},{"bufferView":51,"componentType":5123,"count":3,"max":[89],"min":[87],"type":"SCALAR"},{"bufferView":52,"componentType":5123,"count":3,"max":[92],"min":[90],"type":"SCALAR"},{"bufferView":53,"componentType":5123,"count":9,"max":[99],"min":[93],"type":"SCALAR"},{"bufferView":54,"componentType":5123,"count":3,"max":[102],"min":[100],"type":"SCALAR"},{"bufferView":55,"componentType":5123,"count":9,"max":[109],"min":[103],"type":"SCALAR"},{"bufferView":56,"componentType":5123,"count":3,"max":[112],"min":[110],"type":"SCALAR"},{"bufferView":57,"componentType":5123,"count":9,"max":[119],"min":[113],"type":"SCALAR"}],"materials":[{"pbrMetallicRoughness":{"metallicFactor":0,"roughnessFactor":1,"baseColorTexture":{"index":0}},"alphaMode":"MASK","alphaCutoff":0.05,"doubleSided":true},{"pbrMetallicRoughness":{"metallicFactor":0,"roughnessFactor":1},"alphaMode":"MASK","alphaCutoff":0.05,"doubleSided":true},{"pbrMetallicRoughness":{"metallicFactor":0,"roughnessFactor":1,"baseColorTexture":{"index":1}},"alphaMode":"MASK","alphaCutoff":0.05,"doubleSided":true},{"pbrMetallicRoughness":{"metallicFactor":0,"roughnessFactor":1,"baseColorTexture":{"index":2}},"alphaMode":"MASK","alphaCutoff":0.05,"doubleSided":true}],"textures":[{"sampler":0,"source":0,"name":"6a0dad.png"},{"sampler":1,"source":1,"name":"5c3e94.png"},{"sampler":2,"source":2,"name":"f5cb5c.png"}],"samplers":[{"magFilter":9728,"minFilter":9728,"wrapS":33071,"wrapT":33071},{"magFilter":9728,"minFilter":9728,"wrapS":33071,"wrapT":33071},{"magFilter":9728,"minFilter":9728,"wrapS":33071,"wrapT":33071}],"images":[{"mimeType":"image/png","uri":"data:image/png;base64,"},{"mimeType":"image/png","uri":"data:image/png;base64,"},{"mimeType":"image/png","uri":"data:image/png;base64,"}],"meshes":[{"primitives":[{"mode":4,"attributes":{"POSITION":0,"NORMAL":1,"TEXCOORD_0":2},"indices":3,"material":0}]},{"primitives":[{"mode":4,"attributes":{"POSITION":4,"NORMAL":5,"TEXCOORD_0":6},"indices":7,"material":1},{"mode":4,"attributes":{"POSITION":4,"NORMAL":5,"TEXCOORD_0":6},"indices":8,"material":2},{"mode":4,"attributes":{"POSITION":4,"NORMAL":5,"TEXCOORD_0":6},"indices":9,"material":1},{"mode":4,"attributes":{"POSITION":4,"NORMAL":5,"TEXCOORD_0":6},"indices":10,"material":2},{"mode":4,"attributes":{"POSITION":4,"NORMAL":5,"TEXCOORD_0":6},"indices":11,"material":1},{"mode":4,"attributes":{"POSITION":4,"NORMAL":5,"TEXCOORD_0":6},"indices":12,"material":2},{"mode":4,"attributes":{"POSITION":4,"NORMAL":5,"TEXCOORD_0":6},"indices":13,"material":1},{"mode":4,"attributes":{"POSITION":4,"NORMAL":5,"TEXCOORD_0":6},"indices":14,"material":2},{"mode":4,"attributes":{"POSITION":4,"NORMAL":5,"TEXCOORD_0":6},"indices":15,"material":1},{"mode":4,"attributes":{"POSITION":4,"NORMAL":5,"TEXCOORD_0":6},"indices":16,"material":2},{"mode":4,"attributes":{"POSITION":4,"NORMAL":5,"TEXCOORD_0":6},"indices":17,"material":1},{"mode":4,"attributes":{"POSITION":4,"NORMAL":5,"TEXCOORD_0":6},"indices":18,"material":2},{"mode":4,"attributes":{"POSITION":4,"NORMAL":5,"TEXCOORD_0":6},"indices":19,"material":1},{"mode":4,"attributes":{"POSITION":4,"NORMAL":5,"TEXCOORD_0":6},"indices":20,"material":2},{"mode":4,"attributes":{"POSITION":4,"NORMAL":5,"TEXCOORD_0":6},"indices":21,"material":1},{"mode":4,"attributes":{"POSITION":4,"NORMAL":5,"TEXCOORD_0":6},"indices":22,"material":2},{"mode":4,"attributes":{"POSITION":4,"NORMAL":5,"TEXCOORD_0":6},"indices":23,"material":1},{"mode":4,"attributes":{"POSITION":4,"NORMAL":5,"TEXCOORD_0":6},"indices":24,"material":2},{"mode":4,"attributes":{"POSITION":4,"NORMAL":5,"TEXCOORD_0":6},"indices":25,"material":1},{"mode":4,"attributes":{"POSITION":4,"NORMAL":5,"TEXCOORD_0":6},"indices":26,"material":2},{"mode":4,"attributes":{"POSITION":4,"NORMAL":5,"TEXCOORD_0":6},"indices":27,"material":1},{"mode":4,"attributes":{"POSITION":4,"NORMAL":5,"TEXCOORD_0":6},"indices":28,"material":2},{"mode":4,"attributes":{"POSITION":4,"NORMAL":5,"TEXCOORD_0":6},"indices":29,"material":1},{"mode":4,"attributes":{"POSITION":4,"NORMAL":5,"TEXCOORD_0":6},"indices":30,"material":2}]},{"primitives":[{"mode":4,"attributes":{"POSITION":31,"NORMAL":32,"TEXCOORD_0":33},"indices":34,"material":1},{"mode":4,"attributes":{"POSITION":31,"NORMAL":32,"TEXCOORD_0":33},"indices":35,"material":3},{"mode":4,"attributes":{"POSITION":31,"NORMAL":32,"TEXCOORD_0":33},"indices":36,"material":1},{"mode":4,"attributes":{"POSITION":31,"NORMAL":32,"TEXCOORD_0":33},"indices":37,"material":3},{"mode":4,"attributes":{"POSITION":31,"NORMAL":32,"TEXCOORD_0":33},"indices":38,"material":1},{"mode":4,"attributes":{"POSITION":31,"NORMAL":32,"TEXCOORD_0":33},"indices":39,"material":3},{"mode":4,"attributes":{"POSITION":31,"NORMAL":32,"TEXCOORD_0":33},"indices":40,"material":1},{"mode":4,"attributes":{"POSITION":31,"NORMAL":32,"TEXCOORD_0":33},"indices":41,"material":3},{"mode":4,"attributes":{"POSITION":31,"NORMAL":32,"TEXCOORD_0":33},"indices":42,"material":1},{"mode":4,"attributes":{"POSITION":31,"NORMAL":32,"TEXCOORD_0":33},"indices":43,"material":3},{"mode":4,"attributes":{"POSITION":31,"NORMAL":32,"TEXCOORD_0":33},"indices":44,"material":1},{"mode":4,"attributes":{"POSITION":31,"NORMAL":32,"TEXCOORD_0":33},"indices":45,"material":3},{"mode":4,"attributes":{"POSITION":31,"NORMAL":32,"TEXCOORD_0":33},"indices":46,"material":1},{"mode":4,"attributes":{"POSITION":31,"NORMAL":32,"TEXCOORD_0":33},"indices":47,"material":3},{"mode":4,"attributes":{"POSITION":31,"NORMAL":32,"TEXCOORD_0":33},"indices":48,"material":1},{"mode":4,"attributes":{"POSITION":31,"NORMAL":32,"TEXCOORD_0":33},"indices":49,"material":3},{"mode":4,"attributes":{"POSITION":31,"NORMAL":32,"TEXCOORD_0":33},"indices":50,"material":1},{"mode":4,"attributes":{"POSITION":31,"NORMAL":32,"TEXCOORD_0":33},"indices":51,"material":3},{"mode":4,"attributes":{"POSITION":31,"NORMAL":32,"TEXCOORD_0":33},"indices":52,"material":1},{"mode":4,"attributes":{"POSITION":31,"NORMAL":32,"TEXCOORD_0":33},"indices":53,"material":3},{"mode":4,"attributes":{"POSITION":31,"NORMAL":32,"TEXCOORD_0":33},"indices":54,"material":1},{"mode":4,"attributes":{"POSITION":31,"NORMAL":32,"TEXCOORD_0":33},"indices":55,"material":3},{"mode":4,"attributes":{"POSITION":31,"NORMAL":32,"TEXCOORD_0":33},"indices":56,"material":1},{"mode":4,"attributes":{"POSITION":31,"NORMAL":32,"TEXCOORD_0":33},"indices":57,"material":3}]}]}