{"asset":{"version":"2.0","generator":"Blockbench 5.0.3 glTF exporter"},"scenes":[{"nodes":[0,1,2,3,4,5,6,7,8,9,10,11,12,13,14,15,16,17],"name":"blockbench_export"}],"scene":0,"nodes":[{"translation":[0,-0.00625,0],"name":"cylinder","mesh":0},{"translation":[0,0.043750000000000004,0],"name":"cylinder","mesh":1},{"translation":[0,0.07500000000000001,0],"name":"cylinder","mesh":2},{"translation":[0,0.11250000000000004,0],"name":"cylinder","mesh":3},{"translation":[0,0.13750000000000007,0],"name":"cylinder","mesh":4},{"rotation":[0.7071067811865475,0,0,0.7071067811865476],"translation":[0,0.37500000000000044,0.0375],"name":"cylinder","mesh":5},{"rotation":[0.7071067811865475,0,0,0.7071067811865476],"translation":[0,0.37500000000000044,-0.037500000000000006],"name":"cylinder","mesh":6},{"rotation":[0.5,-0.4999999999999999,0.5,0.5000000000000001],"translation":[0.037500000000000006,0.37500000000000044,0],"name":"cylinder","mesh":7},{"rotation":[0.5,-0.4999999999999999,0.5,0.5000000000000001],"translation":[-0.037500000000000006,0.37500000000000044,0],"name":"cylinder","mesh":8},{"translation":[0,0.2500000000000002,0],"name":"torus","mesh":9},{"translation":[0,0.26875000000000016,0],"name":"torus","mesh":10},{"translation":[0,0.2250000000000002,0],"name":"torus","mesh":11},{"translation":[0,0.2312500000000002,0],"name":"torus","mesh":12},{"translation":[0,0.2375000000000002,0],"name":"torus","mesh":13},{"translation":[0.0625,0.375,0],"name":"sphere","mesh":14},{"translation":[-0.0625,0.375,0],"name":"sphere","mesh":15},{"translation":[0,0.375,0.0625],"name":"sphere","mesh":16},{"translation":[0,0.375,-0.0625],"name":"sphere","mesh":17}],"bufferViews":[{"buffer":0,"byteOffset":0,"byteLength":1440,"target":34962,"byteStride":12},{"buffer":0,"byteOffset":1440,"byteLength":1440,"target":34962,"byteStride":12},{"buffer":0,"byteOffset":2880,"byteLength":960,"target":34962,"byteStride":8},{"buffer":0,"byteOffset":3840,"byteLength":288,"target":34963},{"buffer":0,"byteOffset":4128,"byteLength":1440,"target":34962,"byteStride":12},{"buffer":0,"byteOffset":5568,"byteLength":1440,"target":34962,"byteStride":12},{"buffer":0,"byteOffset":7008,"byteLength":960,"target":34962,"byteStride":8},{"buffer":0,"byteOffset":7968,"byteLength":288,"target":34963},{"buffer":0,"byteOffset":8256,"byteLength":1440,"target":34962,"byteStride":12},{"buffer":0,"byteOffset":9696,"byteLength":1440,"target":34962,"byteStride":12},{"buffer":0,"byteOffset":11136,"byteLength":960,"target":34962,"byteStride":8},{"buffer":0,"byteOffset":12096,"byteLength":288,"target":34963},{"buffer":0,"byteOffset":12384,"byteLength":1440,"target":34962,"byteStride":12},{"buffer":0,"byteOffset":13824,"byteLength":1440,"target":34962,"byteStride":12},{"buffer":0,"byteOffset":15264,"byteLength":960,"target":34962,"byteStride":8},{"buffer":0,"byteOffset":16224,"byteLength":288,"target":34963},{"buffer":0,"byteOffset":16512,"byteLength":1440,"target":34962,"byteStride":12},{"buffer":0,"byteOffset":17952,"byteLength":1440,"target":34962,"byteStride":12},{"buffer":0,"byteOffset":19392,"byteLength":960,"target":34962,"byteStride":8},{"buffer":0,"byteOffset":20352,"byteLength":288,"target":34963},{"buffer":0,"byteOffset":20640,"byteLength":1440,"target":34962,"byteStride":12},{"buffer":0,"byteOffset":22080,"byteLength":1440,"target":34962,"byteStride":12},{"buffer":0,"byteOffset":23520,"byteLength":960,"target":34962,"byteStride":8},{"buffer":0,"byteOffset":24480,"byteLength":288,"target":34963},{"buffer":0,"byteOffset":24768,"byteLength":1440,"target":34962,"byteStride":12},{"buffer":0,"byteOffset":26208,"byteLength":1440,"target":34962,"byteStride":12},{"buffer":0,"byteOffset":27648,"byteLength":960,"target":34962,"byteStride":8},{"buffer":0,"byteOffset":28608,"byteLength":288,"target":34963},{"buffer":0,"byteOffset":28896,"byteLength":1440,"target":34962,"byteStride":12},{"buffer":0,"byteOffset":30336,"byteLength":1440,"target":34962,"byteStride":12},{"buffer":0,"byteOffset":31776,"byteLength":960,"target":34962,"byteStride":8},{"buffer":0,"byteOffset":32736,"byteLength":288,"target":34963},{"buffer":0,"byteOffset":33024,"byteLength":1440,"target":34962,"byteStride":12},{"buffer":0,"byteOffset":34464,"byteLength":1440,"target":34962,"byteStride":12},{"buffer":0,"byteOffset":35904,"byteLength":960,"target":34962,"byteStride":8},{"buffer":0,"byteOffset":36864,"byteLength":288,"target":34963},{"buffer":0,"byteOffset":37152,"byteLength":4608,"target":34962,"byteStride":12},{"buffer":0,"byteOffset":41760,"byteLength":4608,"target":34962,"byteStride":12},{"buffer":0,"byteOffset":46368,"byteLength":3072,"target":34962,"byteStride":8},{"buffer":0,"byteOffset":49440,"byteLength":1152,"target":34963},{"buffer":0,"byteOffset":50592,"byteLength":4608,"target":34962,"byteStride":12},{"buffer":0,"byteOffset":55200,"byteLength":4608,"target":34962,"byteStride":12},{"buffer":0,"byteOffset":59808,"byteLength":3072,"target":34962,"byteStride":8},{"buffer":0,"byteOffset":62880,"byteLength":1152,"target":34963},{"buffer":0,"byteOffset":64032,"byteLength":4608,"target":34962,"byteStride":12},{"buffer":0,"byteOffset":68640,"byteLength":4608,"target":34962,"byteStride":12},{"buffer":0,"byteOffset":73248,"byteLength":3072,"target":34962,"byteStride":8},{"buffer":0,"byteOffset":76320,"byteLength":1152,"target":34963},{"buffer":0,"byteOffset":77472,"byteLength":4608,"target":34962,"byteStride":12},{"buffer":0,"byteOffset":82080,"byteLength":4608,"target":34962,"byteStride":12},{"buffer":0,"byteOffset":86688,"byteLength":3072,"target":34962,"byteStride":8},{"buffer":0,"byteOffset":89760,"byteLength":1152,"target":34963},{"buffer":0,"byteOffset":90912,"byteLength":4608,"target":34962,"byteStride":12},{"buffer":0,"byteOffset":95520,"byteLength":4608,"target":34962,"byteStride":12},{"buffer":0,"byteOffset":100128,"byteLength":3072,"target":34962,"byteStride":8},{"buffer":0,"byteOffset":103200,"byteLength":1152,"target":34963},{"buffer":0,"byteOffset":104352,"byteLength":3168,"target":34962,"byteStride":12},{"buffer":0,"byteOffset":107520,"byteLength":3168,"target":34962,"byteStride":12},{"buffer":0,"byteOffset":110688,"byteLength":2112,"target":34962,"byteStride":8},{"buffer":0,"byteOffset":112800,"byteLength":720,"target":34963},{"buffer":0,"byteOffset":113520,"byteLength":3168,"target":34962,"byteStride":12},{"buffer":0,"byteOffset":116688,"byteLength":3168,"target":34962,"byteStride":12},{"buffer":0,"byteOffset":119856,"byteLength":2112,"target":34962,"byteStride":8},{"buffer":0,"byteOffset":121968,"byteLength":720,"target":34963},{"buffer":0,"byteOffset":122688,"byteLength":3168,"target":34962,"byteStride":12},{"buffer":0,"byteOffset":125856,"byteLength":3168,"target":34962,"byteStride":12},{"buffer":0,"byteOffset":129024,"byteLength":2112,"target":34962,"byteStride":8},{"buffer":0,"byteOffset":131136,"byteLength":720,"target":34963},{"buffer":0,"byteOffset":131856,"byteLength":3168,"target":34962,"byteStride":12},{"buffer":0,"byteOffset":135024,"byteLength":3168,"target":34962,"byteStride":12},{"buffer":0,"byteOffset":138192,"byteLength":2112,"target":34962,"byteStride":8},{"buffer":0,"byteOffset":140304,"byteLength":720,"target":34963}],"buffers":[{"byteLength":141024,"uri":"data:application/octet-stream;base64,"}],"accessors":[{"bufferView":0,"componentType":5126,"count":120,"max":[0.03125,0.28125,0.03125],"min":[-0.03125,0.21875,-0.03125],"type":"VEC3"},{"bufferView":1,"componentType":5126,"count":120,"max":[1,1,1],"min":[-1,-1,-1],"type":"VEC3"},{"bufferView":2,"componentType":5126,"count":120,"max":[0.03235238790512085,0.03235239163041115],"min":[0,0],"type":"VEC2"},{"bufferView":3,"componentType":5123,"count":144,"max":[119],"min":[0],"type":"SCALAR"},{"bufferView":4,"componentType":5126,"count":120,"max":[0.02500000037252903,0.26875001192092896,0.02500000037252903],"min":[-0.02500000037252903,0.23125000298023224,-0.02500000037252903],"type":"VEC3"},{"bufferView":5,"componentType":5126,"count":120,"max":[1,1,1],"min":[-1,-1,-1],"type":"VEC3"},{"bufferView":6,"componentType":5126,"count":120,"max":[0.03235238790512085,0.03235239163041115],"min":[0,0],"type":"VEC2"},{"bufferView":7,"componentType":5123,"count":144,"max":[119],"min":[0],"type":"SCALAR"},{"bufferView":8,"componentType":5126,"count":120,"max":[0.01875000074505806,0.26249998807907104,0.01875000074505806],"min":[-0.01875000074505806,0.23749999701976776,-0.01875000074505806],"type":"VEC3"},{"bufferView":9,"componentType":5126,"count":120,"max":[1,1,1],"min":[-1,-1,-1],"type":"VEC3"},{"bufferView":10,"componentType":5126,"count":120,"max":[0.03235238790512085,0.03235239163041115],"min":[0,0],"type":"VEC2"},{"bufferView":11,"componentType":5123,"count":144,"max":[119],"min":[0],"type":"SCALAR"},{"bufferView":12,"componentType":5126,"count":120,"max":[0.02500000037252903,0.2750000059604645,0.02500000037252903],"min":[-0.02500000037252903,0.22499999403953552,-0.02500000037252903],"type":"VEC3"},{"bufferView":13,"componentType":5126,"count":120,"max":[1,1,1],"min":[-1,-1,-1],"type":"VEC3"},{"bufferView":14,"componentType":5126,"count":120,"max":[0.03235238790512085,0.03235239163041115],"min":[0,0],"type":"VEC2"},{"bufferView":15,"componentType":5123,"count":144,"max":[119],"min":[0],"type":"SCALAR"},{"bufferView":16,"componentType":5126,"count":120,"max":[0.01875000074505806,0.2562499940395355,0.01875000074505806],"min":[-0.01875000074505806,0.24375000596046448,-0.01875000074505806],"type":"VEC3"},{"bufferView":17,"componentType":5126,"count":120,"max":[1,1,1],"min":[-1,-1,-1],"type":"VEC3"},{"bufferView":18,"componentType":5126,"count":120,"max":[0.03235238790512085,0.03235239163041115],"min":[0,0],"type":"VEC2"},{"bufferView":19,"componentType":5123,"count":144,"max":[119],"min":[0],"type":"SCALAR"},{"bufferView":20,"componentType":5126,"count":120,"max":[0.0062500000931322575,0.012500000186264515,0.012500000186264515],"min":[-0.0062500000931322575,-0.012500000186264515,-0.012500000186264515],"type":"VEC3"},{"bufferView":21,"componentType":5126,"count":120,"max":[1,1,1],"min":[-1,-1,-1],"type":"VEC3"},{"bufferView":22,"componentType":5126,"count":120,"max":[0.03235238790512085,0.03235239163041115],"min":[0,0],"type":"VEC2"},{"bufferView":23,"componentType":5123,"count":144,"max":[119],"min":[0],"type":"SCALAR"},{"bufferView":24,"componentType":5126,"count":120,"max":[0.0062500000931322575,0.012500000186264515,0.012500000186264515],"min":[-0.0062500000931322575,-0.012500000186264515,-0.012500000186264515],"type":"VEC3"},{"bufferView":25,"componentType":5126,"count":120,"max":[1,1,1],"min":[-1,-1,-1],"type":"VEC3"},{"bufferView":26,"componentType":5126,"count":120,"max":[0.03235238790512085,0.03235239163041115],"min":[0,0],"type":"VEC2"},{"bufferView":27,"componentType":5123,"count":144,"max":[119],"min":[0],"type":"SCALAR"},{"bufferView":28,"componentType":5126,"count":120,"max":[0.0062500000931322575,0.012500000186264515,0.012500000186264515],"min":[-0.0062500000931322575,-0.012500000186264515,-0.012500000186264515],"type":"VEC3"},{"bufferView":29,"componentType":5126,"count":120,"max":[1,1,1],"min":[-1,-1,-1],"type":"VEC3"},{"bufferView":30,"componentType":5126,"count":120,"max":[0.03235238790512085,0.03235239163041115],"min":[0,0],"type":"VEC2"},{"bufferView":31,"componentType":5123,"count":144,"max":[119],"min":[0],"type":"SCALAR"},{"bufferView":32,"componentType":5126,"count":120,"max":[0.0062500000931322575,0.012500000186264515,0.012500000186264515],"min":[-0.0062500000931322575,-0.012500000186264515,-0.012500000186264515],"type":"VEC3"},{"bufferView":33,"componentType":5126,"count":120,"max":[1,1,1],"min":[-1,-1,-1],"type":"VEC3"},{"bufferView":34,"componentType":5126,"count":120,"max":[0.03235238790512085,0.03235239163041115],"min":[0,0],"type":"VEC2"},{"bufferView":35,"componentType":5123,"count":144,"max":[119],"min":[0],"type":"SCALAR"},{"bufferView":36,"componentType":5126,"count":384,"max":[0.04374999925494194,0.010659522376954556,0.04374999925494194],"min":[-0.04374999925494194,-0.010659522376954556,-0.04374999925494194],"type":"VEC3"},{"bufferView":37,"componentType":5126,"count":384,"max":[0.9467691779136658,0.8927755951881409,0.9467691779136658],"min":[-0.9467691779136658,-0.8927755951881409,-0.9467691779136658],"type":"VEC3"},{"bufferView":38,"componentType":5126,"count":384,"max":[0.020933592692017555,0.006160154938697815],"min":[0,0],"type":"VEC2"},{"bufferView":39,"componentType":5123,"count":576,"max":[383],"min":[0],"type":"SCALAR"},{"bufferView":40,"componentType":5126,"count":384,"max":[0.03750000149011612,0.0062500000931322575,0.03750000149011612],"min":[-0.03750000149011612,-0.0062500000931322575,-0.03750000149011612],"type":"VEC3"},{"bufferView":41,"componentType":5126,"count":384,"max":[0.895479142665863,0.945270836353302,0.895479142665863],"min":[-0.895479142665863,-0.945270836353302,-0.895479142665863],"type":"VEC3"},{"bufferView":42,"componentType":5126,"count":384,"max":[0.020933592692017555,0.006160154938697815],"min":[0,0],"type":"VEC2"},{"bufferView":43,"componentType":5123,"count":576,"max":[383],"min":[0],"type":"SCALAR"},{"bufferView":44,"componentType":5126,"count":384,"max":[0.03750000149011612,0.004409522749483585,0.03750000149011612],"min":[-0.03750000149011612,-0.004409522749483585,-0.03750000149011612],"type":"VEC3"},{"bufferView":45,"componentType":5126,"count":384,"max":[0.8174918293952942,0.9716033339500427,0.8174918293952942],"min":[-0.8174918293952942,-0.9716033339500427,-0.8174918293952942],"type":"VEC3"},{"bufferView":46,"componentType":5126,"count":384,"max":[0.020933592692017555,0.006160154938697815],"min":[0,0],"type":"VEC2"},{"bufferView":47,"componentType":5123,"count":576,"max":[383],"min":[0],"type":"SCALAR"},{"bufferView":48,"componentType":5126,"count":384,"max":[0.03750000149011612,0.004409522749483585,0.03750000149011612],"min":[-0.03750000149011612,-0.004409522749483585,-0.03750000149011612],"type":"VEC3"},{"bufferView":49,"componentType":5126,"count":384,"max":[0.8174918293952942,0.9716033339500427,0.8174918293952942],"min":[-0.8174918293952942,-0.9716033339500427,-0.8174918293952942],"type":"VEC3"},{"bufferView":50,"componentType":5126,"count":384,"max":[0.020933592692017555,0.006160154938697815],"min":[0,0],"type":"VEC2"},{"bufferView":51,"componentType":5123,"count":576,"max":[383],"min":[0],"type":"SCALAR"},{"bufferView":52,"componentType":5126,"count":384,"max":[0.03750000149011612,0.004409522749483585,0.03750000149011612],"min":[-0.03750000149011612,-0.004409522749483585,-0.03750000149011612],"type":"VEC3"},{"bufferView":53,"componentType":5126,"count":384,"max":[0.8174918293952942,0.9716033339500427,0.8174918293952942],"min":[-0.8174918293952942,-0.9716033339500427,-0.8174918293952942],"type":"VEC3"},{"bufferView":54,"componentType":5126,"count":384,"max":[0.020933592692017555,0.006160154938697815],"min":[0,0],"type":"VEC2"},{"bufferView":55,"componentType":5123,"count":576,"max":[383],"min":[0],"type":"SCALAR"},{"bufferView":56,"componentType":5126,"count":264,"max":[0.01875000074505806,0.01875000074505806,0.01875000074505806],"min":[-0.01875000074505806,-0.01875000074505806,-0.01875000074505806],"type":"VEC3"},{"bufferView":57,"componentType":5126,"count":264,"max":[0.9659258127212524,0.9659258127212524,0.9659258127212524],"min":[-0.9659258127212524,-0.9659258127212524,-0.9659258127212524],"type":"VEC3"},{"bufferView":58,"componentType":5126,"count":264,"max":[0.016746874898672104,0.016176573932170868],"min":[0,0],"type":"VEC2"},{"bufferView":59,"componentType":5123,"count":360,"max":[263],"min":[0],"type":"SCALAR"},{"bufferView":60,"componentType":5126,"count":264,"max":[0.01875000074505806,0.01875000074505806,0.01875000074505806],"min":[-0.01875000074505806,-0.01875000074505806,-0.01875000074505806],"type":"VEC3"},{"bufferView":61,"componentType":5126,"count":264,"max":[0.9659258127212524,0.9659258127212524,0.9659258127212524],"min":[-0.9659258127212524,-0.9659258127212524,-0.9659258127212524],"type":"VEC3"},{"bufferView":62,"componentType":5126,"count":264,"max":[0.016746874898672104,0.016176573932170868],"min":[0,0],"type":"VEC2"},{"bufferView":63,"componentType":5123,"count":360,"max":[263],"min":[0],"type":"SCALAR"},{"bufferView":64,"componentType":5126,"count":264,"max":[0.01875000074505806,0.01875000074505806,0.01875000074505806],"min":[-0.01875000074505806,-0.01875000074505806,-0.01875000074505806],"type":"VEC3"},{"bufferView":65,"componentType":5126,"count":264,"max":[0.9659258127212524,0.9659258127212524,0.9659258127212524],"min":[-0.9659258127212524,-0.9659258127212524,-0.9659258127212524],"type":"VEC3"},{"bufferView":66,"componentType":5126,"count":264,"max":[0.016746874898672104,0.016176573932170868],"min":[0,0],"type":"VEC2"},{"bufferView":67,"componentType":5123,"count":360,"max":[263],"min":[0],"type":"SCALAR"},{"bufferView":68,"componentType":5126,"count":264,"max":[0.01875000074505806,0.01875000074505806,0.01875000074505806],"min":[-0.01875000074505806,-0.01875000074505806,-0.01875000074505806],"type":"VEC3"},{"bufferView":69,"componentType":5126,"count":264,"max":[0.9659258127212524,0.9659258127212524,0.9659258127212524],"min":[-0.9659258127212524,-0.9659258127212524,-0.9659258127212524],"type":"VEC3"},{"bufferView":70,"componentType":5126,"count":264,"max":[0.016746874898672104,0.016176573932170868],"min":[0,0],"type":"VEC2"},{"bufferView":71,"componentType":5123,"count":360,"max":[263],"min":[0],"type":"SCALAR"}],"materials":[{"pbrMetallicRoughness":{"metallicFactor":0,"roughnessFactor":1,"baseColorTexture":{"index":0}},"alphaMode":"MASK","alphaCutoff":0.05,"doubleSided":true}],"textures":[{"sampler":0,"source":0,"name":"211832.png"}],"samplers":[{"magFilter":9728,"minFilter":9728,"wrapS":33071,"wrapT":33071}],"images":[{"mimeType":"image/png","uri":"data:image/png;base64,"}],"meshes":[{"primitives":[{"mode":4,"attributes":{"POSITION":0,"NORMAL":1,"TEXCOORD_0":2},"indices":3,"material":0}]},{"primitives":[{"mode":4,"attributes":{"POSITION":4,"NORMAL":5,"TEXCOORD_0":6},"indices":7,"material":0}]},{"primitives":[{"mode":4,"attributes":{"POSITION":8,"NORMAL":9,"TEXCOORD_0":10},"indices":11,"material":0}]},{"primitives":[{"mode":4,"attributes":{"POSITION":12,"NORMAL":13,"TEXCOORD_0":14},"indices":15,"material":0}]},{"primitives":[{"mode":4,"attributes":{"POSITION":16,"NORMAL":17,"TEXCOORD_0":18},"indices":19,"material":0}]},{"primitives":[{"mode":4,"attributes":{"POSITION":20,"NORMAL":21,"TEXCOORD_0":22},"indices":23,"material":0}]},{"primitives":[{"mode":4,"attributes":{"POSITION":24,"NORMAL":25,"TEXCOORD_0":26},"indices":27,"material":0}]},{"primitives":[{"mode":4,"attributes":{"POSITION":28,"NORMAL":29,"TEXCOORD_0":30},"indices":31,"material":0}]},{"primitives":[{"mode":4,"attributes":{"POSITION":32,"NORMAL":33,"TEXCOORD_0":34},"indices":35,"material":0}]},{"primitives":[{"mode":4,"attributes":{"POSITION":36,"NORMAL":37,"TEXCOORD_0":38},"indices":39,"material":0}]},{"primitives":[{"mode":4,"attributes":{"POSITION":40,"NORMAL":41,"TEXCOORD_0":42},"indices":43,"material":0}]},{"primitives":[{"mode":4,"attributes":{"POSITION":44,"NORMAL":45,"TEXCOORD_0":46},"indices":47,"material":0}]},{"primitives":[{"mode":4,"attributes":{"POSITION":48,"NORMAL":49,"TEXCOORD_0":50},"indices":51,"material":0}]},{"primitives":[{"mode":4,"attributes":{"POSITION":52,"NORMAL":53,"TEXCOORD_0":54},"indices":55,"material":0}]},{"primitives":[{"mode":4,"attributes":{"POSITION":56,"NORMAL":57,"TEXCOORD_0":58},"indices":59,"material":0}]},{"primitives":[{"mode":4,"attributes":{"POSITION":60,"NORMAL":61,"TEXCOORD_0":62},"indices":63,"material":0}]},{"primitives":[{"mode":4,"attributes":{"POSITION":64,"NORMAL":65,"TEXCOORD_0":66},"indices":67,"material":0}]},{"primitives":[{"mode":4,"attributes":{"POSITION":68,"NORMAL":69,"TEXCOORD_0":70},"indices":71,"material":0}]}]}