{"asset":{"version":"2.0","generator":"Blockbench 5.0.3 glTF exporter"},"scenes":[{"nodes":[11,12,13],"name":"blockbench_export"}],"scene":0,"nodes":[{"translation":[0,-0.75,0],"name":"base","mesh":0},{"translation":[0,0.75,0],"name":"cima","mesh":1},{"translation":[0,0,-0.5625],"name":"estrutura esquerda","mesh":2},{"translation":[0,0,0.5625],"name":"estrutura direita","mesh":3},{"translation":[0.0625,0,0],"name":"prateleira","mesh":4},{"translation":[0.25,0,0],"name":"fundo","mesh":5},{"name":"pezinho4","mesh":6},{"translation":[0.03125,0,0],"name":"pezinho2","mesh":7},{"translation":[0.03125,0,0],"name":"pezinho1","mesh":8},{"name":"pezinho3","mesh":9},{"name":"pezinhos","children":[6,7,8,9]},{"name":"estrutura","children":[0,1,2,3,4,5,10]},{"translation":[-0.25,0,0.5625],"name":"porta direita"},{"rotation":[0,-0.02181488503456112,0,0.9997620270799091],"translation":[-0.25,0,-0.5625],"name":"porta esquerda"}],"bufferViews":[{"buffer":0,"byteOffset":0,"byteLength":288,"target":34962,"byteStride":12},{"buffer":0,"byteOffset":288,"byteLength":288,"target":34962,"byteStride":12},{"buffer":0,"byteOffset":576,"byteLength":192,"target":34962,"byteStride":8},{"buffer":0,"byteOffset":768,"byteLength":72,"target":34963},{"buffer":0,"byteOffset":840,"byteLength":288,"target":34962,"byteStride":12},{"buffer":0,"byteOffset":1128,"byteLength":288,"target":34962,"byteStride":12},{"buffer":0,"byteOffset":1416,"byteLength":192,"target":34962,"byteStride":8},{"buffer":0,"byteOffset":1608,"byteLength":72,"target":34963},{"buffer":0,"byteOffset":1680,"byteLength":288,"target":34962,"byteStride":12},{"buffer":0,"byteOffset":1968,"byteLength":288,"target":34962,"byteStride":12},{"buffer":0,"byteOffset":2256,"byteLength":192,"target":34962,"byteStride":8},{"buffer":0,"byteOffset":2448,"byteLength":72,"target":34963},{"buffer":0,"byteOffset":2520,"byteLength":288,"target":34962,"byteStride":12},{"buffer":0,"byteOffset":2808,"byteLength":288,"target":34962,"byteStride":12},{"buffer":0,"byteOffset":3096,"byteLength":192,"target":34962,"byteStride":8},{"buffer":0,"byteOffset":3288,"byteLength":72,"target":34963},{"buffer":0,"byteOffset":3360,"byteLength":288,"target":34962,"byteStride":12},{"buffer":0,"byteOffset":3648,"byteLength":288,"target":34962,"byteStride":12},{"buffer":0,"byteOffset":3936,"byteLength":192,"target":34962,"byteStride":8},{"buffer":0,"byteOffset":4128,"byteLength":72,"target":34963},{"buffer":0,"byteOffset":4200,"byteLength":288,"target":34962,"byteStride":12},{"buffer":0,"byteOffset":4488,"byteLength":288,"target":34962,"byteStride":12},{"buffer":0,"byteOffset":4776,"byteLength":192,"target":34962,"byteStride":8},{"buffer":0,"byteOffset":4968,"byteLength":72,"target":34963},{"buffer":0,"byteOffset":5040,"byteLength":54144,"target":34962,"byteStride":12},{"buffer":0,"byteOffset":59184,"byteLength":54144,"target":34962,"byteStride":12},{"buffer":0,"byteOffset":113328,"byteLength":36096,"target":34962,"byteStride":8},{"buffer":0,"byteOffset":149424,"byteLength":13248,"target":34963},{"buffer":0,"byteOffset":162672,"byteLength":54144,"target":34962,"byteStride":12},{"buffer":0,"byteOffset":216816,"byteLength":54144,"target":34962,"byteStride":12},{"buffer":0,"byteOffset":270960,"byteLength":36096,"target":34962,"byteStride":8},{"buffer":0,"byteOffset":307056,"byteLength":13248,"target":34963},{"buffer":0,"byteOffset":320304,"byteLength":54144,"target":34962,"byteStride":12},{"buffer":0,"byteOffset":374448,"byteLength":54144,"target":34962,"byteStride":12},{"buffer":0,"byteOffset":428592,"byteLength":36096,"target":34962,"byteStride":8},{"buffer":0,"byteOffset":464688,"byteLength":13248,"target":34963},{"buffer":0,"byteOffset":477936,"byteLength":54144,"target":34962,"byteStride":12},{"buffer":0,"byteOffset":532080,"byteLength":54144,"target":34962,"byteStride":12},{"buffer":0,"byteOffset":586224,"byteLength":36096,"target":34962,"byteStride":8},{"buffer":0,"byteOffset":622320,"byteLength":13248,"target":34963}],"buffers":[{"byteLength":635568,"uri":"data:application/octet-stream;base64,"}],"accessors":[{"bufferView":0,"componentType":5126,"count":24,"max":[0.25,0.28125,0.59375],"min":[-0.25,0.21875,-0.59375],"type":"VEC3"},{"bufferView":1,"componentType":5126,"count":24,"max":[1,1,1],"min":[-1,-1,-1],"type":"VEC3"},{"bufferView":2,"componentType":5126,"count":24,"max":[0.6328125,0.5390625],"min":[0,0.1875],"type":"VEC2"},{"bufferView":3,"componentType":5123,"count":36,"max":[23],"min":[0],"type":"SCALAR"},{"bufferView":4,"componentType":5126,"count":24,"max":[0.25,0.28125,0.59375],"min":[-0.25,0.21875,-0.59375],"type":"VEC3"},{"bufferView":5,"componentType":5126,"count":24,"max":[1,1,1],"min":[-1,-1,-1],"type":"VEC3"},{"bufferView":6,"componentType":5126,"count":24,"max":[0.6328125,0.5390625],"min":[0.140625,0.21875],"type":"VEC2"},{"bufferView":7,"componentType":5123,"count":36,"max":[23],"min":[0],"type":"SCALAR"},{"bufferView":8,"componentType":5126,"count":24,"max":[0.25,1,0.03125],"min":[-0.25,-0.5,-0.03125],"type":"VEC3"},{"bufferView":9,"componentType":5126,"count":24,"max":[1,1,1],"min":[-1,-1,-1],"type":"VEC3"},{"bufferView":10,"componentType":5126,"count":24,"max":[0.5625,0.578125],"min":[0.3125,0],"type":"VEC2"},{"bufferView":11,"componentType":5123,"count":36,"max":[23],"min":[0],"type":"SCALAR"},{"bufferView":12,"componentType":5126,"count":24,"max":[0.25,1,0.03125],"min":[-0.25,-0.5,-0.03125],"type":"VEC3"},{"bufferView":13,"componentType":5126,"count":24,"max":[1,1,1],"min":[-1,-1,-1],"type":"VEC3"},{"bufferView":14,"componentType":5126,"count":24,"max":[0.578125,0.578125],"min":[0.3828125,0],"type":"VEC2"},{"bufferView":15,"componentType":5123,"count":36,"max":[23],"min":[0],"type":"SCALAR"},{"bufferView":16,"componentType":5126,"count":24,"max":[0.21875,0.28125,0.59375],"min":[-0.21875,0.21875,-0.59375],"type":"VEC3"},{"bufferView":17,"componentType":5126,"count":24,"max":[1,1,1],"min":[-1,-1,-1],"type":"VEC3"},{"bufferView":18,"componentType":5126,"count":24,"max":[0.6328125,0.5390625],"min":[0.28125,0.015625],"type":"VEC2"},{"bufferView":19,"componentType":5123,"count":36,"max":[23],"min":[0],"type":"SCALAR"},{"bufferView":20,"componentType":5126,"count":24,"max":[0.03125,1.03125,0.59375],"min":[-0.03125,-0.53125,-0.59375],"type":"VEC3"},{"bufferView":21,"componentType":5126,"count":24,"max":[1,1,1],"min":[-1,-1,-1],"type":"VEC3"},{"bufferView":22,"componentType":5126,"count":24,"max":[0.4921875,0.5859375],"min":[0,0],"type":"VEC2"},{"bufferView":23,"componentType":5123,"count":36,"max":[23],"min":[0],"type":"SCALAR"},{"bufferView":24,"componentType":5126,"count":4512,"max":[-0.15625,-0.5062500238418579,-0.5],"min":[-0.21875,-0.5687500238418579,-0.5625],"type":"VEC3"},{"bufferView":25,"componentType":5126,"count":4512,"max":[0.9978563189506531,0.997856616973877,0.9978563189506531],"min":[-0.9978563189506531,-0.997856616973877,-0.9978563189506531],"type":"VEC3"},{"bufferView":26,"componentType":5126,"count":4512,"max":[0.5546875,0.5635218620300293],"min":[0.0006043749745003879,0.046875],"type":"VEC2"},{"bufferView":27,"componentType":5123,"count":6624,"max":[4511],"min":[0],"type":"SCALAR"},{"bufferView":28,"componentType":5126,"count":4512,"max":[0.21875,-0.5062500238418579,-0.5],"min":[0.15625,-0.5687500238418579,-0.5625],"type":"VEC3"},{"bufferView":29,"componentType":5126,"count":4512,"max":[0.9978563189506531,0.997856616973877,0.9978563189506531],"min":[-0.9978563189506531,-0.997856616973877,-0.9978563189506531],"type":"VEC3"},{"bufferView":30,"componentType":5126,"count":4512,"max":[0.5546875,0.5635218620300293],"min":[0.015625,0.04894399642944336],"type":"VEC2"},{"bufferView":31,"componentType":5123,"count":6624,"max":[4511],"min":[0],"type":"SCALAR"},{"bufferView":32,"componentType":5126,"count":4512,"max":[0.21875,-0.5062500238418579,0.5625],"min":[0.15625,-0.5687500238418579,0.5],"type":"VEC3"},{"bufferView":33,"componentType":5126,"count":4512,"max":[0.9978563189506531,0.997856616973877,0.9978563189506531],"min":[-0.9978563189506531,-0.997856616973877,-0.9978563189506531],"type":"VEC3"},{"bufferView":34,"componentType":5126,"count":4512,"max":[0.5630117058753967,0.5635218620300293],"min":[0.016229374334216118,0.0625],"type":"VEC2"},{"bufferView":35,"componentType":5123,"count":6624,"max":[4511],"min":[0],"type":"SCALAR"},{"bufferView":36,"componentType":5126,"count":4512,"max":[-0.15625,-0.5062500238418579,0.5625],"min":[-0.21875,-0.5687500238418579,0.5],"type":"VEC3"},{"bufferView":37,"componentType":5126,"count":4512,"max":[0.9978563189506531,0.997856616973877,0.9978563189506531],"min":[-0.9978563189506531,-0.997856616973877,-0.9978563189506531],"type":"VEC3"},{"bufferView":38,"componentType":5126,"count":4512,"max":[0.5703125,0.5635218620300293],"min":[0,0.046875],"type":"VEC2"},{"bufferView":39,"componentType":5123,"count":6624,"max":[4511],"min":[0],"type":"SCALAR"}],"materials":[{"pbrMetallicRoughness":{"metallicFactor":0,"roughnessFactor":1,"baseColorTexture":{"index":0}},"alphaMode":"MASK","alphaCutoff":0.05,"doubleSided":true}],"textures":[{"sampler":0,"source":0,"name":"texture"}],"samplers":[{"magFilter":9728,"minFilter":9728,"wrapS":33071,"wrapT":33071}],"images":[{"mimeType":"image/png","uri":"data:image/png;base64,"}],"meshes":[{"primitives":[{"mode":4,"attributes":{"POSITION":0,"NORMAL":1,"TEXCOORD_0":2},"indices":3,"material":0}]},{"primitives":[{"mode":4,"attributes":{"POSITION":4,"NORMAL":5,"TEXCOORD_0":6},"indices":7,"material":0}]},{"primitives":[{"mode":4,"attributes":{"POSITION":8,"NORMAL":9,"TEXCOORD_0":10},"indices":11,"material":0}]},{"primitives":[{"mode":4,"attributes":{"POSITION":12,"NORMAL":13,"TEXCOORD_0":14},"indices":15,"material":0}]},{"primitives":[{"mode":4,"attributes":{"POSITION":16,"NORMAL":17,"TEXCOORD_0":18},"indices":19,"material":0}]},{"primitives":[{"mode":4,"attributes":{"POSITION":20,"NORMAL":21,"TEXCOORD_0":22},"indices":23,"material":0}]},{"primitives":[{"mode":4,"attributes":{"POSITION":24,"NORMAL":25,"TEXCOORD_0":26},"indices":27,"material":0}]},{"primitives":[{"mode":4,"attributes":{"POSITION":28,"NORMAL":29,"TEXCOORD_0":30},"indices":31,"material":0}]},{"primitives":[{"mode":4,"attributes":{"POSITION":32,"NORMAL":33,"TEXCOORD_0":34},"indices":35,"material":0}]},{"primitives":[{"mode":4,"attributes":{"POSITION":36,"NORMAL":37,"TEXCOORD_0":38},"indices":39,"material":0}]}]}