{"asset":{"version":"2.0","generator":"Blockbench 5.0.3 glTF exporter"},"scenes":[{"nodes":[1,2,5],"name":"blockbench_export"}],"scene":0,"nodes":[{"name":"pezinhos"},{"name":"estrutura","children":[0]},{"translation":[-0.25,0,0.5625],"name":"porta direita"},{"translation":[0.274298125,0,0.55106],"name":"maçaneta esquerda","mesh":0},{"translation":[0.055548125000000004,0,0.26981],"name":"estrutura porta esquerda","mesh":1},{"rotation":[0,-0.02181488503456112,0,0.9997620270799091],"translation":[-0.25,0,-0.5625],"name":"porta esquerda","children":[3,4]}],"bufferViews":[{"buffer":0,"byteOffset":0,"byteLength":54144,"target":34962,"byteStride":12},{"buffer":0,"byteOffset":54144,"byteLength":54144,"target":34962,"byteStride":12},{"buffer":0,"byteOffset":108288,"byteLength":36096,"target":34962,"byteStride":8},{"buffer":0,"byteOffset":144384,"byteLength":13248,"target":34963},{"buffer":0,"byteOffset":157632,"byteLength":288,"target":34962,"byteStride":12},{"buffer":0,"byteOffset":157920,"byteLength":288,"target":34962,"byteStride":12},{"buffer":0,"byteOffset":158208,"byteLength":192,"target":34962,"byteStride":8},{"buffer":0,"byteOffset":158400,"byteLength":72,"target":34963}],"buffers":[{"byteLength":158472,"uri":"data:application/octet-stream;base64,"}],"accessors":[{"bufferView":0,"componentType":5126,"count":4512,"max":[-0.21875,0.21875,-0.09375],"min":[-0.28125,0.15625,-0.15625],"type":"VEC3"},{"bufferView":1,"componentType":5126,"count":4512,"max":[0.9978563189506531,0.997856616973877,0.9978563189506531],"min":[-0.9978563189506531,-0.997856616973877,-0.9978563189506531],"type":"VEC3"},{"bufferView":2,"componentType":5126,"count":4512,"max":[0.6875,0.6875],"min":[0,0],"type":"VEC2"},{"bufferView":3,"componentType":5123,"count":6624,"max":[4511],"min":[0],"type":"SCALAR"},{"bufferView":4,"componentType":5126,"count":24,"max":[0.03125,0.96875,0.28125],"min":[-0.03125,-0.46875,-0.28125],"type":"VEC3"},{"bufferView":5,"componentType":5126,"count":24,"max":[1,1,1],"min":[-1,-1,-1],"type":"VEC3"},{"bufferView":6,"componentType":5126,"count":24,"max":[0.5078125,0.3828125],"min":[0,0],"type":"VEC2"},{"bufferView":7,"componentType":5123,"count":36,"max":[23],"min":[0],"type":"SCALAR"}],"materials":[{"pbrMetallicRoughness":{"metallicFactor":0,"roughnessFactor":1,"baseColorTexture":{"index":0}},"alphaMode":"MASK","alphaCutoff":0.05,"doubleSided":true},{"pbrMetallicRoughness":{"metallicFactor":0,"roughnessFactor":1,"baseColorTexture":{"index":1}},"alphaMode":"MASK","alphaCutoff":0.05,"doubleSided":true}],"textures":[{"sampler":0,"source":0,"name":"texture"},{"sampler":1,"source":1,"name":"texture"}],"samplers":[{"magFilter":9728,"minFilter":9728,"wrapS":33071,"wrapT":33071},{"magFilter":9728,"minFilter":9728,"wrapS":33071,"wrapT":33071}],"images":[{"mimeType":"image/png","uri":"data:image/png;base64,"},{"mimeType":"image/png","uri":"data:image/png;base64,"}],"meshes":[{"primitives":[{"mode":4,"attributes":{"POSITION":0,"NORMAL":1,"TEXCOORD_0":2},"indices":3,"material":0}]},{"primitives":[{"mode":4,"attributes":{"POSITION":4,"NORMAL":5,"TEXCOORD_0":6},"indices":7,"material":1}]}]}