{"asset":{"version":"2.0","generator":"Blockbench 5.0.3 glTF exporter"},"scenes":[{"nodes":[0,1,2,3,4,5,6,7,8],"name":"blockbench_export"}],"scene":0,"nodes":[{"translation":[-0.00625,0.043750000000000004,0],"name":"torus","mesh":0},{"rotation":[0,0,0.7071067811865475,0.7071067811865476],"translation":[-0.01250000000000001,0.043750000000000004,0],"name":"cylinder","mesh":1},{"rotation":[0,0,0.7071067811865475,0.7071067811865476],"translation":[-0.275,0.043750000000000004,0],"name":"cylinder","mesh":2},{"rotation":[0,0,0.7071067811865475,0.7071067811865476],"translation":[0.1625,0.043750000000000004,0],"name":"tube","mesh":3},{"rotation":[0,0,0.7071067811865475,0.7071067811865476],"translation":[-0.18125000000000002,0.043750000000000004,0],"name":"tube","mesh":4},{"rotation":[0,0,0.7071067811865475,0.7071067811865476],"translation":[-0.3312499999999998,0.043750000000000004,0],"name":"tube","mesh":5},{"translation":[-0.5999999999999999,0.04375000000000009,0],"name":"sphere","mesh":6},{"translation":[-0.5374999999999994,-0.20625000000000002,-0.037500000000000006],"name":"cuboid","mesh":7},{"translation":[-0.4937499999999996,-0.20625000000000002,-0.03125000000000001],"name":"cuboid","mesh":8}],"bufferViews":[{"buffer":0,"byteOffset":0,"byteLength":4608,"target":34962,"byteStride":12},{"buffer":0,"byteOffset":4608,"byteLength":4608,"target":34962,"byteStride":12},{"buffer":0,"byteOffset":9216,"byteLength":3072,"target":34962,"byteStride":8},{"buffer":0,"byteOffset":12288,"byteLength":1152,"target":34963},{"buffer":0,"byteOffset":13440,"byteLength":1440,"target":34962,"byteStride":12},{"buffer":0,"byteOffset":14880,"byteLength":1440,"target":34962,"byteStride":12},{"buffer":0,"byteOffset":16320,"byteLength":960,"target":34962,"byteStride":8},{"buffer":0,"byteOffset":17280,"byteLength":288,"target":34963},{"buffer":0,"byteOffset":17568,"byteLength":1440,"target":34962,"byteStride":12},{"buffer":0,"byteOffset":19008,"byteLength":1440,"target":34962,"byteStride":12},{"buffer":0,"byteOffset":20448,"byteLength":960,"target":34962,"byteStride":8},{"buffer":0,"byteOffset":21408,"byteLength":288,"target":34963},{"buffer":0,"byteOffset":21696,"byteLength":2304,"target":34962,"byteStride":12},{"buffer":0,"byteOffset":24000,"byteLength":2304,"target":34962,"byteStride":12},{"buffer":0,"byteOffset":26304,"byteLength":1536,"target":34962,"byteStride":8},{"buffer":0,"byteOffset":27840,"byteLength":576,"target":34963},{"buffer":0,"byteOffset":28416,"byteLength":2304,"target":34962,"byteStride":12},{"buffer":0,"byteOffset":30720,"byteLength":2304,"target":34962,"byteStride":12},{"buffer":0,"byteOffset":33024,"byteLength":1536,"target":34962,"byteStride":8},{"buffer":0,"byteOffset":34560,"byteLength":576,"target":34963},{"buffer":0,"byteOffset":35136,"byteLength":2304,"target":34962,"byteStride":12},{"buffer":0,"byteOffset":37440,"byteLength":2304,"target":34962,"byteStride":12},{"buffer":0,"byteOffset":39744,"byteLength":1536,"target":34962,"byteStride":8},{"buffer":0,"byteOffset":41280,"byteLength":576,"target":34963},{"buffer":0,"byteOffset":41856,"byteLength":3168,"target":34962,"byteStride":12},{"buffer":0,"byteOffset":45024,"byteLength":3168,"target":34962,"byteStride":12},{"buffer":0,"byteOffset":48192,"byteLength":2112,"target":34962,"byteStride":8},{"buffer":0,"byteOffset":50304,"byteLength":720,"target":34963},{"buffer":0,"byteOffset":51024,"byteLength":288,"target":34962,"byteStride":12},{"buffer":0,"byteOffset":51312,"byteLength":288,"target":34962,"byteStride":12},{"buffer":0,"byteOffset":51600,"byteLength":192,"target":34962,"byteStride":8},{"buffer":0,"byteOffset":51792,"byteLength":72,"target":34963},{"buffer":0,"byteOffset":51864,"byteLength":288,"target":34962,"byteStride":12},{"buffer":0,"byteOffset":52152,"byteLength":288,"target":34962,"byteStride":12},{"buffer":0,"byteOffset":52440,"byteLength":192,"target":34962,"byteStride":8},{"buffer":0,"byteOffset":52632,"byteLength":72,"target":34963}],"buffers":[{"byteLength":52704,"uri":"data:application/octet-stream;base64,"}],"accessors":[{"bufferView":0,"componentType":5126,"count":384,"max":[0.08124999701976776,0.0169095229357481,0.08124999701976776],"min":[-0.08124999701976776,-0.0169095229357481,-0.08124999701976776],"type":"VEC3"},{"bufferView":1,"componentType":5126,"count":384,"max":[0.929097592830658,0.9183273315429688,0.929097592830658],"min":[-0.929097592830658,-0.9183273315429688,-0.929097592830658],"type":"VEC3"},{"bufferView":2,"componentType":5126,"count":384,"max":[0.020933592692017555,0.006160154938697815],"min":[0,0],"type":"VEC2"},{"bufferView":3,"componentType":5123,"count":576,"max":[383],"min":[0],"type":"SCALAR"},{"bufferView":4,"componentType":5126,"count":120,"max":[0.012500000186264515,0.41874998807907104,0.01875000074505806],"min":[-0.012500000186264515,0.08124999701976776,-0.01875000074505806],"type":"VEC3"},{"bufferView":5,"componentType":5126,"count":120,"max":[1,1,1],"min":[-1,-1,-1],"type":"VEC3"},{"bufferView":6,"componentType":5126,"count":120,"max":[0.03235238790512085,0.03235239163041115],"min":[0,0],"type":"VEC2"},{"bufferView":7,"componentType":5123,"count":144,"max":[119],"min":[0],"type":"SCALAR"},{"bufferView":8,"componentType":5126,"count":120,"max":[0.0062500000931322575,0.3375000059604645,0.012500000186264515],"min":[-0.0062500000931322575,0.16249999403953552,-0.012500000186264515],"type":"VEC3"},{"bufferView":9,"componentType":5126,"count":120,"max":[1,1,1],"min":[-1,-1,-1],"type":"VEC3"},{"bufferView":10,"componentType":5126,"count":120,"max":[0.03235238790512085,0.03235239163041115],"min":[0,0],"type":"VEC2"},{"bufferView":11,"componentType":5123,"count":144,"max":[119],"min":[0],"type":"SCALAR"},{"bufferView":12,"componentType":5126,"count":192,"max":[0.012500000186264515,0.2562499940395355,0.02500000037252903],"min":[-0.012500000186264515,0.24375000596046448,-0.02500000037252903],"type":"VEC3"},{"bufferView":13,"componentType":5126,"count":192,"max":[1,1,1],"min":[-1,-1,-1],"type":"VEC3"},{"bufferView":14,"componentType":5126,"count":192,"max":[0.016746874898672104,0.031250014901161194],"min":[0,0],"type":"VEC2"},{"bufferView":15,"componentType":5123,"count":288,"max":[191],"min":[0],"type":"SCALAR"},{"bufferView":16,"componentType":5126,"count":192,"max":[0.012500000186264515,0.2562499940395355,0.02500000037252903],"min":[-0.012500000186264515,0.24375000596046448,-0.02500000037252903],"type":"VEC3"},{"bufferView":17,"componentType":5126,"count":192,"max":[1,1,1],"min":[-1,-1,-1],"type":"VEC3"},{"bufferView":18,"componentType":5126,"count":192,"max":[0.016746874898672104,0.031250014901161194],"min":[0,0],"type":"VEC2"},{"bufferView":19,"componentType":5123,"count":288,"max":[191],"min":[0],"type":"SCALAR"},{"bufferView":20,"componentType":5126,"count":192,"max":[0.0062500000931322575,0.2562499940395355,0.01875000074505806],"min":[-0.0062500000931322575,0.24375000596046448,-0.01875000074505806],"type":"VEC3"},{"bufferView":21,"componentType":5126,"count":192,"max":[1,1,1],"min":[-1,-1,-1],"type":"VEC3"},{"bufferView":22,"componentType":5126,"count":192,"max":[0.016746874898672104,0.031250014901161194],"min":[0,0],"type":"VEC2"},{"bufferView":23,"componentType":5123,"count":288,"max":[191],"min":[0],"type":"SCALAR"},{"bufferView":24,"componentType":5126,"count":264,"max":[0.01875000074505806,0.012500000186264515,0.01875000074505806],"min":[-0.01875000074505806,-0.012500000186264515,-0.01875000074505806],"type":"VEC3"},{"bufferView":25,"componentType":5126,"count":264,"max":[0.927859902381897,0.9844171404838562,0.927859902381897],"min":[-0.927859902381897,-0.9844171404838562,-0.927859902381897],"type":"VEC3"},{"bufferView":26,"componentType":5126,"count":264,"max":[0.016746874898672104,0.016176573932170868],"min":[0,0],"type":"VEC2"},{"bufferView":27,"componentType":5123,"count":360,"max":[263],"min":[0],"type":"SCALAR"},{"bufferView":28,"componentType":5126,"count":24,"max":[0.012500000186264515,0.2562499940395355,0.03125],"min":[-0.012500000186264515,0.24375000596046448,-0.03125],"type":"VEC3"},{"bufferView":29,"componentType":5126,"count":24,"max":[1,1,1],"min":[-1,-1,-1],"type":"VEC3"},{"bufferView":30,"componentType":5126,"count":24,"max":[0.0624999962747097,0.0624999962747097],"min":[0,0],"type":"VEC2"},{"bufferView":31,"componentType":5123,"count":36,"max":[23],"min":[0],"type":"SCALAR"},{"bufferView":32,"componentType":5126,"count":24,"max":[0.012500000186264515,0.2562499940395355,0.02500000037252903],"min":[-0.012500000186264515,0.24375000596046448,-0.02500000037252903],"type":"VEC3"},{"bufferView":33,"componentType":5126,"count":24,"max":[1,1,1],"min":[-1,-1,-1],"type":"VEC3"},{"bufferView":34,"componentType":5126,"count":24,"max":[0.0624999962747097,0.0624999962747097],"min":[0,0],"type":"VEC2"},{"bufferView":35,"componentType":5123,"count":36,"max":[23],"min":[0],"type":"SCALAR"}],"materials":[{"pbrMetallicRoughness":{"metallicFactor":0,"roughnessFactor":1,"baseColorTexture":{"index":0}},"alphaMode":"MASK","alphaCutoff":0.05,"doubleSided":true}],"textures":[{"sampler":0,"source":0,"name":"211832.png"}],"samplers":[{"magFilter":9728,"minFilter":9728,"wrapS":33071,"wrapT":33071}],"images":[{"mimeType":"image/png","uri":"data:image/png;base64,"}],"meshes":[{"primitives":[{"mode":4,"attributes":{"POSITION":0,"NORMAL":1,"TEXCOORD_0":2},"indices":3,"material":0}]},{"primitives":[{"mode":4,"attributes":{"POSITION":4,"NORMAL":5,"TEXCOORD_0":6},"indices":7,"material":0}]},{"primitives":[{"mode":4,"attributes":{"POSITION":8,"NORMAL":9,"TEXCOORD_0":10},"indices":11,"material":0}]},{"primitives":[{"mode":4,"attributes":{"POSITION":12,"NORMAL":13,"TEXCOORD_0":14},"indices":15,"material":0}]},{"primitives":[{"mode":4,"attributes":{"POSITION":16,"NORMAL":17,"TEXCOORD_0":18},"indices":19,"material":0}]},{"primitives":[{"mode":4,"attributes":{"POSITION":20,"NORMAL":21,"TEXCOORD_0":22},"indices":23,"material":0}]},{"primitives":[{"mode":4,"attributes":{"POSITION":24,"NORMAL":25,"TEXCOORD_0":26},"indices":27,"material":0}]},{"primitives":[{"mode":4,"attributes":{"POSITION":28,"NORMAL":29,"TEXCOORD_0":30},"indices":31,"material":0}]},{"primitives":[{"mode":4,"attributes":{"POSITION":32,"NORMAL":33,"TEXCOORD_0":34},"indices":35,"material":0}]}]}