{"asset":{"version":"2.0","generator":"Blockbench 5.0.3 glTF exporter"},"scenes":[{"nodes":[0,1,2,3,4,5,6,7,8],"name":"blockbench_export"}],"scene":0,"nodes":[{"translation":[0.875,0.25,0],"name":"cabeceira","mesh":0},{"translation":[-0.875,0.125,0],"name":"pe","mesh":1},{"name":"inferior","mesh":2},{"translation":[0,0,-0.5],"name":"gaveta_lateral","mesh":3},{"translation":[0,0,0.5],"name":"gaveta_lateral","mesh":4},{"translation":[0.625,0.1875,0],"name":"colchao","mesh":5},{"translation":[-0.1875,0.1875,0],"name":"lencol","mesh":6},{"translation":[0.375,0.190625,0],"name":"lencol_sup","mesh":7},{"translation":[0.65625,0.28749999999999987,0],"name":"travesseiro","mesh":8}],"bufferViews":[{"buffer":0,"byteOffset":0,"byteLength":288,"target":34962,"byteStride":12},{"buffer":0,"byteOffset":288,"byteLength":288,"target":34962,"byteStride":12},{"buffer":0,"byteOffset":576,"byteLength":192,"target":34962,"byteStride":8},{"buffer":0,"byteOffset":768,"byteLength":72,"target":34963},{"buffer":0,"byteOffset":840,"byteLength":288,"target":34962,"byteStride":12},{"buffer":0,"byteOffset":1128,"byteLength":288,"target":34962,"byteStride":12},{"buffer":0,"byteOffset":1416,"byteLength":192,"target":34962,"byteStride":8},{"buffer":0,"byteOffset":1608,"byteLength":72,"target":34963},{"buffer":0,"byteOffset":1680,"byteLength":288,"target":34962,"byteStride":12},{"buffer":0,"byteOffset":1968,"byteLength":288,"target":34962,"byteStride":12},{"buffer":0,"byteOffset":2256,"byteLength":192,"target":34962,"byteStride":8},{"buffer":0,"byteOffset":2448,"byteLength":24,"target":34963},{"buffer":0,"byteOffset":2472,"byteLength":48,"target":34963},{"buffer":0,"byteOffset":2520,"byteLength":288,"target":34962,"byteStride":12},{"buffer":0,"byteOffset":2808,"byteLength":288,"target":34962,"byteStride":12},{"buffer":0,"byteOffset":3096,"byteLength":192,"target":34962,"byteStride":8},{"buffer":0,"byteOffset":3288,"byteLength":48,"target":34963},{"buffer":0,"byteOffset":3336,"byteLength":12,"target":34963},{"buffer":0,"byteOffset":3348,"byteLength":12,"target":34963},{"buffer":0,"byteOffset":3360,"byteLength":288,"target":34962,"byteStride":12},{"buffer":0,"byteOffset":3648,"byteLength":288,"target":34962,"byteStride":12},{"buffer":0,"byteOffset":3936,"byteLength":192,"target":34962,"byteStride":8},{"buffer":0,"byteOffset":4128,"byteLength":60,"target":34963},{"buffer":0,"byteOffset":4188,"byteLength":12,"target":34963},{"buffer":0,"byteOffset":4200,"byteLength":288,"target":34962,"byteStride":12},{"buffer":0,"byteOffset":4488,"byteLength":288,"target":34962,"byteStride":12},{"buffer":0,"byteOffset":4776,"byteLength":192,"target":34962,"byteStride":8},{"buffer":0,"byteOffset":4968,"byteLength":24,"target":34963},{"buffer":0,"byteOffset":4992,"byteLength":12,"target":34963},{"buffer":0,"byteOffset":5004,"byteLength":12,"target":34963},{"buffer":0,"byteOffset":5016,"byteLength":24,"target":34963},{"buffer":0,"byteOffset":5040,"byteLength":288,"target":34962,"byteStride":12},{"buffer":0,"byteOffset":5328,"byteLength":288,"target":34962,"byteStride":12},{"buffer":0,"byteOffset":5616,"byteLength":192,"target":34962,"byteStride":8},{"buffer":0,"byteOffset":5808,"byteLength":12,"target":34963},{"buffer":0,"byteOffset":5820,"byteLength":12,"target":34963},{"buffer":0,"byteOffset":5832,"byteLength":12,"target":34963},{"buffer":0,"byteOffset":5844,"byteLength":12,"target":34963},{"buffer":0,"byteOffset":5856,"byteLength":24,"target":34963},{"buffer":0,"byteOffset":5880,"byteLength":288,"target":34962,"byteStride":12},{"buffer":0,"byteOffset":6168,"byteLength":288,"target":34962,"byteStride":12},{"buffer":0,"byteOffset":6456,"byteLength":192,"target":34962,"byteStride":8},{"buffer":0,"byteOffset":6648,"byteLength":36,"target":34963},{"buffer":0,"byteOffset":6684,"byteLength":12,"target":34963},{"buffer":0,"byteOffset":6696,"byteLength":24,"target":34963},{"buffer":0,"byteOffset":6720,"byteLength":288,"target":34962,"byteStride":12},{"buffer":0,"byteOffset":7008,"byteLength":288,"target":34962,"byteStride":12},{"buffer":0,"byteOffset":7296,"byteLength":192,"target":34962,"byteStride":8},{"buffer":0,"byteOffset":7488,"byteLength":12,"target":34963},{"buffer":0,"byteOffset":7500,"byteLength":24,"target":34963},{"buffer":0,"byteOffset":7524,"byteLength":12,"target":34963},{"buffer":0,"byteOffset":7536,"byteLength":24,"target":34963}],"buffers":[{"byteLength":7560,"uri":"data:application/octet-stream;base64,"}],"accessors":[{"bufferView":0,"componentType":5126,"count":24,"max":[0.0625,0.625,0.5],"min":[-0.0625,-0.125,-0.5],"type":"VEC3"},{"bufferView":1,"componentType":5126,"count":24,"max":[1,1,1],"min":[-1,-1,-1],"type":"VEC3"},{"bufferView":2,"componentType":5126,"count":24,"max":[0.0624999962747097,0.0624999962747097],"min":[0,0],"type":"VEC2"},{"bufferView":3,"componentType":5123,"count":36,"max":[23],"min":[0],"type":"SCALAR"},{"bufferView":4,"componentType":5126,"count":24,"max":[0.0625,0.5,0.5],"min":[-0.0625,0,-0.5],"type":"VEC3"},{"bufferView":5,"componentType":5126,"count":24,"max":[1,1,1],"min":[-1,-1,-1],"type":"VEC3"},{"bufferView":6,"componentType":5126,"count":24,"max":[0.0624999962747097,0.0624999962747097],"min":[0,0],"type":"VEC2"},{"bufferView":7,"componentType":5123,"count":36,"max":[23],"min":[0],"type":"SCALAR"},{"bufferView":8,"componentType":5126,"count":24,"max":[0.84375,0.375,0.5],"min":[-0.84375,0.125,-0.5],"type":"VEC3"},{"bufferView":9,"componentType":5126,"count":24,"max":[1,1,1],"min":[-1,-1,-1],"type":"VEC3"},{"bufferView":10,"componentType":5126,"count":24,"max":[1,0.5],"min":[0,0],"type":"VEC2"},{"bufferView":11,"componentType":5123,"count":12,"max":[7],"min":[0],"type":"SCALAR"},{"bufferView":12,"componentType":5123,"count":24,"max":[23],"min":[8],"type":"SCALAR"},{"bufferView":13,"componentType":5126,"count":24,"max":[0.5,0.3125,0.03125],"min":[-0.5,0.1875,-0.03125],"type":"VEC3"},{"bufferView":14,"componentType":5126,"count":24,"max":[1,1,1],"min":[-1,-1,-1],"type":"VEC3"},{"bufferView":15,"componentType":5126,"count":24,"max":[0.7734375,0.267578125],"min":[0,0],"type":"VEC2"},{"bufferView":16,"componentType":5123,"count":24,"max":[15],"min":[0],"type":"SCALAR"},{"bufferView":17,"componentType":5123,"count":6,"max":[19],"min":[16],"type":"SCALAR"},{"bufferView":18,"componentType":5123,"count":6,"max":[23],"min":[20],"type":"SCALAR"},{"bufferView":19,"componentType":5126,"count":24,"max":[0.5,0.3125,0.03125],"min":[-0.5,0.1875,-0.03125],"type":"VEC3"},{"bufferView":20,"componentType":5126,"count":24,"max":[1,1,1],"min":[-1,-1,-1],"type":"VEC3"},{"bufferView":21,"componentType":5126,"count":24,"max":[0.7734375,0.267578125],"min":[0,0],"type":"VEC2"},{"bufferView":22,"componentType":5123,"count":30,"max":[19],"min":[0],"type":"SCALAR"},{"bufferView":23,"componentType":5123,"count":6,"max":[23],"min":[20],"type":"SCALAR"},{"bufferView":24,"componentType":5126,"count":24,"max":[0.1875,0.3125,0.46875],"min":[-0.1875,0.1875,-0.46875],"type":"VEC3"},{"bufferView":25,"componentType":5126,"count":24,"max":[1,1,1],"min":[-1,-1,-1],"type":"VEC3"},{"bufferView":26,"componentType":5126,"count":24,"max":[1,0.6171875],"min":[0,0],"type":"VEC2"},{"bufferView":27,"componentType":5123,"count":12,"max":[7],"min":[0],"type":"SCALAR"},{"bufferView":28,"componentType":5123,"count":6,"max":[11],"min":[8],"type":"SCALAR"},{"bufferView":29,"componentType":5123,"count":6,"max":[15],"min":[12],"type":"SCALAR"},{"bufferView":30,"componentType":5123,"count":12,"max":[23],"min":[16],"type":"SCALAR"},{"bufferView":31,"componentType":5126,"count":24,"max":[0.625,0.3125,0.5],"min":[-0.625,0.1875,-0.5],"type":"VEC3"},{"bufferView":32,"componentType":5126,"count":24,"max":[1,1,1],"min":[-1,-1,-1],"type":"VEC3"},{"bufferView":33,"componentType":5126,"count":24,"max":[1,1],"min":[0,0],"type":"VEC2"},{"bufferView":34,"componentType":5123,"count":6,"max":[3],"min":[0],"type":"SCALAR"},{"bufferView":35,"componentType":5123,"count":6,"max":[7],"min":[4],"type":"SCALAR"},{"bufferView":36,"componentType":5123,"count":6,"max":[11],"min":[8],"type":"SCALAR"},{"bufferView":37,"componentType":5123,"count":6,"max":[15],"min":[12],"type":"SCALAR"},{"bufferView":38,"componentType":5123,"count":12,"max":[23],"min":[16],"type":"SCALAR"},{"bufferView":39,"componentType":5126,"count":24,"max":[0.0625,0.31562501192092896,0.5062500238418579],"min":[-0.0625,0.18437500298023224,-0.5062500238418579],"type":"VEC3"},{"bufferView":40,"componentType":5126,"count":24,"max":[1,1,1],"min":[-1,-1,-1],"type":"VEC3"},{"bufferView":41,"componentType":5126,"count":24,"max":[0.73828125,0.609375],"min":[0,0],"type":"VEC2"},{"bufferView":42,"componentType":5123,"count":18,"max":[11],"min":[0],"type":"SCALAR"},{"bufferView":43,"componentType":5123,"count":6,"max":[15],"min":[12],"type":"SCALAR"},{"bufferView":44,"componentType":5123,"count":12,"max":[23],"min":[16],"type":"SCALAR"},{"bufferView":45,"componentType":5126,"count":24,"max":[0.15625,0.2874999940395355,0.3125],"min":[-0.15625,0.21250000596046448,-0.3125],"type":"VEC3"},{"bufferView":46,"componentType":5126,"count":24,"max":[1,1,1],"min":[-1,-1,-1],"type":"VEC3"},{"bufferView":47,"componentType":5126,"count":24,"max":[1,0.609375],"min":[0,0],"type":"VEC2"},{"bufferView":48,"componentType":5123,"count":6,"max":[3],"min":[0],"type":"SCALAR"},{"bufferView":49,"componentType":5123,"count":12,"max":[11],"min":[4],"type":"SCALAR"},{"bufferView":50,"componentType":5123,"count":6,"max":[15],"min":[12],"type":"SCALAR"},{"bufferView":51,"componentType":5123,"count":12,"max":[23],"min":[16],"type":"SCALAR"}],"materials":[{"pbrMetallicRoughness":{"metallicFactor":0,"roughnessFactor":1,"baseColorTexture":{"index":0}},"alphaMode":"MASK","alphaCutoff":0.05,"doubleSided":true},{"pbrMetallicRoughness":{"metallicFactor":0,"roughnessFactor":1},"alphaMode":"MASK","alphaCutoff":0.05,"doubleSided":true},{"pbrMetallicRoughness":{"metallicFactor":0,"roughnessFactor":1,"baseColorTexture":{"index":1}},"alphaMode":"MASK","alphaCutoff":0.05,"doubleSided":true},{"pbrMetallicRoughness":{"metallicFactor":0,"roughnessFactor":1},"alphaMode":"MASK","alphaCutoff":0.05,"doubleSided":true},{"pbrMetallicRoughness":{"metallicFactor":0,"roughnessFactor":1},"alphaMode":"MASK","alphaCutoff":0.05,"doubleSided":true},{"pbrMetallicRoughness":{"metallicFactor":0,"roughnessFactor":1,"baseColorTexture":{"index":2}},"alphaMode":"MASK","alphaCutoff":0.05,"doubleSided":true},{"pbrMetallicRoughness":{"metallicFactor":0,"roughnessFactor":1,"baseColorTexture":{"index":3}},"alphaMode":"MASK","alphaCutoff":0.05,"doubleSided":true},{"pbrMetallicRoughness":{"metallicFactor":0,"roughnessFactor":1},"alphaMode":"MASK","alphaCutoff":0.05,"doubleSided":true},{"pbrMetallicRoughness":{"metallicFactor":0,"roughnessFactor":1,"baseColorTexture":{"index":4}},"alphaMode":"MASK","alphaCutoff":0.05,"doubleSided":true},{"pbrMetallicRoughness":{"metallicFactor":0,"roughnessFactor":1},"alphaMode":"MASK","alphaCutoff":0.05,"doubleSided":true}],"textures":[{"sampler":0,"source":0,"name":"211832.png"},{"sampler":1,"source":1,"name":"412b6b.png"},{"sampler":2,"source":2,"name":"f5cb5c.png"},{"sampler":3,"source":3,"name":"6a0dad.png"},{"sampler":4,"source":4,"name":"5c3e94.png"}],"samplers":[{"magFilter":9728,"minFilter":9728,"wrapS":33071,"wrapT":33071},{"magFilter":9728,"minFilter":9728,"wrapS":33071,"wrapT":33071},{"magFilter":9728,"minFilter":9728,"wrapS":33071,"wrapT":33071},{"magFilter":9728,"minFilter":9728,"wrapS":33071,"wrapT":33071},{"magFilter":9728,"minFilter":9728,"wrapS":33071,"wrapT":33071}],"images":[{"mimeType":"image/png","uri":"data:image/png;base64,"},{"mimeType":"image/png","uri":"data:image/png;base64,"},{"mimeType":"image/png","uri":"data:image/png;base64,"},{"mimeType":"image/png","uri":"data:image/png;base64,"},{"mimeType":"image/png","uri":"data:image/png;base64,"}],"meshes":[{"primitives":[{"mode":4,"attributes":{"POSITION":0,"NORMAL":1,"TEXCOORD_0":2},"indices":3,"material":0}]},{"primitives":[{"mode":4,"attributes":{"POSITION":4,"NORMAL":5,"TEXCOORD_0":6},"indices":7,"material":0}]},{"primitives":[{"mode":4,"attributes":{"POSITION":8,"NORMAL":9,"TEXCOORD_0":10},"indices":11,"material":1},{"mode":4,"attributes":{"POSITION":8,"NORMAL":9,"TEXCOORD_0":10},"indices":12,"material":0}]},{"primitives":[{"mode":4,"attributes":{"POSITION":13,"NORMAL":14,"TEXCOORD_0":15},"indices":16,"material":2},{"mode":4,"attributes":{"POSITION":13,"NORMAL":14,"TEXCOORD_0":15},"indices":17,"material":3},{"mode":4,"attributes":{"POSITION":13,"NORMAL":14,"TEXCOORD_0":15},"indices":18,"material":2}]},{"primitives":[{"mode":4,"attributes":{"POSITION":19,"NORMAL":20,"TEXCOORD_0":21},"indices":22,"material":2},{"mode":4,"attributes":{"POSITION":19,"NORMAL":20,"TEXCOORD_0":21},"indices":23,"material":3}]},{"primitives":[{"mode":4,"attributes":{"POSITION":24,"NORMAL":25,"TEXCOORD_0":26},"indices":27,"material":4},{"mode":4,"attributes":{"POSITION":24,"NORMAL":25,"TEXCOORD_0":26},"indices":28,"material":5},{"mode":4,"attributes":{"POSITION":24,"NORMAL":25,"TEXCOORD_0":26},"indices":29,"material":4},{"mode":4,"attributes":{"POSITION":24,"NORMAL":25,"TEXCOORD_0":26},"indices":30,"material":5}]},{"primitives":[{"mode":4,"attributes":{"POSITION":31,"NORMAL":32,"TEXCOORD_0":33},"indices":34,"material":6},{"mode":4,"attributes":{"POSITION":31,"NORMAL":32,"TEXCOORD_0":33},"indices":35,"material":7},{"mode":4,"attributes":{"POSITION":31,"NORMAL":32,"TEXCOORD_0":33},"indices":36,"material":6},{"mode":4,"attributes":{"POSITION":31,"NORMAL":32,"TEXCOORD_0":33},"indices":37,"material":7},{"mode":4,"attributes":{"POSITION":31,"NORMAL":32,"TEXCOORD_0":33},"indices":38,"material":6}]},{"primitives":[{"mode":4,"attributes":{"POSITION":39,"NORMAL":40,"TEXCOORD_0":41},"indices":42,"material":8},{"mode":4,"attributes":{"POSITION":39,"NORMAL":40,"TEXCOORD_0":41},"indices":43,"material":3},{"mode":4,"attributes":{"POSITION":39,"NORMAL":40,"TEXCOORD_0":41},"indices":44,"material":8}]},{"primitives":[{"mode":4,"attributes":{"POSITION":45,"NORMAL":46,"TEXCOORD_0":47},"indices":48,"material":9},{"mode":4,"attributes":{"POSITION":45,"NORMAL":46,"TEXCOORD_0":47},"indices":49,"material":8},{"mode":4,"attributes":{"POSITION":45,"NORMAL":46,"TEXCOORD_0":47},"indices":50,"material":9},{"mode":4,"attributes":{"POSITION":45,"NORMAL":46,"TEXCOORD_0":47},"indices":51,"material":8}]}]}