{"asset":{"version":"2.0","generator":"Blockbench 5.0.3 glTF exporter"},"scenes":[{"nodes":[5,12,16],"name":"blockbench_export"}],"scene":0,"nodes":[{"rotation":[0.7071067811865475,0,0,0.7071067811865476],"translation":[0,0.5249999999999994,-0.0625],"name":"cylinder","mesh":0},{"rotation":[0.6123724294855937,-0.3535533778112772,-0.3535533904704881,0.6123724493565745],"translation":[0,0.5249999999999994,-0.1625],"name":"cylinder","mesh":1},{"rotation":[0.6830126845754495,-0.18301269042897203,-0.1830126989620529,0.6830127230656919],"translation":[0,0.5249999999999994,-0.26249999999999996],"name":"cylinder","mesh":2},{"rotation":[0.6830126712402357,0.18301271666137417,0.1830127278338017,0.6830127216357922],"translation":[0,0.5249999999999994,-0.3624999999999998],"name":"cylinder","mesh":3},{"rotation":[0.6830126828307879,-0.18301267542441554,-0.18301268764928297,0.6830127318620594],"translation":[0,0.5249999999999994,-0.4624999999999998],"name":"cylinder","mesh":4},{"name":"numero","children":[0,1,2,3,4]},{"rotation":[0.7071067811865475,0,0,0.7071067811865476],"translation":[0,0.525,-0.525],"name":"cylinder","mesh":5},{"rotation":[0.7071067811865475,0,0,0.7071067811865476],"translation":[0,0.5250000000000002,-0.21250000000000002],"name":"cylinder","mesh":6},{"rotation":[0.7071067811865475,0,0,0.7071067811865476],"translation":[0,0.525,-0.41250000000000003],"name":"cylinder","mesh":7},{"rotation":[0.7071067811865475,0,0,0.7071067811865476],"translation":[0,0.5249999999999999,-0.3125],"name":"cylinder","mesh":8},{"rotation":[0.7071067811865475,0,0,0.7071067811865476],"translation":[0,0.5249999999999997,-0.1125],"name":"cylinder","mesh":9},{"rotation":[0.7071067811865475,0,0,0.7071067811865476],"translation":[0,0.5249999999999994,0],"name":"cylinder","mesh":10},{"name":"estrutura","children":[6,7,8,9,10,11]},{"translation":[0,0.41875000000000007,0.23125],"name":"cuboid","mesh":11},{"translation":[0,0.41875000000000007,-0.26875],"name":"cuboid","mesh":12},{"rotation":[0.5,-0.4999999999999999,0.5,0.5000000000000001],"translation":[0.25,0.625,-0.015625],"name":"tube","mesh":13},{"name":"superior","children":[13,14,15]}],"bufferViews":[{"buffer":0,"byteOffset":0,"byteLength":1440,"target":34962,"byteStride":12},{"buffer":0,"byteOffset":1440,"byteLength":1440,"target":34962,"byteStride":12},{"buffer":0,"byteOffset":2880,"byteLength":960,"target":34962,"byteStride":8},{"buffer":0,"byteOffset":3840,"byteLength":32,"target":34963},{"buffer":0,"byteOffset":3872,"byteLength":12,"target":34963},{"buffer":0,"byteOffset":3884,"byteLength":12,"target":34963},{"buffer":0,"byteOffset":3896,"byteLength":12,"target":34963},{"buffer":0,"byteOffset":3908,"byteLength":12,"target":34963},{"buffer":0,"byteOffset":3920,"byteLength":12,"target":34963},{"buffer":0,"byteOffset":3932,"byteLength":200,"target":34963},{"buffer":0,"byteOffset":4132,"byteLength":1440,"target":34962,"byteStride":12},{"buffer":0,"byteOffset":5572,"byteLength":1440,"target":34962,"byteStride":12},{"buffer":0,"byteOffset":7012,"byteLength":960,"target":34962,"byteStride":8},{"buffer":0,"byteOffset":7972,"byteLength":80,"target":34963},{"buffer":0,"byteOffset":8052,"byteLength":12,"target":34963},{"buffer":0,"byteOffset":8064,"byteLength":12,"target":34963},{"buffer":0,"byteOffset":8076,"byteLength":12,"target":34963},{"buffer":0,"byteOffset":8088,"byteLength":12,"target":34963},{"buffer":0,"byteOffset":8100,"byteLength":12,"target":34963},{"buffer":0,"byteOffset":8112,"byteLength":152,"target":34963},{"buffer":0,"byteOffset":8264,"byteLength":1440,"target":34962,"byteStride":12},{"buffer":0,"byteOffset":9704,"byteLength":1440,"target":34962,"byteStride":12},{"buffer":0,"byteOffset":11144,"byteLength":960,"target":34962,"byteStride":8},{"buffer":0,"byteOffset":12104,"byteLength":56,"target":34963},{"buffer":0,"byteOffset":12160,"byteLength":12,"target":34963},{"buffer":0,"byteOffset":12172,"byteLength":12,"target":34963},{"buffer":0,"byteOffset":12184,"byteLength":12,"target":34963},{"buffer":0,"byteOffset":12196,"byteLength":12,"target":34963},{"buffer":0,"byteOffset":12208,"byteLength":12,"target":34963},{"buffer":0,"byteOffset":12220,"byteLength":176,"target":34963},{"buffer":0,"byteOffset":12396,"byteLength":1440,"target":34962,"byteStride":12},{"buffer":0,"byteOffset":13836,"byteLength":1440,"target":34962,"byteStride":12},{"buffer":0,"byteOffset":15276,"byteLength":960,"target":34962,"byteStride":8},{"buffer":0,"byteOffset":16236,"byteLength":8,"target":34963},{"buffer":0,"byteOffset":16244,"byteLength":12,"target":34963},{"buffer":0,"byteOffset":16256,"byteLength":12,"target":34963},{"buffer":0,"byteOffset":16268,"byteLength":12,"target":34963},{"buffer":0,"byteOffset":16280,"byteLength":12,"target":34963},{"buffer":0,"byteOffset":16292,"byteLength":12,"target":34963},{"buffer":0,"byteOffset":16304,"byteLength":224,"target":34963},{"buffer":0,"byteOffset":16528,"byteLength":1440,"target":34962,"byteStride":12},{"buffer":0,"byteOffset":17968,"byteLength":1440,"target":34962,"byteStride":12},{"buffer":0,"byteOffset":19408,"byteLength":960,"target":34962,"byteStride":8},{"buffer":0,"byteOffset":20368,"byteLength":56,"target":34963},{"buffer":0,"byteOffset":20424,"byteLength":12,"target":34963},{"buffer":0,"byteOffset":20436,"byteLength":12,"target":34963},{"buffer":0,"byteOffset":20448,"byteLength":12,"target":34963},{"buffer":0,"byteOffset":20460,"byteLength":12,"target":34963},{"buffer":0,"byteOffset":20472,"byteLength":12,"target":34963},{"buffer":0,"byteOffset":20484,"byteLength":176,"target":34963},{"buffer":0,"byteOffset":20660,"byteLength":1440,"target":34962,"byteStride":12},{"buffer":0,"byteOffset":22100,"byteLength":1440,"target":34962,"byteStride":12},{"buffer":0,"byteOffset":23540,"byteLength":960,"target":34962,"byteStride":8},{"buffer":0,"byteOffset":24500,"byteLength":288,"target":34963},{"buffer":0,"byteOffset":24788,"byteLength":1440,"target":34962,"byteStride":12},{"buffer":0,"byteOffset":26228,"byteLength":1440,"target":34962,"byteStride":12},{"buffer":0,"byteOffset":27668,"byteLength":960,"target":34962,"byteStride":8},{"buffer":0,"byteOffset":28628,"byteLength":288,"target":34963},{"buffer":0,"byteOffset":28916,"byteLength":1440,"target":34962,"byteStride":12},{"buffer":0,"byteOffset":30356,"byteLength":1440,"target":34962,"byteStride":12},{"buffer":0,"byteOffset":31796,"byteLength":960,"target":34962,"byteStride":8},{"buffer":0,"byteOffset":32756,"byteLength":288,"target":34963},{"buffer":0,"byteOffset":33044,"byteLength":1440,"target":34962,"byteStride":12},{"buffer":0,"byteOffset":34484,"byteLength":1440,"target":34962,"byteStride":12},{"buffer":0,"byteOffset":35924,"byteLength":960,"target":34962,"byteStride":8},{"buffer":0,"byteOffset":36884,"byteLength":288,"target":34963},{"buffer":0,"byteOffset":37172,"byteLength":1440,"target":34962,"byteStride":12},{"buffer":0,"byteOffset":38612,"byteLength":1440,"target":34962,"byteStride":12},{"buffer":0,"byteOffset":40052,"byteLength":960,"target":34962,"byteStride":8},{"buffer":0,"byteOffset":41012,"byteLength":288,"target":34963},{"buffer":0,"byteOffset":41300,"byteLength":1440,"target":34962,"byteStride":12},{"buffer":0,"byteOffset":42740,"byteLength":1440,"target":34962,"byteStride":12},{"buffer":0,"byteOffset":44180,"byteLength":960,"target":34962,"byteStride":8},{"buffer":0,"byteOffset":45140,"byteLength":288,"target":34963},{"buffer":0,"byteOffset":45428,"byteLength":288,"target":34962,"byteStride":12},{"buffer":0,"byteOffset":45716,"byteLength":288,"target":34962,"byteStride":12},{"buffer":0,"byteOffset":46004,"byteLength":192,"target":34962,"byteStride":8},{"buffer":0,"byteOffset":46196,"byteLength":72,"target":34963},{"buffer":0,"byteOffset":46268,"byteLength":288,"target":34962,"byteStride":12},{"buffer":0,"byteOffset":46556,"byteLength":288,"target":34962,"byteStride":12},{"buffer":0,"byteOffset":46844,"byteLength":192,"target":34962,"byteStride":8},{"buffer":0,"byteOffset":47036,"byteLength":72,"target":34963},{"buffer":0,"byteOffset":47108,"byteLength":1344,"target":34962,"byteStride":12},{"buffer":0,"byteOffset":48452,"byteLength":1344,"target":34962,"byteStride":12},{"buffer":0,"byteOffset":49796,"byteLength":896,"target":34962,"byteStride":8},{"buffer":0,"byteOffset":50692,"byteLength":336,"target":34963}],"buffers":[{"byteLength":51028,"uri":"data:application/octet-stream;base64,"}],"accessors":[{"bufferView":0,"componentType":5126,"count":120,"max":[0.125,0.28125,0.125],"min":[-0.125,0.21875,-0.125],"type":"VEC3"},{"bufferView":1,"componentType":5126,"count":120,"max":[1,1,1],"min":[-1,-1,-1],"type":"VEC3"},{"bufferView":2,"componentType":5126,"count":120,"max":[0.03329439088702202,0.03453836590051651],"min":[0,0],"type":"VEC2"},{"bufferView":3,"componentType":5123,"count":15,"max":[12],"min":[0],"type":"SCALAR"},{"bufferView":4,"componentType":5123,"count":6,"max":[16],"min":[13],"type":"SCALAR"},{"bufferView":5,"componentType":5123,"count":6,"max":[22],"min":[17],"type":"SCALAR"},{"bufferView":6,"componentType":5123,"count":6,"max":[26],"min":[23],"type":"SCALAR"},{"bufferView":7,"componentType":5123,"count":6,"max":[32],"min":[27],"type":"SCALAR"},{"bufferView":8,"componentType":5123,"count":6,"max":[36],"min":[33],"type":"SCALAR"},{"bufferView":9,"componentType":5123,"count":99,"max":[119],"min":[37],"type":"SCALAR"},{"bufferView":10,"componentType":5126,"count":120,"max":[0.125,0.28125,0.125],"min":[-0.125,0.21875,-0.125],"type":"VEC3"},{"bufferView":11,"componentType":5126,"count":120,"max":[1,1,1],"min":[-1,-1,-1],"type":"VEC3"},{"bufferView":12,"componentType":5126,"count":120,"max":[0.03235238790512085,0.03453836590051651],"min":[0,0],"type":"VEC2"},{"bufferView":13,"componentType":5123,"count":39,"max":[32],"min":[0],"type":"SCALAR"},{"bufferView":14,"componentType":5123,"count":6,"max":[36],"min":[33],"type":"SCALAR"},{"bufferView":15,"componentType":5123,"count":6,"max":[42],"min":[37],"type":"SCALAR"},{"bufferView":16,"componentType":5123,"count":6,"max":[46],"min":[43],"type":"SCALAR"},{"bufferView":17,"componentType":5123,"count":6,"max":[52],"min":[47],"type":"SCALAR"},{"bufferView":18,"componentType":5123,"count":6,"max":[56],"min":[53],"type":"SCALAR"},{"bufferView":19,"componentType":5123,"count":75,"max":[119],"min":[57],"type":"SCALAR"},{"bufferView":20,"componentType":5126,"count":120,"max":[0.125,0.28125,0.125],"min":[-0.125,0.21875,-0.125],"type":"VEC3"},{"bufferView":21,"componentType":5126,"count":120,"max":[1,1,1],"min":[-1,-1,-1],"type":"VEC3"},{"bufferView":22,"componentType":5126,"count":120,"max":[0.03329439088702202,0.03453836590051651],"min":[0,0],"type":"VEC2"},{"bufferView":23,"componentType":5123,"count":27,"max":[22],"min":[0],"type":"SCALAR"},{"bufferView":24,"componentType":5123,"count":6,"max":[26],"min":[23],"type":"SCALAR"},{"bufferView":25,"componentType":5123,"count":6,"max":[32],"min":[27],"type":"SCALAR"},{"bufferView":26,"componentType":5123,"count":6,"max":[36],"min":[33],"type":"SCALAR"},{"bufferView":27,"componentType":5123,"count":6,"max":[42],"min":[37],"type":"SCALAR"},{"bufferView":28,"componentType":5123,"count":6,"max":[46],"min":[43],"type":"SCALAR"},{"bufferView":29,"componentType":5123,"count":87,"max":[119],"min":[47],"type":"SCALAR"},{"bufferView":30,"componentType":5126,"count":120,"max":[0.125,0.28125,0.125],"min":[-0.125,0.21875,-0.125],"type":"VEC3"},{"bufferView":31,"componentType":5126,"count":120,"max":[1,1,1],"min":[-1,-1,-1],"type":"VEC3"},{"bufferView":32,"componentType":5126,"count":120,"max":[0.03329439088702202,0.03453836590051651],"min":[0,0],"type":"VEC2"},{"bufferView":33,"componentType":5123,"count":3,"max":[2],"min":[0],"type":"SCALAR"},{"bufferView":34,"componentType":5123,"count":6,"max":[6],"min":[3],"type":"SCALAR"},{"bufferView":35,"componentType":5123,"count":6,"max":[12],"min":[7],"type":"SCALAR"},{"bufferView":36,"componentType":5123,"count":6,"max":[16],"min":[13],"type":"SCALAR"},{"bufferView":37,"componentType":5123,"count":6,"max":[22],"min":[17],"type":"SCALAR"},{"bufferView":38,"componentType":5123,"count":6,"max":[26],"min":[23],"type":"SCALAR"},{"bufferView":39,"componentType":5123,"count":111,"max":[119],"min":[27],"type":"SCALAR"},{"bufferView":40,"componentType":5126,"count":120,"max":[0.125,0.28125,0.125],"min":[-0.125,0.21875,-0.125],"type":"VEC3"},{"bufferView":41,"componentType":5126,"count":120,"max":[1,1,1],"min":[-1,-1,-1],"type":"VEC3"},{"bufferView":42,"componentType":5126,"count":120,"max":[0.03329439088702202,0.03453836590051651],"min":[0,0],"type":"VEC2"},{"bufferView":43,"componentType":5123,"count":27,"max":[22],"min":[0],"type":"SCALAR"},{"bufferView":44,"componentType":5123,"count":6,"max":[26],"min":[23],"type":"SCALAR"},{"bufferView":45,"componentType":5123,"count":6,"max":[32],"min":[27],"type":"SCALAR"},{"bufferView":46,"componentType":5123,"count":6,"max":[36],"min":[33],"type":"SCALAR"},{"bufferView":47,"componentType":5123,"count":6,"max":[42],"min":[37],"type":"SCALAR"},{"bufferView":48,"componentType":5123,"count":6,"max":[46],"min":[43],"type":"SCALAR"},{"bufferView":49,"componentType":5123,"count":87,"max":[119],"min":[47],"type":"SCALAR"},{"bufferView":50,"componentType":5126,"count":120,"max":[0.125,0.28125,0.125],"min":[-0.125,0.21875,-0.125],"type":"VEC3"},{"bufferView":51,"componentType":5126,"count":120,"max":[1,1,1],"min":[-1,-1,-1],"type":"VEC3"},{"bufferView":52,"componentType":5126,"count":120,"max":[0.03235238790512085,0.03235239163041115],"min":[0,0],"type":"VEC2"},{"bufferView":53,"componentType":5123,"count":144,"max":[119],"min":[0],"type":"SCALAR"},{"bufferView":54,"componentType":5126,"count":120,"max":[0.125,0.26875001192092896,0.125],"min":[-0.125,0.23125000298023224,-0.125],"type":"VEC3"},{"bufferView":55,"componentType":5126,"count":120,"max":[1,1,1],"min":[-1,-1,-1],"type":"VEC3"},{"bufferView":56,"componentType":5126,"count":120,"max":[0.03235238790512085,0.03235239163041115],"min":[0,0],"type":"VEC2"},{"bufferView":57,"componentType":5123,"count":144,"max":[119],"min":[0],"type":"SCALAR"},{"bufferView":58,"componentType":5126,"count":120,"max":[0.125,0.26875001192092896,0.125],"min":[-0.125,0.23125000298023224,-0.125],"type":"VEC3"},{"bufferView":59,"componentType":5126,"count":120,"max":[1,1,1],"min":[-1,-1,-1],"type":"VEC3"},{"bufferView":60,"componentType":5126,"count":120,"max":[0.03235238790512085,0.03235239163041115],"min":[0,0],"type":"VEC2"},{"bufferView":61,"componentType":5123,"count":144,"max":[119],"min":[0],"type":"SCALAR"},{"bufferView":62,"componentType":5126,"count":120,"max":[0.125,0.26875001192092896,0.125],"min":[-0.125,0.23125000298023224,-0.125],"type":"VEC3"},{"bufferView":63,"componentType":5126,"count":120,"max":[1,1,1],"min":[-1,-1,-1],"type":"VEC3"},{"bufferView":64,"componentType":5126,"count":120,"max":[0.03235238790512085,0.03235239163041115],"min":[0,0],"type":"VEC2"},{"bufferView":65,"componentType":5123,"count":144,"max":[119],"min":[0],"type":"SCALAR"},{"bufferView":66,"componentType":5126,"count":120,"max":[0.125,0.26875001192092896,0.125],"min":[-0.125,0.23125000298023224,-0.125],"type":"VEC3"},{"bufferView":67,"componentType":5126,"count":120,"max":[1,1,1],"min":[-1,-1,-1],"type":"VEC3"},{"bufferView":68,"componentType":5126,"count":120,"max":[0.03235238790512085,0.03235239163041115],"min":[0,0],"type":"VEC2"},{"bufferView":69,"componentType":5123,"count":144,"max":[119],"min":[0],"type":"SCALAR"},{"bufferView":70,"componentType":5126,"count":120,"max":[0.125,0.28125,0.125],"min":[-0.125,0.21875,-0.125],"type":"VEC3"},{"bufferView":71,"componentType":5126,"count":120,"max":[1,1,1],"min":[-1,-1,-1],"type":"VEC3"},{"bufferView":72,"componentType":5126,"count":120,"max":[0.03235238790512085,0.03235239163041115],"min":[0,0],"type":"VEC2"},{"bufferView":73,"componentType":5123,"count":144,"max":[119],"min":[0],"type":"SCALAR"},{"bufferView":74,"componentType":5126,"count":24,"max":[0.03125,0.26875001192092896,0.03750000149011612],"min":[-0.03125,0.23125000298023224,-0.03750000149011612],"type":"VEC3"},{"bufferView":75,"componentType":5126,"count":24,"max":[1,1,1],"min":[-1,-1,-1],"type":"VEC3"},{"bufferView":76,"componentType":5126,"count":24,"max":[0.0624999962747097,0.0624999962747097],"min":[0,0],"type":"VEC2"},{"bufferView":77,"componentType":5123,"count":36,"max":[23],"min":[0],"type":"SCALAR"},{"bufferView":78,"componentType":5126,"count":24,"max":[0.012500000186264515,0.26875001192092896,0.03125],"min":[-0.012500000186264515,0.23125000298023224,-0.03125],"type":"VEC3"},{"bufferView":79,"componentType":5126,"count":24,"max":[1,1,1],"min":[-1,-1,-1],"type":"VEC3"},{"bufferView":80,"componentType":5126,"count":24,"max":[0.0624999962747097,0.0624999962747097],"min":[0,0],"type":"VEC2"},{"bufferView":81,"componentType":5123,"count":36,"max":[23],"min":[0],"type":"SCALAR"},{"bufferView":82,"componentType":5126,"count":112,"max":[0.28125,0.26249998807907104,0.08573729544878006],"min":[-0.28125,0.23749999701976776,-0.26875001192092896],"type":"VEC3"},{"bufferView":83,"componentType":5126,"count":112,"max":[1,1,1],"min":[-1,-1,-1],"type":"VEC3"},{"bufferView":84,"componentType":5126,"count":112,"max":[0.016746874898672104,0.031250014901161194],"min":[0,0],"type":"VEC2"},{"bufferView":85,"componentType":5123,"count":168,"max":[111],"min":[0],"type":"SCALAR"}],"materials":[{"pbrMetallicRoughness":{"metallicFactor":0,"roughnessFactor":1,"baseColorTexture":{"index":0}},"alphaMode":"MASK","alphaCutoff":0.05,"doubleSided":true},{"pbrMetallicRoughness":{"metallicFactor":0,"roughnessFactor":1,"baseColorTexture":{"index":1}},"alphaMode":"MASK","alphaCutoff":0.05,"doubleSided":true},{"pbrMetallicRoughness":{"metallicFactor":0,"roughnessFactor":1,"baseColorTexture":{"index":2}},"alphaMode":"MASK","alphaCutoff":0.05,"doubleSided":true},{"pbrMetallicRoughness":{"metallicFactor":0,"roughnessFactor":1,"baseColorTexture":{"index":3}},"alphaMode":"MASK","alphaCutoff":0.05,"doubleSided":true}],"textures":[{"sampler":0,"source":0,"name":"211832.png"},{"sampler":1,"source":1,"name":"f5cb5c.png"},{"sampler":2,"source":2,"name":"f5cb5c.png"},{"sampler":3,"source":3,"name":"f5cb5c.png"}],"samplers":[{"magFilter":9728,"minFilter":9728,"wrapS":33071,"wrapT":33071},{"magFilter":9728,"minFilter":9728,"wrapS":33071,"wrapT":33071},{"magFilter":9728,"minFilter":9728,"wrapS":33071,"wrapT":33071},{"magFilter":9728,"minFilter":9728,"wrapS":33071,"wrapT":33071}],"images":[{"mimeType":"image/png","uri":"data:image/png;base64,"},{"mimeType":"image/png","uri":"data:image/png;base64,"},{"mimeType":"image/png","uri":"data:image/png;base64,"},{"mimeType":"image/png","uri":"data:image/png;base64,"}],"meshes":[{"primitives":[{"mode":4,"attributes":{"POSITION":0,"NORMAL":1,"TEXCOORD_0":2},"indices":3,"material":0},{"mode":4,"attributes":{"POSITION":0,"NORMAL":1,"TEXCOORD_0":2},"indices":4,"material":1},{"mode":4,"attributes":{"POSITION":0,"NORMAL":1,"TEXCOORD_0":2},"indices":5,"material":0},{"mode":4,"attributes":{"POSITION":0,"NORMAL":1,"TEXCOORD_0":2},"indices":6,"material":2},{"mode":4,"attributes":{"POSITION":0,"NORMAL":1,"TEXCOORD_0":2},"indices":7,"material":0},{"mode":4,"attributes":{"POSITION":0,"NORMAL":1,"TEXCOORD_0":2},"indices":8,"material":3},{"mode":4,"attributes":{"POSITION":0,"NORMAL":1,"TEXCOORD_0":2},"indices":9,"material":0}]},{"primitives":[{"mode":4,"attributes":{"POSITION":10,"NORMAL":11,"TEXCOORD_0":12},"indices":13,"material":0},{"mode":4,"attributes":{"POSITION":10,"NORMAL":11,"TEXCOORD_0":12},"indices":14,"material":2},{"mode":4,"attributes":{"POSITION":10,"NORMAL":11,"TEXCOORD_0":12},"indices":15,"material":0},{"mode":4,"attributes":{"POSITION":10,"NORMAL":11,"TEXCOORD_0":12},"indices":16,"material":3},{"mode":4,"attributes":{"POSITION":10,"NORMAL":11,"TEXCOORD_0":12},"indices":17,"material":0},{"mode":4,"attributes":{"POSITION":10,"NORMAL":11,"TEXCOORD_0":12},"indices":18,"material":1},{"mode":4,"attributes":{"POSITION":10,"NORMAL":11,"TEXCOORD_0":12},"indices":19,"material":0}]},{"primitives":[{"mode":4,"attributes":{"POSITION":20,"NORMAL":21,"TEXCOORD_0":22},"indices":23,"material":0},{"mode":4,"attributes":{"POSITION":20,"NORMAL":21,"TEXCOORD_0":22},"indices":24,"material":3},{"mode":4,"attributes":{"POSITION":20,"NORMAL":21,"TEXCOORD_0":22},"indices":25,"material":0},{"mode":4,"attributes":{"POSITION":20,"NORMAL":21,"TEXCOORD_0":22},"indices":26,"material":1},{"mode":4,"attributes":{"POSITION":20,"NORMAL":21,"TEXCOORD_0":22},"indices":27,"material":0},{"mode":4,"attributes":{"POSITION":20,"NORMAL":21,"TEXCOORD_0":22},"indices":28,"material":2},{"mode":4,"attributes":{"POSITION":20,"NORMAL":21,"TEXCOORD_0":22},"indices":29,"material":0}]},{"primitives":[{"mode":4,"attributes":{"POSITION":30,"NORMAL":31,"TEXCOORD_0":32},"indices":33,"material":0},{"mode":4,"attributes":{"POSITION":30,"NORMAL":31,"TEXCOORD_0":32},"indices":34,"material":2},{"mode":4,"attributes":{"POSITION":30,"NORMAL":31,"TEXCOORD_0":32},"indices":35,"material":0},{"mode":4,"attributes":{"POSITION":30,"NORMAL":31,"TEXCOORD_0":32},"indices":36,"material":1},{"mode":4,"attributes":{"POSITION":30,"NORMAL":31,"TEXCOORD_0":32},"indices":37,"material":0},{"mode":4,"attributes":{"POSITION":30,"NORMAL":31,"TEXCOORD_0":32},"indices":38,"material":3},{"mode":4,"attributes":{"POSITION":30,"NORMAL":31,"TEXCOORD_0":32},"indices":39,"material":0}]},{"primitives":[{"mode":4,"attributes":{"POSITION":40,"NORMAL":41,"TEXCOORD_0":42},"indices":43,"material":0},{"mode":4,"attributes":{"POSITION":40,"NORMAL":41,"TEXCOORD_0":42},"indices":44,"material":3},{"mode":4,"attributes":{"POSITION":40,"NORMAL":41,"TEXCOORD_0":42},"indices":45,"material":0},{"mode":4,"attributes":{"POSITION":40,"NORMAL":41,"TEXCOORD_0":42},"indices":46,"material":2},{"mode":4,"attributes":{"POSITION":40,"NORMAL":41,"TEXCOORD_0":42},"indices":47,"material":0},{"mode":4,"attributes":{"POSITION":40,"NORMAL":41,"TEXCOORD_0":42},"indices":48,"material":1},{"mode":4,"attributes":{"POSITION":40,"NORMAL":41,"TEXCOORD_0":42},"indices":49,"material":0}]},{"primitives":[{"mode":4,"attributes":{"POSITION":50,"NORMAL":51,"TEXCOORD_0":52},"indices":53,"material":0}]},{"primitives":[{"mode":4,"attributes":{"POSITION":54,"NORMAL":55,"TEXCOORD_0":56},"indices":57,"material":0}]},{"primitives":[{"mode":4,"attributes":{"POSITION":58,"NORMAL":59,"TEXCOORD_0":60},"indices":61,"material":0}]},{"primitives":[{"mode":4,"attributes":{"POSITION":62,"NORMAL":63,"TEXCOORD_0":64},"indices":65,"material":0}]},{"primitives":[{"mode":4,"attributes":{"POSITION":66,"NORMAL":67,"TEXCOORD_0":68},"indices":69,"material":0}]},{"primitives":[{"mode":4,"attributes":{"POSITION":70,"NORMAL":71,"TEXCOORD_0":72},"indices":73,"material":0}]},{"primitives":[{"mode":4,"attributes":{"POSITION":74,"NORMAL":75,"TEXCOORD_0":76},"indices":77,"material":0}]},{"primitives":[{"mode":4,"attributes":{"POSITION":78,"NORMAL":79,"TEXCOORD_0":80},"indices":81,"material":0}]},{"primitives":[{"mode":4,"attributes":{"POSITION":82,"NORMAL":83,"TEXCOORD_0":84},"indices":85,"material":0}]}]}